STARTFONT 2.1
COMMENT
COMMENT Converted from OpenType font "KH-Dot-Dougenzaka-16.ttf" by "otf2bdf 3.0".
COMMENT
FONT -FreeType-KH Dot Dougenzaka 16-Medium-R-Normal--17-120-100-100-P-160-ISO10646-1
SIZE 12 100 100
FONTBOUNDINGBOX 16 16 0 -2
STARTPROPERTIES 19
FOUNDRY "FreeType"
FAMILY_NAME "KH Dot Dougenzaka 16"
WEIGHT_NAME "Medium"
SLANT "R"
SETWIDTH_NAME "Normal"
ADD_STYLE_NAME ""
PIXEL_SIZE 17
POINT_SIZE 120
RESOLUTION_X 100
RESOLUTION_Y 100
SPACING "P"
AVERAGE_WIDTH 160
CHARSET_REGISTRY "ISO10646"
CHARSET_ENCODING "1"
FONT_ASCENT 13
FONT_DESCENT 2
COPYRIGHT "Copyright (c) Keitarou Hiraki, Font Silo. 1990-2015"
_OTF_FONTFILE "KH-Dot-Dougenzaka-16.ttf"
_OTF_PSNAME "KH-Dot-Dougenzaka-16"
ENDPROPERTIES
CHARS 7263
STARTCHAR 0020
ENCODING 32
SWIDTH 480 0
DWIDTH 8 0
BBX 8 16 0 -2
BITMAP
00
00
00
00
00
00
00
00
00
00
00
00
00
00
00
00
ENDCHAR
STARTCHAR 0021
ENCODING 33
SWIDTH 480 0
DWIDTH 8 0
BBX 8 16 0 -2
BITMAP
00
10
38
38
38
10
10
10
10
00
00
10
38
10
00
00
ENDCHAR
STARTCHAR 0022
ENCODING 34
SWIDTH 480 0
DWIDTH 8 0
BBX 8 16 0 -2
BITMAP
44
EE
66
22
CC
00
00
00
00
00
00
00
00
00
00
00
ENDCHAR
STARTCHAR 0023
ENCODING 35
SWIDTH 480 0
DWIDTH 8 0
BBX 8 16 0 -2
BITMAP
00
44
44
FE
FE
44
44
44
44
44
FE
FE
44
44
00
00
ENDCHAR
STARTCHAR 0024
ENCODING 36
SWIDTH 480 0
DWIDTH 8 0
BBX 8 16 0 -2
BITMAP
10
3A
76
D2
D2
70
70
1C
1C
16
96
96
DC
B8
10
00
ENDCHAR
STARTCHAR 0025
ENCODING 37
SWIDTH 480 0
DWIDTH 8 0
BBX 8 16 0 -2
BITMAP
00
70
D8
88
DA
74
08
10
20
5C
B6
22
36
1C
00
00
ENDCHAR
STARTCHAR 0026
ENCODING 38
SWIDTH 480 0
DWIDTH 8 0
BBX 8 16 0 -2
BITMAP
00
38
6C
44
6C
38
30
6F
D2
DA
CC
CC
66
3B
00
00
ENDCHAR
STARTCHAR 0027
ENCODING 39
SWIDTH 480 0
DWIDTH 8 0
BBX 8 16 0 -2
BITMAP
20
70
30
10
60
00
00
00
00
00
00
00
00
00
00
00
ENDCHAR
STARTCHAR 0028
ENCODING 40
SWIDTH 480 0
DWIDTH 8 0
BBX 8 16 0 -2
BITMAP
02
04
04
0C
08
18
18
18
18
18
08
0C
04
04
02
00
ENDCHAR
STARTCHAR 0029
ENCODING 41
SWIDTH 480 0
DWIDTH 8 0
BBX 8 16 0 -2
BITMAP
40
20
20
30
10
18
18
18
18
18
10
30
20
20
40
00
ENDCHAR
STARTCHAR 002A
ENCODING 42
SWIDTH 480 0
DWIDTH 8 0
BBX 8 16 0 -2
BITMAP
00
00
00
00
00
10
92
54
38
54
92
10
00
00
00
00
ENDCHAR
STARTCHAR 002B
ENCODING 43
SWIDTH 480 0
DWIDTH 8 0
BBX 8 16 0 -2
BITMAP
00
00
00
00
10
10
10
10
FE
10
10
10
10
00
00
00
ENDCHAR
STARTCHAR 002C
ENCODING 44
SWIDTH 480 0
DWIDTH 8 0
BBX 8 16 0 -2
BITMAP
00
00
00
00
00
00
00
00
00
00
00
10
38
18
08
30
ENDCHAR
STARTCHAR 002D
ENCODING 45
SWIDTH 480 0
DWIDTH 8 0
BBX 8 16 0 -2
BITMAP
00
00
00
00
00
00
00
00
FE
00
00
00
00
00
00
00
ENDCHAR
STARTCHAR 002E
ENCODING 46
SWIDTH 480 0
DWIDTH 8 0
BBX 8 16 0 -2
BITMAP
00
00
00
00
00
00
00
00
00
00
00
10
38
10
00
00
ENDCHAR
STARTCHAR 002F
ENCODING 47
SWIDTH 480 0
DWIDTH 8 0
BBX 8 16 0 -2
BITMAP
01
01
02
02
04
04
08
08
10
10
20
20
40
40
80
80
ENDCHAR
STARTCHAR 0030
ENCODING 48
SWIDTH 480 0
DWIDTH 8 0
BBX 8 16 0 -2
BITMAP
00
38
44
44
C6
C6
C6
C6
C6
C6
C6
44
44
38
00
00
ENDCHAR
STARTCHAR 0031
ENCODING 49
SWIDTH 480 0
DWIDTH 8 0
BBX 8 16 0 -2
BITMAP
00
08
18
78
18
18
18
18
18
18
18
18
18
7E
00
00
ENDCHAR
STARTCHAR 0032
ENCODING 50
SWIDTH 480 0
DWIDTH 8 0
BBX 8 16 0 -2
BITMAP
00
38
6C
86
06
06
0C
08
10
20
40
40
FE
FC
00
00
ENDCHAR
STARTCHAR 0033
ENCODING 51
SWIDTH 480 0
DWIDTH 8 0
BBX 8 16 0 -2
BITMAP
00
78
4C
06
06
06
3C
0C
06
06
06
C6
CC
78
00
00
ENDCHAR
STARTCHAR 0034
ENCODING 52
SWIDTH 480 0
DWIDTH 8 0
BBX 8 16 0 -2
BITMAP
00
0C
0C
1C
1C
2C
2C
4C
4C
FE
FE
0C
0C
0C
00
00
ENDCHAR
STARTCHAR 0035
ENCODING 53
SWIDTH 480 0
DWIDTH 8 0
BBX 8 16 0 -2
BITMAP
00
7C
7C
40
40
80
F8
9C
06
06
02
86
C4
78
00
00
ENDCHAR
STARTCHAR 0036
ENCODING 54
SWIDTH 480 0
DWIDTH 8 0
BBX 8 16 0 -2
BITMAP
00
18
30
60
60
C0
F8
C4
C6
C6
C6
C6
44
38
00
00
ENDCHAR
STARTCHAR 0037
ENCODING 55
SWIDTH 480 0
DWIDTH 8 0
BBX 8 16 0 -2
BITMAP
00
7E
FE
82
02
04
04
0C
08
18
18
30
30
30
00
00
ENDCHAR
STARTCHAR 0038
ENCODING 56
SWIDTH 480 0
DWIDTH 8 0
BBX 8 16 0 -2
BITMAP
00
38
44
C6
C6
C6
6C
7C
C6
C6
C6
C6
44
38
00
00
ENDCHAR
STARTCHAR 0039
ENCODING 57
SWIDTH 480 0
DWIDTH 8 0
BBX 8 16 0 -2
BITMAP
00
38
44
C6
C6
C6
C6
46
3E
06
0C
0C
18
30
00
00
ENDCHAR
STARTCHAR 003A
ENCODING 58
SWIDTH 480 0
DWIDTH 8 0
BBX 8 16 0 -2
BITMAP
00
00
00
00
00
10
38
10
00
00
00
10
38
10
00
00
ENDCHAR
STARTCHAR 003B
ENCODING 59
SWIDTH 480 0
DWIDTH 8 0
BBX 8 16 0 -2
BITMAP
00
00
00
00
00
10
38
10
00
00
00
10
38
18
08
30
ENDCHAR
STARTCHAR 003C
ENCODING 60
SWIDTH 480 0
DWIDTH 8 0
BBX 8 16 0 -2
BITMAP
00
02
04
08
10
20
40
80
40
20
10
08
04
02
00
00
ENDCHAR
STARTCHAR 003D
ENCODING 61
SWIDTH 480 0
DWIDTH 8 0
BBX 8 16 0 -2
BITMAP
00
00
00
00
00
00
FE
00
00
FE
00
00
00
00
00
00
ENDCHAR
STARTCHAR 003E
ENCODING 62
SWIDTH 480 0
DWIDTH 8 0
BBX 8 16 0 -2
BITMAP
00
80
40
20
10
08
04
02
04
08
10
20
40
80
00
00
ENDCHAR
STARTCHAR 003F
ENCODING 63
SWIDTH 480 0
DWIDTH 8 0
BBX 8 16 0 -2
BITMAP
00
78
E4
42
02
02
06
1C
18
10
00
10
38
10
00
00
ENDCHAR
STARTCHAR 0040
ENCODING 64
SWIDTH 480 0
DWIDTH 8 0
BBX 8 16 0 -2
BITMAP
00
38
6C
C6
D6
EE
EE
EE
EE
EE
D4
C0
60
3C
00
00
ENDCHAR
STARTCHAR 0041
ENCODING 65
SWIDTH 480 0
DWIDTH 8 0
BBX 8 16 0 -2
BITMAP
00
18
18
18
18
2C
2C
2C
2C
46
7E
46
46
EF
00
00
ENDCHAR
STARTCHAR 0042
ENCODING 66
SWIDTH 480 0
DWIDTH 8 0
BBX 8 16 0 -2
BITMAP
00
F8
64
66
66
66
64
7C
66
66
66
66
64
F8
00
00
ENDCHAR
STARTCHAR 0043
ENCODING 67
SWIDTH 480 0
DWIDTH 8 0
BBX 8 16 0 -2
BITMAP
00
3A
66
46
C2
C2
C0
C0
C0
C0
C2
46
64
3C
00
00
ENDCHAR
STARTCHAR 0044
ENCODING 68
SWIDTH 480 0
DWIDTH 8 0
BBX 8 16 0 -2
BITMAP
00
F8
6C
64
66
66
66
66
66
66
66
64
6C
F8
00
00
ENDCHAR
STARTCHAR 0045
ENCODING 69
SWIDTH 480 0
DWIDTH 8 0
BBX 8 16 0 -2
BITMAP
00
FE
62
62
60
60
64
7C
64
60
60
62
62
FE
00
00
ENDCHAR
STARTCHAR 0046
ENCODING 70
SWIDTH 480 0
DWIDTH 8 0
BBX 8 16 0 -2
BITMAP
00
FE
62
62
60
60
64
7C
64
64
60
60
60
F8
00
00
ENDCHAR
STARTCHAR 0047
ENCODING 71
SWIDTH 480 0
DWIDTH 8 0
BBX 8 16 0 -2
BITMAP
00
3A
6E
46
C2
C2
C0
DF
C6
C6
C6
46
6E
36
00
00
ENDCHAR
STARTCHAR 0048
ENCODING 72
SWIDTH 480 0
DWIDTH 8 0
BBX 8 16 0 -2
BITMAP
00
F7
66
66
66
66
66
7E
66
66
66
66
66
F7
00
00
ENDCHAR
STARTCHAR 0049
ENCODING 73
SWIDTH 480 0
DWIDTH 8 0
BBX 8 16 0 -2
BITMAP
00
7E
18
18
18
18
18
18
18
18
18
18
18
7E
00
00
ENDCHAR
STARTCHAR 004A
ENCODING 74
SWIDTH 480 0
DWIDTH 8 0
BBX 8 16 0 -2
BITMAP
00
3F
0C
0C
0C
0C
0C
0C
0C
0C
0C
0C
0C
CC
C8
70
ENDCHAR
STARTCHAR 004B
ENCODING 75
SWIDTH 480 0
DWIDTH 8 0
BBX 8 16 0 -2
BITMAP
00
F7
62
64
64
68
68
78
68
6C
6C
66
66
F7
00
00
ENDCHAR
STARTCHAR 004C
ENCODING 76
SWIDTH 480 0
DWIDTH 8 0
BBX 8 16 0 -2
BITMAP
00
F8
60
60
60
60
60
60
60
60
62
62
66
FE
00
00
ENDCHAR
STARTCHAR 004D
ENCODING 77
SWIDTH 480 0
DWIDTH 8 0
BBX 8 16 0 -2
BITMAP
00
C3
42
66
66
7E
7E
56
56
46
46
46
46
EF
00
00
ENDCHAR
STARTCHAR 004E
ENCODING 78
SWIDTH 480 0
DWIDTH 8 0
BBX 8 16 0 -2
BITMAP
00
C7
62
62
72
72
5A
5A
4E
4E
46
46
42
E2
00
00
ENDCHAR
STARTCHAR 004F
ENCODING 79
SWIDTH 480 0
DWIDTH 8 0
BBX 8 16 0 -2
BITMAP
00
38
6C
44
C6
C6
C6
C6
C6
C6
C6
44
6C
38
00
00
ENDCHAR
STARTCHAR 0050
ENCODING 80
SWIDTH 480 0
DWIDTH 8 0
BBX 8 16 0 -2
BITMAP
00
F8
64
66
66
66
66
64
78
60
60
60
60
F0
00
00
ENDCHAR
STARTCHAR 0051
ENCODING 81
SWIDTH 480 0
DWIDTH 8 0
BBX 8 16 0 -2
BITMAP
00
38
6C
44
C6
C6
C6
E6
D6
D6
D6
54
74
38
30
1C
ENDCHAR
STARTCHAR 0052
ENCODING 82
SWIDTH 480 0
DWIDTH 8 0
BBX 8 16 0 -2
BITMAP
00
F8
64
66
66
66
64
78
68
6C
6C
66
66
F7
00
00
ENDCHAR
STARTCHAR 0053
ENCODING 83
SWIDTH 480 0
DWIDTH 8 0
BBX 8 16 0 -2
BITMAP
00
3A
66
C2
C2
60
70
1C
0C
06
86
86
CC
B8
00
00
ENDCHAR
STARTCHAR 0054
ENCODING 84
SWIDTH 480 0
DWIDTH 8 0
BBX 8 16 0 -2
BITMAP
00
FF
DB
99
99
18
18
18
18
18
18
18
18
7E
00
00
ENDCHAR
STARTCHAR 0055
ENCODING 85
SWIDTH 480 0
DWIDTH 8 0
BBX 8 16 0 -2
BITMAP
00
F7
62
62
62
62
62
62
62
62
62
62
66
3C
00
00
ENDCHAR
STARTCHAR 0056
ENCODING 86
SWIDTH 480 0
DWIDTH 8 0
BBX 8 16 0 -2
BITMAP
00
F7
62
62
62
62
34
34
34
34
18
18
18
18
00
00
ENDCHAR
STARTCHAR 0057
ENCODING 87
SWIDTH 480 0
DWIDTH 8 0
BBX 8 16 0 -2
BITMAP
00
DB
DA
DA
DA
DA
DA
DA
6C
6C
6C
6C
6C
6C
00
00
ENDCHAR
STARTCHAR 0058
ENCODING 88
SWIDTH 480 0
DWIDTH 8 0
BBX 8 16 0 -2
BITMAP
00
F7
62
62
34
34
18
18
18
2C
2C
46
46
EF
00
00
ENDCHAR
STARTCHAR 0059
ENCODING 89
SWIDTH 480 0
DWIDTH 8 0
BBX 8 16 0 -2
BITMAP
00
F7
62
62
62
34
34
34
18
18
18
18
18
3C
00
00
ENDCHAR
STARTCHAR 005A
ENCODING 90
SWIDTH 480 0
DWIDTH 8 0
BBX 8 16 0 -2
BITMAP
00
FE
8E
8C
0C
18
18
30
30
60
62
C2
C6
FE
00
00
ENDCHAR
STARTCHAR 005B
ENCODING 91
SWIDTH 480 0
DWIDTH 8 0
BBX 8 16 0 -2
BITMAP
00
3E
30
30
30
30
30
30
30
30
30
30
30
30
3E
00
ENDCHAR
STARTCHAR 005C
ENCODING 92
SWIDTH 480 0
DWIDTH 8 0
BBX 8 16 0 -2
BITMAP
00
F7
62
62
62
34
34
FF
18
18
FF
18
18
3C
00
00
ENDCHAR
STARTCHAR 005D
ENCODING 93
SWIDTH 480 0
DWIDTH 8 0
BBX 8 16 0 -2
BITMAP
00
7C
0C
0C
0C
0C
0C
0C
0C
0C
0C
0C
0C
0C
7C
00
ENDCHAR
STARTCHAR 005E
ENCODING 94
SWIDTH 480 0
DWIDTH 8 0
BBX 8 16 0 -2
BITMAP
00
10
38
6C
82
00
00
00
00
00
00
00
00
00
00
00
ENDCHAR
STARTCHAR 005F
ENCODING 95
SWIDTH 480 0
DWIDTH 8 0
BBX 8 16 0 -2
BITMAP
00
00
00
00
00
00
00
00
00
00
00
00
00
00
FE
00
ENDCHAR
STARTCHAR 0060
ENCODING 96
SWIDTH 480 0
DWIDTH 8 0
BBX 8 16 0 -2
BITMAP
08
1C
18
10
0C
00
00
00
00
00
00
00
00
00
00
00
ENDCHAR
STARTCHAR 0061
ENCODING 97
SWIDTH 480 0
DWIDTH 8 0
BBX 8 16 0 -2
BITMAP
00
00
00
00
00
3C
C4
C6
1E
66
C6
C6
EF
76
00
00
ENDCHAR
STARTCHAR 0062
ENCODING 98
SWIDTH 480 0
DWIDTH 8 0
BBX 8 16 0 -2
BITMAP
E0
60
60
60
60
78
6C
66
66
66
66
66
6C
58
00
00
ENDCHAR
STARTCHAR 0063
ENCODING 99
SWIDTH 480 0
DWIDTH 8 0
BBX 8 16 0 -2
BITMAP
00
00
00
00
00
38
46
C6
C0
C0
C0
C2
64
38
00
00
ENDCHAR
STARTCHAR 0064
ENCODING 100
SWIDTH 480 0
DWIDTH 8 0
BBX 8 16 0 -2
BITMAP
0E
06
06
06
06
3E
6E
C6
C6
C6
C6
C6
6E
37
00
00
ENDCHAR
STARTCHAR 0065
ENCODING 101
SWIDTH 480 0
DWIDTH 8 0
BBX 8 16 0 -2
BITMAP
00
00
00
00
00
38
64
C6
C2
FE
C0
C0
62
3C
00
00
ENDCHAR
STARTCHAR 0066
ENCODING 102
SWIDTH 480 0
DWIDTH 8 0
BBX 8 16 0 -2
BITMAP
1C
26
26
30
30
FC
30
30
30
30
30
30
30
78
00
00
ENDCHAR
STARTCHAR 0067
ENCODING 103
SWIDTH 480 0
DWIDTH 8 0
BBX 8 16 0 -2
BITMAP
00
00
00
00
00
7B
CD
CC
CC
78
40
FC
BE
82
C2
7C
ENDCHAR
STARTCHAR 0068
ENCODING 104
SWIDTH 480 0
DWIDTH 8 0
BBX 8 16 0 -2
BITMAP
E0
60
60
60
60
7C
66
66
66
66
66
66
66
F7
00
00
ENDCHAR
STARTCHAR 0069
ENCODING 105
SWIDTH 480 0
DWIDTH 8 0
BBX 8 16 0 -2
BITMAP
10
38
10
00
00
38
18
18
18
18
18
18
18
3C
00
00
ENDCHAR
STARTCHAR 006A
ENCODING 106
SWIDTH 480 0
DWIDTH 8 0
BBX 8 16 0 -2
BITMAP
08
1C
08
00
00
1C
0C
0C
0C
0C
0C
0C
0C
CC
C8
70
ENDCHAR
STARTCHAR 006B
ENCODING 107
SWIDTH 480 0
DWIDTH 8 0
BBX 8 16 0 -2
BITMAP
E0
60
60
60
60
67
62
64
68
78
6C
6C
66
F7
00
00
ENDCHAR
STARTCHAR 006C
ENCODING 108
SWIDTH 480 0
DWIDTH 8 0
BBX 8 16 0 -2
BITMAP
38
18
18
18
18
18
18
18
18
18
18
18
18
3C
00
00
ENDCHAR
STARTCHAR 006D
ENCODING 109
SWIDTH 480 0
DWIDTH 8 0
BBX 8 16 0 -2
BITMAP
00
00
00
00
00
DA
FF
DB
DB
DB
DB
DB
DB
DB
00
00
ENDCHAR
STARTCHAR 006E
ENCODING 110
SWIDTH 480 0
DWIDTH 8 0
BBX 8 16 0 -2
BITMAP
00
00
00
00
00
EC
7E
66
66
66
66
66
66
F7
00
00
ENDCHAR
STARTCHAR 006F
ENCODING 111
SWIDTH 480 0
DWIDTH 8 0
BBX 8 16 0 -2
BITMAP
00
00
00
00
00
38
6C
C6
C6
C6
C6
C6
6C
38
00
00
ENDCHAR
STARTCHAR 0070
ENCODING 112
SWIDTH 480 0
DWIDTH 8 0
BBX 8 16 0 -2
BITMAP
00
00
00
00
00
FC
64
66
66
66
66
66
64
7C
60
F0
ENDCHAR
STARTCHAR 0071
ENCODING 113
SWIDTH 480 0
DWIDTH 8 0
BBX 8 16 0 -2
BITMAP
00
00
00
00
00
3A
6E
C6
C6
C6
C6
C6
66
3E
06
0F
ENDCHAR
STARTCHAR 0072
ENCODING 114
SWIDTH 480 0
DWIDTH 8 0
BBX 8 16 0 -2
BITMAP
00
00
00
00
00
FC
66
66
60
60
60
60
60
F0
00
00
ENDCHAR
STARTCHAR 0073
ENCODING 115
SWIDTH 480 0
DWIDTH 8 0
BBX 8 16 0 -2
BITMAP
00
00
00
00
00
7E
86
80
F0
7C
0E
02
C2
FC
00
00
ENDCHAR
STARTCHAR 0074
ENCODING 116
SWIDTH 480 0
DWIDTH 8 0
BBX 8 16 0 -2
BITMAP
00
00
00
30
30
FE
30
30
30
30
30
30
32
1C
00
00
ENDCHAR
STARTCHAR 0075
ENCODING 117
SWIDTH 480 0
DWIDTH 8 0
BBX 8 16 0 -2
BITMAP
00
00
00
00
00
EE
66
66
66
66
66
66
7E
37
00
00
ENDCHAR
STARTCHAR 0076
ENCODING 118
SWIDTH 480 0
DWIDTH 8 0
BBX 8 16 0 -2
BITMAP
00
00
00
00
00
F7
62
62
34
34
34
18
18
18
00
00
ENDCHAR
STARTCHAR 0077
ENCODING 119
SWIDTH 480 0
DWIDTH 8 0
BBX 8 16 0 -2
BITMAP
00
00
00
00
00
DB
DA
DA
DA
DA
6C
6C
6C
6C
00
00
ENDCHAR
STARTCHAR 0078
ENCODING 120
SWIDTH 480 0
DWIDTH 8 0
BBX 8 16 0 -2
BITMAP
00
00
00
00
00
F7
62
34
38
18
1C
2C
46
EF
00
00
ENDCHAR
STARTCHAR 0079
ENCODING 121
SWIDTH 480 0
DWIDTH 8 0
BBX 8 16 0 -2
BITMAP
00
00
00
00
00
E7
C2
62
64
34
38
18
10
10
60
60
ENDCHAR
STARTCHAR 007A
ENCODING 122
SWIDTH 480 0
DWIDTH 8 0
BBX 8 16 0 -2
BITMAP
00
00
00
00
00
FE
8C
8C
18
38
30
62
62
FE
00
00
ENDCHAR
STARTCHAR 007B
ENCODING 123
SWIDTH 480 0
DWIDTH 8 0
BBX 8 16 0 -2
BITMAP
00
06
08
18
18
18
10
60
10
18
18
18
08
06
00
00
ENDCHAR
STARTCHAR 007C
ENCODING 124
SWIDTH 480 0
DWIDTH 8 0
BBX 8 16 0 -2
BITMAP
10
10
10
10
10
10
10
10
10
10
10
10
10
10
10
10
ENDCHAR
STARTCHAR 007D
ENCODING 125
SWIDTH 480 0
DWIDTH 8 0
BBX 8 16 0 -2
BITMAP
00
60
10
18
18
18
08
06
08
18
18
18
10
60
00
00
ENDCHAR
STARTCHAR 00A0
ENCODING 160
SWIDTH 480 0
DWIDTH 8 0
BBX 8 16 0 -2
BITMAP
00
00
00
00
00
00
00
00
00
00
00
00
00
00
00
00
ENDCHAR
STARTCHAR 00A2
ENCODING 162
SWIDTH 960 0
DWIDTH 16 0
BBX 9 14 3 -2
BITMAP
0200
0200
0200
3F00
6580
C580
C400
C400
C800
6880
2B00
1C00
1000
1000
ENDCHAR
STARTCHAR 00A3
ENCODING 163
SWIDTH 960 0
DWIDTH 16 0
BBX 11 14 2 -1
BITMAP
0F00
1080
31C0
3080
3000
3000
FF80
1000
1800
1820
7820
9820
96C0
6380
ENDCHAR
STARTCHAR 00A5
ENCODING 165
SWIDTH 480 0
DWIDTH 8 0
BBX 8 13 0 0
BITMAP
F7
62
62
62
34
34
FF
18
18
FF
18
18
3C
ENDCHAR
STARTCHAR 00A7
ENCODING 167
SWIDTH 960 0
DWIDTH 16 0
BBX 15 16 0 -2
BITMAP
03C0
0470
0C30
0C20
0600
03C0
0460
0C30
0620
03C0
0060
0430
0C30
0E20
03C0
0000
ENDCHAR
STARTCHAR 00A8
ENCODING 168
SWIDTH 960 0
DWIDTH 16 0
BBX 15 16 0 -2
BITMAP
0CC0
0CC0
0000
0000
0000
0000
0000
0000
0000
0000
0000
0000
0000
0000
0000
0000
ENDCHAR
STARTCHAR 00AC
ENCODING 172
SWIDTH 960 0
DWIDTH 16 0
BBX 15 16 0 -2
BITMAP
0000
0000
0000
0000
0000
0000
3FF8
0008
0008
0008
0008
0000
0000
0000
0000
0000
ENDCHAR
STARTCHAR 00B0
ENCODING 176
SWIDTH 960 0
DWIDTH 16 0
BBX 15 16 0 -2
BITMAP
7000
8800
8800
8800
7000
0000
0000
0000
0000
0000
0000
0000
0000
0000
0000
0000
ENDCHAR
STARTCHAR 00B1
ENCODING 177
SWIDTH 960 0
DWIDTH 16 0
BBX 15 16 0 -2
BITMAP
0000
0100
0100
0100
0100
3FF8
0100
0100
0100
0100
0000
0000
3FF8
0000
0000
0000
ENDCHAR
STARTCHAR 00B4
ENCODING 180
SWIDTH 960 0
DWIDTH 16 0
BBX 15 16 0 -2
BITMAP
00C0
07C0
0000
0000
0000
0000
0000
0000
0000
0000
0000
0000
0000
0000
0000
0000
ENDCHAR
STARTCHAR 00B6
ENCODING 182
SWIDTH 960 0
DWIDTH 16 0
BBX 15 16 0 -2
BITMAP
0000
07E0
0F20
1F20
1F20
0F20
0720
0120
0120
0120
0120
0120
0120
0120
0120
0000
ENDCHAR
STARTCHAR 00D7
ENCODING 215
SWIDTH 960 0
DWIDTH 16 0
BBX 15 16 0 -2
BITMAP
0000
0000
0000
1010
0820
0440
0280
0100
0100
0280
0440
0820
1010
0000
0000
0000
ENDCHAR
STARTCHAR 00F7
ENCODING 247
SWIDTH 960 0
DWIDTH 16 0
BBX 15 16 0 -2
BITMAP
0000
0000
0100
0380
0100
0000
0000
3FF8
0000
0000
0100
0380
0100
0000
0000
0000
ENDCHAR
STARTCHAR 0391
ENCODING 913
SWIDTH 960 0
DWIDTH 16 0
BBX 15 16 0 -2
BITMAP
0000
0100
0100
0380
0280
04C0
04C0
04C0
0860
0FE0
0860
1030
1030
787C
0000
0000
ENDCHAR
STARTCHAR 0392
ENCODING 914
SWIDTH 960 0
DWIDTH 16 0
BBX 15 16 0 -2
BITMAP
0000
3FC0
0C60
0C30
0C30
0C30
0C60
0FC0
0C60
0C30
0C30
0C30
0C60
3FC0
0000
0000
ENDCHAR
STARTCHAR 0393
ENCODING 915
SWIDTH 960 0
DWIDTH 16 0
BBX 15 16 0 -2
BITMAP
0000
3FF0
0C30
0C10
0C10
0C00
0C00
0C00
0C00
0C00
0C00
0C00
0C00
3F80
0000
0000
ENDCHAR
STARTCHAR 0394
ENCODING 916
SWIDTH 960 0
DWIDTH 16 0
BBX 15 16 0 -2
BITMAP
0000
0100
0100
0380
0280
04C0
04C0
0860
0860
1030
1030
2018
3FF8
7FFC
0000
0000
ENDCHAR
STARTCHAR 0395
ENCODING 917
SWIDTH 960 0
DWIDTH 16 0
BBX 15 16 0 -2
BITMAP
0000
3FF8
0C18
0C08
0C08
0C40
0CC0
0FC0
0CC0
0C40
0C08
0C08
0C18
3FF8
0000
0000
ENDCHAR
STARTCHAR 0396
ENCODING 918
SWIDTH 960 0
DWIDTH 16 0
BBX 15 16 0 -2
BITMAP
0000
1FF8
1830
1060
1060
00C0
00C0
0180
0300
0300
0608
0608
0C18
1FF8
0000
0000
ENDCHAR
STARTCHAR 0397
ENCODING 919
SWIDTH 960 0
DWIDTH 16 0
BBX 15 16 0 -2
BITMAP
0000
7EFC
1830
1830
1830
1830
1830
1FF0
1830
1830
1830
1830
1830
7EFC
0000
0000
ENDCHAR
STARTCHAR 0398
ENCODING 920
SWIDTH 960 0
DWIDTH 16 0
BBX 15 16 0 -2
BITMAP
0000
03C0
0C30
1818
1818
324C
33CC
33CC
324C
300C
1818
1818
0C30
03C0
0000
0000
ENDCHAR
STARTCHAR 0399
ENCODING 921
SWIDTH 960 0
DWIDTH 16 0
BBX 15 16 0 -2
BITMAP
0000
07E0
0180
0180
0180
0180
0180
0180
0180
0180
0180
0180
0180
07E0
0000
0000
ENDCHAR
STARTCHAR 039A
ENCODING 922
SWIDTH 960 0
DWIDTH 16 0
BBX 15 16 0 -2
BITMAP
0000
7C78
1820
1840
1880
1900
1B80
1D80
18C0
18C0
1860
1860
1830
7C7C
0000
0000
ENDCHAR
STARTCHAR 039B
ENCODING 923
SWIDTH 960 0
DWIDTH 16 0
BBX 15 16 0 -2
BITMAP
0000
0100
0100
0380
0280
04C0
04C0
04C0
0860
0860
0860
1030
1030
7CFC
0000
0000
ENDCHAR
STARTCHAR 039C
ENCODING 924
SWIDTH 960 0
DWIDTH 16 0
BBX 15 16 0 -2
BITMAP
0000
701C
3018
3838
3838
2838
2C58
2C58
2698
2698
2698
2318
2318
F87E
0000
0000
ENDCHAR
STARTCHAR 039D
ENCODING 925
SWIDTH 960 0
DWIDTH 16 0
BBX 15 16 0 -2
BITMAP
0000
787C
1810
1C10
1610
1610
1310
1310
1190
10D0
10D0
1070
1030
7C30
0000
0000
ENDCHAR
STARTCHAR 039E
ENCODING 926
SWIDTH 960 0
DWIDTH 16 0
BBX 15 16 0 -2
BITMAP
0000
0FFC
1FF8
1008
0000
0410
07F0
0FE0
0820
0000
0000
1008
1FF8
3FF0
0000
0000
ENDCHAR
STARTCHAR 039F
ENCODING 927
SWIDTH 960 0
DWIDTH 16 0
BBX 15 16 0 -2
BITMAP
0000
03C0
0C30
1818
1818
300C
300C
300C
300C
300C
1818
1818
0C30
03C0
0000
0000
ENDCHAR
STARTCHAR 03A0
ENCODING 928
SWIDTH 960 0
DWIDTH 16 0
BBX 15 16 0 -2
BITMAP
0000
3FFC
0C30
0C30
0C30
0C30
0C30
0C30
0C30
0C30
0C30
0C30
0C30
3E7C
0000
0000
ENDCHAR
STARTCHAR 03A1
ENCODING 929
SWIDTH 960 0
DWIDTH 16 0
BBX 15 16 0 -2
BITMAP
0000
3FE0
0C30
0C18
0C18
0C18
0C30
0FE0
0C00
0C00
0C00
0C00
0C00
3F80
0000
0000
ENDCHAR
STARTCHAR 03A3
ENCODING 931
SWIDTH 960 0
DWIDTH 16 0
BBX 15 16 0 -2
BITMAP
0000
3FF8
1818
0C08
0C08
0600
0300
0380
0300
0600
0C08
0C08
1818
3FF8
0000
0000
ENDCHAR
STARTCHAR 03A4
ENCODING 932
SWIDTH 960 0
DWIDTH 16 0
BBX 15 16 0 -2
BITMAP
0000
3FFC
318C
2184
2184
0180
0180
0180
0180
0180
0180
0180
0180
07E0
0000
0000
ENDCHAR
STARTCHAR 03A5
ENCODING 933
SWIDTH 960 0
DWIDTH 16 0
BBX 15 16 0 -2
BITMAP
0000
1C38
2664
23C4
0180
0180
0180
0180
0180
0180
0180
0180
0180
07E0
0000
0000
ENDCHAR
STARTCHAR 03A6
ENCODING 934
SWIDTH 960 0
DWIDTH 16 0
BBX 15 16 0 -2
BITMAP
0000
07E0
0180
07E0
1998
1998
318C
318C
318C
1998
1998
07E0
0180
07E0
0000
0000
ENDCHAR
STARTCHAR 03A7
ENCODING 935
SWIDTH 960 0
DWIDTH 16 0
BBX 15 16 0 -2
BITMAP
0000
7E7C
1810
0C20
0C40
0680
0300
0380
0380
04C0
0460
0860
1030
7CFC
0000
0000
ENDCHAR
STARTCHAR 03A8
ENCODING 936
SWIDTH 960 0
DWIDTH 16 0
BBX 15 16 0 -2
BITMAP
0000
07E0
0180
318C
599A
1998
1998
1998
0DB0
07E0
0180
0180
0180
07E0
0000
0000
ENDCHAR
STARTCHAR 03A9
ENCODING 937
SWIDTH 960 0
DWIDTH 16 0
BBX 15 16 0 -2
BITMAP
0000
03C0
0C30
1818
1008
300C
300C
300C
1008
1818
0C30
2424
364C
3E7C
0000
0000
ENDCHAR
STARTCHAR 03B1
ENCODING 945
SWIDTH 960 0
DWIDTH 16 0
BBX 15 16 0 -2
BITMAP
0000
0000
0000
0000
0000
0398
0458
0C70
1860
1060
30C0
30C0
3350
1C60
0000
0000
ENDCHAR
STARTCHAR 03B2
ENCODING 946
SWIDTH 960 0
DWIDTH 16 0
BBX 15 16 0 -2
BITMAP
0000
00F0
0198
0118
0318
0330
02E0
0620
0630
0430
0C30
0F60
0DC0
1800
1800
1800
ENDCHAR
STARTCHAR 03B3
ENCODING 947
SWIDTH 960 0
DWIDTH 16 0
BBX 15 16 0 -2
BITMAP
0000
0000
0000
0000
0000
0E18
1338
01C0
0180
0100
0300
0300
0200
0600
0600
0600
ENDCHAR
STARTCHAR 03B4
ENCODING 948
SWIDTH 960 0
DWIDTH 16 0
BBX 15 16 0 -2
BITMAP
0000
01C0
0270
0238
0108
0080
03C0
0660
0460
0C60
0C60
0C60
0CC0
0780
0000
0000
ENDCHAR
STARTCHAR 03B5
ENCODING 949
SWIDTH 960 0
DWIDTH 16 0
BBX 15 16 0 -2
BITMAP
0000
0000
0000
0000
0000
03C0
0660
0610
0300
0380
0400
0C10
0E60
07C0
0000
0000
ENDCHAR
STARTCHAR 03B6
ENCODING 950
SWIDTH 960 0
DWIDTH 16 0
BBX 15 16 0 -2
BITMAP
0000
0300
0400
0460
03E0
0100
0600
0C00
0800
1800
1000
1E00
0F80
00C0
0440
0780
ENDCHAR
STARTCHAR 03B7
ENCODING 951
SWIDTH 960 0
DWIDTH 16 0
BBX 15 16 0 -2
BITMAP
0000
0000
0000
0000
0000
0EE0
1310
0310
0630
0420
0C60
1840
18C0
0180
0180
0000
ENDCHAR
STARTCHAR 03B8
ENCODING 952
SWIDTH 960 0
DWIDTH 16 0
BBX 15 16 0 -2
BITMAP
0000
01E0
0330
0610
0410
0C30
0FF0
0C20
1820
1860
1840
18C0
1980
0F00
0000
0000
ENDCHAR
STARTCHAR 03B9
ENCODING 953
SWIDTH 960 0
DWIDTH 16 0
BBX 15 16 0 -2
BITMAP
0000
0000
0000
0000
0000
0180
0180
0300
0300
0200
0600
0410
0660
03C0
0000
0000
ENDCHAR
STARTCHAR 03BA
ENCODING 954
SWIDTH 960 0
DWIDTH 16 0
BBX 15 16 0 -2
BITMAP
0000
0000
0000
0000
0000
0C60
0CF0
0C90
0F00
1900
1980
1990
3190
30E0
0000
0000
ENDCHAR
STARTCHAR 03BB
ENCODING 955
SWIDTH 960 0
DWIDTH 16 0
BBX 15 16 0 -2
BITMAP
0000
0300
0380
00C0
0040
0040
00C0
0140
0240
0640
0C60
0820
1838
1818
0000
0000
ENDCHAR
STARTCHAR 03BC
ENCODING 956
SWIDTH 960 0
DWIDTH 16 0
BBX 15 16 0 -2
BITMAP
0000
0000
0000
0000
0000
0630
0630
0630
0660
0C60
0C40
0CE0
1BB0
1800
3000
3000
ENDCHAR
STARTCHAR 03BD
ENCODING 957
SWIDTH 960 0
DWIDTH 16 0
BBX 15 16 0 -2
BITMAP
0000
0000
0000
0000
0000
0810
0C10
0C10
0420
0460
04C0
0580
0F00
0C00
0000
0000
ENDCHAR
STARTCHAR 03BE
ENCODING 958
SWIDTH 960 0
DWIDTH 16 0
BBX 15 16 0 -2
BITMAP
0000
01E0
0200
01F0
03F0
0600
0400
03E0
0FE0
0800
1000
1E00
0F80
01C0
0440
0780
ENDCHAR
STARTCHAR 03BF
ENCODING 959
SWIDTH 960 0
DWIDTH 16 0
BBX 15 16 0 -2
BITMAP
0000
0000
0000
0000
0000
01E0
0330
0630
0630
0C30
0C20
0C60
0CC0
0700
0000
0000
ENDCHAR
STARTCHAR 03C0
ENCODING 960
SWIDTH 960 0
DWIDTH 16 0
BBX 15 16 0 -2
BITMAP
0000
0000
0000
0000
0008
0FF8
1FF0
1260
06C0
04C0
0C80
0D90
19E0
18C0
0000
0000
ENDCHAR
STARTCHAR 03C1
ENCODING 961
SWIDTH 960 0
DWIDTH 16 0
BBX 15 16 0 -2
BITMAP
0000
0000
0000
0000
0000
01E0
0330
0210
0630
0430
0C60
0E60
0DC0
1800
1800
1800
ENDCHAR
STARTCHAR 03C3
ENCODING 963
SWIDTH 960 0
DWIDTH 16 0
BBX 15 16 0 -2
BITMAP
0000
0000
0000
0010
0008
01F8
07F0
0C40
0860
1860
18C0
18C0
1980
0F00
0000
0000
ENDCHAR
STARTCHAR 03C4
ENCODING 964
SWIDTH 960 0
DWIDTH 16 0
BBX 15 16 0 -2
BITMAP
0000
0000
0000
0000
0010
1FF0
3FE0
2300
0600
0600
0C00
0C20
0CC0
0780
0000
0000
ENDCHAR
STARTCHAR 03C5
ENCODING 965
SWIDTH 960 0
DWIDTH 16 0
BBX 15 16 0 -2
BITMAP
0000
0000
0000
0000
0000
0C40
0C60
0C60
0C20
1860
1840
18C0
1980
0E00
0000
0000
ENDCHAR
STARTCHAR 03C6
ENCODING 966
SWIDTH 960 0
DWIDTH 16 0
BBX 15 16 0 -2
BITMAP
0000
00C0
00C0
00C0
0080
03C0
0EA0
09B0
19B0
1930
1920
0FE0
0780
0200
0600
0600
ENDCHAR
STARTCHAR 03C7
ENCODING 967
SWIDTH 960 0
DWIDTH 16 0
BBX 15 16 0 -2
BITMAP
0000
0000
0000
0000
0000
0E30
1B30
1360
0340
0380
0380
0300
0700
0D90
19B0
18E0
ENDCHAR
STARTCHAR 03C8
ENCODING 968
SWIDTH 960 0
DWIDTH 16 0
BBX 15 16 0 -2
BITMAP
0000
0060
0060
0040
00C0
18D0
2CD8
0C88
1998
1998
1930
0F60
0780
0300
0600
0600
ENDCHAR
STARTCHAR 03C9
ENCODING 969
SWIDTH 960 0
DWIDTH 16 0
BBX 15 16 0 -2
BITMAP
0000
0000
0000
0000
0000
0620
0810
1810
1018
3198
3118
2318
37F0
1CE0
0000
0000
ENDCHAR
STARTCHAR 0401
ENCODING 1025
SWIDTH 960 0
DWIDTH 16 0
BBX 15 16 0 -2
BITMAP
0660
0660
0000
1FF8
0C08
0C28
0C20
0FE0
0C20
0C20
0C08
0C08
0C18
1FF8
0000
0000
ENDCHAR
STARTCHAR 0410
ENCODING 1040
SWIDTH 960 0
DWIDTH 16 0
BBX 15 16 0 -2
BITMAP
0000
0100
0100
0380
0280
04C0
04C0
04C0
0860
0FE0
0820
1030
1030
3878
0000
0000
ENDCHAR
STARTCHAR 0411
ENCODING 1041
SWIDTH 960 0
DWIDTH 16 0
BBX 15 16 0 -2
BITMAP
0000
1FF0
0C30
0C10
0C00
0C00
0C00
0FC0
0C60
0C30
0C30
0C30
0C60
1FC0
0000
0000
ENDCHAR
STARTCHAR 0412
ENCODING 1042
SWIDTH 960 0
DWIDTH 16 0
BBX 15 16 0 -2
BITMAP
0000
1FC0
0C60
0C30
0C30
0C30
0C60
0FC0
0C60
0C30
0C30
0C30
0C60
1FC0
0000
0000
ENDCHAR
STARTCHAR 0413
ENCODING 1043
SWIDTH 960 0
DWIDTH 16 0
BBX 15 16 0 -2
BITMAP
0000
1FF0
0C30
0C10
0C10
0C00
0C00
0C00
0C00
0C00
0C00
0C00
0C00
1F00
0000
0000
ENDCHAR
STARTCHAR 0414
ENCODING 1044
SWIDTH 960 0
DWIDTH 16 0
BBX 15 16 0 -2
BITMAP
0000
0FF0
0460
0460
0460
0460
0460
0460
0460
0460
0460
0860
0860
3FF8
2018
2008
ENDCHAR
STARTCHAR 0415
ENCODING 1045
SWIDTH 960 0
DWIDTH 16 0
BBX 15 16 0 -2
BITMAP
0000
1FF8
0C18
0C08
0C20
0C20
0FE0
0C20
0C20
0C00
0C08
0C08
0C18
1FF8
0000
0000
ENDCHAR
STARTCHAR 0416
ENCODING 1046
SWIDTH 960 0
DWIDTH 16 0
BBX 15 16 0 -2
BITMAP
0000
23C4
718E
318C
1188
1188
0990
07E0
0990
1998
1188
318C
2184
73DE
0000
0000
ENDCHAR
STARTCHAR 0417
ENCODING 1047
SWIDTH 960 0
DWIDTH 16 0
BBX 15 16 0 -2
BITMAP
0000
07C0
0C60
1830
0030
0030
0060
01C0
0060
0030
1030
1830
0C60
07C0
0000
0000
ENDCHAR
STARTCHAR 0418
ENCODING 1048
SWIDTH 960 0
DWIDTH 16 0
BBX 15 16 0 -2
BITMAP
0000
3C3C
1818
1838
1858
1898
1898
1918
1A18
1A18
1C18
1818
1818
3C3C
0000
0000
ENDCHAR
STARTCHAR 0419
ENCODING 1049
SWIDTH 960 0
DWIDTH 16 0
BBX 15 16 0 -2
BITMAP
0660
0660
03C0
3C3C
1818
1838
1858
1898
1918
1918
1A18
1C18
1818
3C3C
0000
0000
ENDCHAR
STARTCHAR 041A
ENCODING 1050
SWIDTH 960 0
DWIDTH 16 0
BBX 15 16 0 -2
BITMAP
0000
3C30
1848
1840
1880
1900
1F00
1980
1980
18C0
18C0
1860
1830
3C78
0000
0000
ENDCHAR
STARTCHAR 041B
ENCODING 1051
SWIDTH 960 0
DWIDTH 16 0
BBX 15 16 0 -2
BITMAP
0000
07F8
0230
0230
0230
0230
0230
0230
0230
0230
0430
2430
6830
3078
0000
0000
ENDCHAR
STARTCHAR 041C
ENCODING 1052
SWIDTH 960 0
DWIDTH 16 0
BBX 15 16 0 -2
BITMAP
0000
3838
1C30
1C50
1450
1650
1690
1690
2388
2308
2308
2108
2108
701C
0000
0000
ENDCHAR
STARTCHAR 041D
ENCODING 1053
SWIDTH 960 0
DWIDTH 16 0
BBX 15 16 0 -2
BITMAP
0000
3C3C
1818
1818
1818
1818
1FF8
1818
1818
1818
1818
1818
1818
3C3C
0000
0000
ENDCHAR
STARTCHAR 041E
ENCODING 1054
SWIDTH 960 0
DWIDTH 16 0
BBX 15 16 0 -2
BITMAP
0000
03C0
0C30
1818
1818
300C
300C
300C
300C
300C
1818
1818
0C30
03C0
0000
0000
ENDCHAR
STARTCHAR 041F
ENCODING 1055
SWIDTH 960 0
DWIDTH 16 0
BBX 15 16 0 -2
BITMAP
0000
3FFC
1818
1818
1818
1818
1818
1818
1818
1818
1818
1818
1818
3C3C
0000
0000
ENDCHAR
STARTCHAR 0420
ENCODING 1056
SWIDTH 960 0
DWIDTH 16 0
BBX 15 16 0 -2
BITMAP
0000
1FC0
0C60
0C30
0C30
0C30
0C30
0C60
0FC0
0C00
0C00
0C00
0C00
1F00
0000
0000
ENDCHAR
STARTCHAR 0421
ENCODING 1057
SWIDTH 960 0
DWIDTH 16 0
BBX 15 16 0 -2
BITMAP
0000
07D0
0C70
1830
1800
3000
3000
3000
3000
3000
1810
1830
0C70
07C0
0000
0000
ENDCHAR
STARTCHAR 0422
ENCODING 1058
SWIDTH 960 0
DWIDTH 16 0
BBX 15 16 0 -2
BITMAP
0000
3FFC
318C
2184
2184
0180
0180
0180
0180
0180
0180
0180
0180
07E0
0000
0000
ENDCHAR
STARTCHAR 0423
ENCODING 1059
SWIDTH 960 0
DWIDTH 16 0
BBX 15 16 0 -2
BITMAP
0000
3C38
1810
1810
0C20
0C20
0640
0640
0280
0380
0100
0900
1A00
0C00
0000
0000
ENDCHAR
STARTCHAR 0424
ENCODING 1060
SWIDTH 960 0
DWIDTH 16 0
BBX 15 16 0 -2
BITMAP
0000
03C0
0180
07E0
1998
1188
318C
318C
318C
1188
1998
07E0
0180
03C0
0000
0000
ENDCHAR
STARTCHAR 0425
ENCODING 1061
SWIDTH 960 0
DWIDTH 16 0
BBX 15 16 0 -2
BITMAP
0000
3C38
1810
0C20
0C40
0680
0300
0300
0380
04C0
04C0
0860
1030
3878
0000
0000
ENDCHAR
STARTCHAR 0426
ENCODING 1062
SWIDTH 960 0
DWIDTH 16 0
BBX 15 16 0 -2
BITMAP
0000
3C78
1830
1830
1830
1830
1830
1830
1830
1830
1830
1830
1830
3FFC
000C
0004
ENDCHAR
STARTCHAR 0427
ENCODING 1063
SWIDTH 960 0
DWIDTH 16 0
BBX 15 16 0 -2
BITMAP
0000
3C78
1830
1830
1830
1830
1830
1830
0C70
07B0
0030
0030
0030
00F8
0000
0000
ENDCHAR
STARTCHAR 0428
ENCODING 1064
SWIDTH 960 0
DWIDTH 16 0
BBX 15 16 0 -2
BITMAP
0000
E7BC
6318
6318
6318
6318
6318
6318
6318
6318
6318
6318
6318
FFFC
0000
0000
ENDCHAR
STARTCHAR 0429
ENCODING 1065
SWIDTH 960 0
DWIDTH 16 0
BBX 15 16 0 -2
BITMAP
0000
F7BC
6318
6318
6318
6318
6318
6318
6318
6318
6318
6318
6318
FFFE
0006
0002
ENDCHAR
STARTCHAR 042A
ENCODING 1066
SWIDTH 960 0
DWIDTH 16 0
BBX 15 16 0 -2
BITMAP
0000
7F00
6600
4600
4600
0600
07E0
0630
0618
0618
0618
0618
0630
0FE0
0000
0000
ENDCHAR
STARTCHAR 042B
ENCODING 1067
SWIDTH 960 0
DWIDTH 16 0
BBX 15 16 0 -2
BITMAP
0000
783C
3018
3018
3018
3018
3E18
3318
3198
3198
3198
3198
3318
7E3C
0000
0000
ENDCHAR
STARTCHAR 042C
ENCODING 1068
SWIDTH 960 0
DWIDTH 16 0
BBX 15 16 0 -2
BITMAP
0000
1E00
0C00
0C00
0C00
0C00
0FC0
0C60
0C30
0C30
0C30
0C30
0C60
1FC0
0000
0000
ENDCHAR
STARTCHAR 042D
ENCODING 1069
SWIDTH 960 0
DWIDTH 16 0
BBX 15 16 0 -2
BITMAP
0000
07C0
1C60
1830
0030
0018
0618
0B78
01D8
0018
1030
1830
1C60
07C0
0000
0000
ENDCHAR
STARTCHAR 042E
ENCODING 1070
SWIDTH 960 0
DWIDTH 16 0
BBX 15 16 0 -2
BITMAP
0000
78F0
3198
3108
330C
330C
3F0C
330C
330C
330C
330C
3108
3198
78F0
0000
0000
ENDCHAR
STARTCHAR 042F
ENCODING 1071
SWIDTH 960 0
DWIDTH 16 0
BBX 15 16 0 -2
BITMAP
0000
07F8
0C30
1830
1830
1830
0C30
07F0
0330
0330
0630
0630
0C30
3078
0000
0000
ENDCHAR
STARTCHAR 0430
ENCODING 1072
SWIDTH 960 0
DWIDTH 16 0
BBX 15 16 0 -2
BITMAP
0000
0000
0000
0000
0000
07C0
0C60
0060
03E0
0C60
1860
1860
18E8
0F30
0000
0000
ENDCHAR
STARTCHAR 0431
ENCODING 1073
SWIDTH 960 0
DWIDTH 16 0
BBX 15 16 0 -2
BITMAP
0020
03E0
0FC0
0800
1000
1300
14C0
1840
1860
1860
1860
0840
0CC0
0300
0000
0000
ENDCHAR
STARTCHAR 0432
ENCODING 1074
SWIDTH 960 0
DWIDTH 16 0
BBX 15 16 0 -2
BITMAP
0000
0000
0000
0000
0000
1FC0
0C60
0C60
0C60
0FC0
0C60
0C60
0C60
1FC0
0000
0000
ENDCHAR
STARTCHAR 0433
ENCODING 1075
SWIDTH 960 0
DWIDTH 16 0
BBX 15 16 0 -2
BITMAP
0000
0000
0000
0000
0000
1FE0
0C60
0C20
0C00
0C00
0C00
0C00
0C00
1E00
0000
0000
ENDCHAR
STARTCHAR 0434
ENCODING 1076
SWIDTH 960 0
DWIDTH 16 0
BBX 15 16 0 -2
BITMAP
0000
0000
0000
0000
0000
0FF0
0460
0460
0460
0460
0460
0860
0860
3FF0
2030
2010
ENDCHAR
STARTCHAR 0435
ENCODING 1077
SWIDTH 960 0
DWIDTH 16 0
BBX 15 16 0 -2
BITMAP
0000
0000
0000
0000
0000
0780
0CC0
1860
1860
1FE0
1800
1800
0C60
07C0
0000
0000
ENDCHAR
STARTCHAR 0436
ENCODING 1078
SWIDTH 960 0
DWIDTH 16 0
BBX 15 16 0 -2
BITMAP
0000
0000
0000
0000
0000
13C8
399C
0990
0990
07E0
0990
1998
11C8
3BDC
0000
0000
ENDCHAR
STARTCHAR 0437
ENCODING 1079
SWIDTH 960 0
DWIDTH 16 0
BBX 15 16 0 -2
BITMAP
0000
0000
0000
0000
0000
07C0
0C60
1860
0040
0380
0040
1860
0C60
07C0
0000
0000
ENDCHAR
STARTCHAR 0438
ENCODING 1080
SWIDTH 960 0
DWIDTH 16 0
BBX 15 16 0 -2
BITMAP
0000
0000
0000
0000
0000
1E78
0C30
0C70
0CB0
0D30
0E30
0C30
0C30
1E78
0000
0000
ENDCHAR
STARTCHAR 0439
ENCODING 1081
SWIDTH 960 0
DWIDTH 16 0
BBX 15 16 0 -2
BITMAP
0000
0660
0660
03C0
0000
1E78
0C30
0C70
0CB0
0D30
0E30
0C30
0C30
1E78
0000
0000
ENDCHAR
STARTCHAR 043A
ENCODING 1082
SWIDTH 960 0
DWIDTH 16 0
BBX 15 16 0 -2
BITMAP
0000
0000
0000
0000
0000
1E20
0C70
0C80
0D00
0F80
0CC0
0CC0
0C60
1E70
0000
0000
ENDCHAR
STARTCHAR 043B
ENCODING 1083
SWIDTH 960 0
DWIDTH 16 0
BBX 15 16 0 -2
BITMAP
0000
0000
0000
0000
0000
0FF0
0460
0460
0460
0460
0460
2460
6860
30F0
0000
0000
ENDCHAR
STARTCHAR 043C
ENCODING 1084
SWIDTH 960 0
DWIDTH 16 0
BBX 15 16 0 -2
BITMAP
0000
0000
0000
0000
0000
3818
1C30
1C30
1650
1650
1390
1390
1110
3838
0000
0000
ENDCHAR
STARTCHAR 043D
ENCODING 1085
SWIDTH 960 0
DWIDTH 16 0
BBX 15 16 0 -2
BITMAP
0000
0000
0000
0000
0000
1E78
0C30
0C30
0FF0
0C30
0C30
0C30
0C30
1E78
0000
0000
ENDCHAR
STARTCHAR 043E
ENCODING 1086
SWIDTH 960 0
DWIDTH 16 0
BBX 15 16 0 -2
BITMAP
0000
0000
0000
0000
0000
0380
0C60
0820
1830
1830
1830
0820
0C60
0380
0000
0000
ENDCHAR
STARTCHAR 043F
ENCODING 1087
SWIDTH 960 0
DWIDTH 16 0
BBX 15 16 0 -2
BITMAP
0000
0000
0000
0000
0000
1FF8
0C30
0C30
0C30
0C30
0C30
0C30
0C30
1E78
0000
0000
ENDCHAR
STARTCHAR 0440
ENCODING 1088
SWIDTH 960 0
DWIDTH 16 0
BBX 15 16 0 -2
BITMAP
0000
0000
0000
0000
0000
0DC0
1E60
0C30
0C30
0C30
0C30
0E60
0DC0
0C00
0C00
1E00
ENDCHAR
STARTCHAR 0441
ENCODING 1089
SWIDTH 960 0
DWIDTH 16 0
BBX 15 16 0 -2
BITMAP
0000
0000
0000
0000
0000
07C0
0C60
1820
1800
1800
1800
1820
0C60
07C0
0000
0000
ENDCHAR
STARTCHAR 0442
ENCODING 1090
SWIDTH 960 0
DWIDTH 16 0
BBX 15 16 0 -2
BITMAP
0000
0000
0000
0000
0000
1FF8
1998
1188
0180
0180
0180
0180
0180
03C0
0000
0000
ENDCHAR
STARTCHAR 0443
ENCODING 1091
SWIDTH 960 0
DWIDTH 16 0
BBX 15 16 0 -2
BITMAP
0000
0000
0000
0000
0000
1E70
0C20
0C20
0640
0640
0280
0380
0100
0900
1A00
0C00
ENDCHAR
STARTCHAR 0444
ENCODING 1092
SWIDTH 960 0
DWIDTH 16 0
BBX 15 16 0 -2
BITMAP
0000
0180
0380
0180
0180
0DB0
13C8
33CC
318C
318C
338C
13C8
0DB0
0180
0180
03C0
ENDCHAR
STARTCHAR 0445
ENCODING 1093
SWIDTH 960 0
DWIDTH 16 0
BBX 15 16 0 -2
BITMAP
0000
0000
0000
0000
0000
1E70
0C20
0640
0280
0180
0380
04C0
0860
1CF0
0000
0000
ENDCHAR
STARTCHAR 0446
ENCODING 1094
SWIDTH 960 0
DWIDTH 16 0
BBX 15 16 0 -2
BITMAP
0000
0000
0000
0000
0000
3CF0
1860
1860
1860
1860
1860
1860
1860
3FF8
0018
0008
ENDCHAR
STARTCHAR 0447
ENCODING 1095
SWIDTH 960 0
DWIDTH 16 0
BBX 15 16 0 -2
BITMAP
0000
0000
0000
0000
0000
3CF0
1860
1860
1860
18E0
0F60
0060
0060
00F0
0000
0000
ENDCHAR
STARTCHAR 0448
ENCODING 1096
SWIDTH 960 0
DWIDTH 16 0
BBX 15 16 0 -2
BITMAP
0000
0000
0000
0000
0000
3BBC
1998
1998
1998
1998
1998
1998
1998
3FFC
0000
0000
ENDCHAR
STARTCHAR 0449
ENCODING 1097
SWIDTH 960 0
DWIDTH 16 0
BBX 15 16 0 -2
BITMAP
0000
0000
0000
0000
0000
7778
3330
3330
3330
3330
3330
3330
3330
7FFC
000C
0004
ENDCHAR
STARTCHAR 044A
ENCODING 1098
SWIDTH 960 0
DWIDTH 16 0
BBX 15 16 0 -2
BITMAP
0000
0000
0000
0000
0000
3E00
3600
2600
07E0
0630
0630
0630
0630
0FE0
0000
0000
ENDCHAR
STARTCHAR 044B
ENCODING 1099
SWIDTH 960 0
DWIDTH 16 0
BBX 15 16 0 -2
BITMAP
0000
0000
0000
0000
0000
3C3C
1818
1818
1F18
1998
1998
1998
1998
3F3C
0000
0000
ENDCHAR
STARTCHAR 044C
ENCODING 1100
SWIDTH 960 0
DWIDTH 16 0
BBX 15 16 0 -2
BITMAP
0000
0000
0000
0000
0000
0F00
0600
0600
07C0
0660
0630
0630
0660
0FC0
0000
0000
ENDCHAR
STARTCHAR 044D
ENCODING 1101
SWIDTH 960 0
DWIDTH 16 0
BBX 15 16 0 -2
BITMAP
0000
0000
0000
0000
0000
0F80
18C0
0060
0760
0BE0
0060
0060
18C0
0F80
0000
0000
ENDCHAR
STARTCHAR 044E
ENCODING 1102
SWIDTH 960 0
DWIDTH 16 0
BBX 15 16 0 -2
BITMAP
0000
0000
0000
0000
0000
78E0
31B0
3318
3F18
3318
3318
3318
31B0
78E0
0000
0000
ENDCHAR
STARTCHAR 044F
ENCODING 1103
SWIDTH 960 0
DWIDTH 16 0
BBX 15 16 0 -2
BITMAP
0000
0000
0000
0000
0000
07F0
0C60
0C60
0C60
07E0
0660
0660
0C60
18F0
0000
0000
ENDCHAR
STARTCHAR 0451
ENCODING 1105
SWIDTH 960 0
DWIDTH 16 0
BBX 15 16 0 -2
BITMAP
0000
0000
0CC0
0CC0
0000
0780
0CC0
1860
1860
1FE0
1800
1800
0C60
07C0
0000
0000
ENDCHAR
STARTCHAR 2000
ENCODING 8192
SWIDTH 960 0
DWIDTH 16 0
BBX 15 16 0 -2
BITMAP
0000
0000
0000
0000
0000
0000
0000
0000
0000
0000
0000
0000
0000
0000
0000
0000
ENDCHAR
STARTCHAR 2001
ENCODING 8193
SWIDTH 960 0
DWIDTH 16 0
BBX 15 16 0 -2
BITMAP
0000
0000
0000
0000
0000
0000
0000
0000
0000
0000
0000
0000
0000
0000
0000
0000
ENDCHAR
STARTCHAR 2002
ENCODING 8194
SWIDTH 960 0
DWIDTH 16 0
BBX 15 16 0 -2
BITMAP
0000
0000
0000
0000
0000
0000
0000
0000
0000
0000
0000
0000
0000
0000
0000
0000
ENDCHAR
STARTCHAR 2003
ENCODING 8195
SWIDTH 960 0
DWIDTH 16 0
BBX 15 16 0 -2
BITMAP
0000
0000
0000
0000
0000
0000
0000
0000
0000
0000
0000
0000
0000
0000
0000
0000
ENDCHAR
STARTCHAR 2004
ENCODING 8196
SWIDTH 960 0
DWIDTH 16 0
BBX 15 16 0 -2
BITMAP
0000
0000
0000
0000
0000
0000
0000
0000
0000
0000
0000
0000
0000
0000
0000
0000
ENDCHAR
STARTCHAR 2005
ENCODING 8197
SWIDTH 960 0
DWIDTH 16 0
BBX 15 16 0 -2
BITMAP
0000
0000
0000
0000
0000
0000
0000
0000
0000
0000
0000
0000
0000
0000
0000
0000
ENDCHAR
STARTCHAR 2006
ENCODING 8198
SWIDTH 960 0
DWIDTH 16 0
BBX 15 16 0 -2
BITMAP
0000
0000
0000
0000
0000
0000
0000
0000
0000
0000
0000
0000
0000
0000
0000
0000
ENDCHAR
STARTCHAR 2007
ENCODING 8199
SWIDTH 960 0
DWIDTH 16 0
BBX 15 16 0 -2
BITMAP
0000
0000
0000
0000
0000
0000
0000
0000
0000
0000
0000
0000
0000
0000
0000
0000
ENDCHAR
STARTCHAR 2008
ENCODING 8200
SWIDTH 960 0
DWIDTH 16 0
BBX 15 16 0 -2
BITMAP
0000
0000
0000
0000
0000
0000
0000
0000
0000
0000
0000
0000
0000
0000
0000
0000
ENDCHAR
STARTCHAR 2009
ENCODING 8201
SWIDTH 960 0
DWIDTH 16 0
BBX 15 16 0 -2
BITMAP
0000
0000
0000
0000
0000
0000
0000
0000
0000
0000
0000
0000
0000
0000
0000
0000
ENDCHAR
STARTCHAR 200A
ENCODING 8202
SWIDTH 960 0
DWIDTH 16 0
BBX 15 16 0 -2
BITMAP
0000
0000
0000
0000
0000
0000
0000
0000
0000
0000
0000
0000
0000
0000
0000
0000
ENDCHAR
STARTCHAR 200B
ENCODING 8203
SWIDTH 480 0
DWIDTH 8 0
BBX 1 1 0 0
BITMAP
00
ENDCHAR
STARTCHAR 200C
ENCODING 8204
SWIDTH 480 0
DWIDTH 8 0
BBX 1 1 0 0
BITMAP
00
ENDCHAR
STARTCHAR 200D
ENCODING 8205
SWIDTH 480 0
DWIDTH 8 0
BBX 1 1 0 0
BITMAP
00
ENDCHAR
STARTCHAR 200E
ENCODING 8206
SWIDTH 480 0
DWIDTH 8 0
BBX 1 1 0 0
BITMAP
00
ENDCHAR
STARTCHAR 200F
ENCODING 8207
SWIDTH 480 0
DWIDTH 8 0
BBX 1 1 0 0
BITMAP
00
ENDCHAR
STARTCHAR 2010
ENCODING 8208
SWIDTH 960 0
DWIDTH 16 0
BBX 5 1 5 6
BITMAP
F8
ENDCHAR
STARTCHAR 2015
ENCODING 8213
SWIDTH 960 0
DWIDTH 16 0
BBX 15 1 0 6
BITMAP
FFFE
ENDCHAR
STARTCHAR 2016
ENCODING 8214
SWIDTH 960 0
DWIDTH 16 0
BBX 5 16 5 -2
BITMAP
88
88
88
88
88
88
88
88
88
88
88
88
88
88
88
88
ENDCHAR
STARTCHAR 2018
ENCODING 8216
SWIDTH 960 0
DWIDTH 16 0
BBX 3 5 12 9
BITMAP
20
40
C0
E0
40
ENDCHAR
STARTCHAR 2019
ENCODING 8217
SWIDTH 960 0
DWIDTH 16 0
BBX 3 5 0 9
BITMAP
40
E0
60
40
80
ENDCHAR
STARTCHAR 201C
ENCODING 8220
SWIDTH 960 0
DWIDTH 16 0
BBX 7 5 8 9
BITMAP
22
44
CC
EE
44
ENDCHAR
STARTCHAR 201D
ENCODING 8221
SWIDTH 960 0
DWIDTH 16 0
BBX 7 5 0 9
BITMAP
44
EE
66
44
88
ENDCHAR
STARTCHAR 2020
ENCODING 8224
SWIDTH 960 0
DWIDTH 16 0
BBX 9 16 3 -2
BITMAP
0800
1C00
1C00
0800
6B00
FF80
6B00
0800
1C00
3E00
1C00
1C00
0800
0800
0800
0800
ENDCHAR
STARTCHAR 2021
ENCODING 8225
SWIDTH 960 0
DWIDTH 16 0
BBX 9 16 3 -2
BITMAP
0800
1C00
6B00
FF80
6B00
1C00
1C00
0800
0800
1C00
1C00
6B00
FF80
6B00
1C00
0800
ENDCHAR
STARTCHAR 2025
ENCODING 8229
SWIDTH 960 0
DWIDTH 16 0
BBX 13 3 1 5
BITMAP
4010
E038
4010
ENDCHAR
STARTCHAR 2026
ENCODING 8230
SWIDTH 960 0
DWIDTH 16 0
BBX 15 3 0 5
BITMAP
4104
E38E
4104
ENDCHAR
STARTCHAR 2030
ENCODING 8240
SWIDTH 960 0
DWIDTH 16 0
BBX 15 15 0 -1
BITMAP
7080
5080
D900
D900
DA00
5400
7400
0800
171C
1514
2DB6
4DB6
4DB6
8514
071C
ENDCHAR
STARTCHAR 2032
ENCODING 8242
SWIDTH 960 0
DWIDTH 16 0
BBX 4 5 0 9
BITMAP
20
30
60
40
80
ENDCHAR
STARTCHAR 2033
ENCODING 8243
SWIDTH 960 0
DWIDTH 16 0
BBX 7 5 0 9
BITMAP
24
36
6C
48
90
ENDCHAR
STARTCHAR 203B
ENCODING 8251
SWIDTH 960 0
DWIDTH 16 0
BBX 13 13 1 0
BITMAP
8708
4710
2720
1040
0880
E538
E238
E538
0880
1040
2720
4710
8708
ENDCHAR
STARTCHAR 203E
ENCODING 8254
SWIDTH 480 0
DWIDTH 8 0
BBX 7 1 0 12
BITMAP
FE
ENDCHAR
STARTCHAR 2103
ENCODING 8451
SWIDTH 960 0
DWIDTH 16 0
BBX 16 16 0 -2
BITMAP
0000
3000
48E4
4B1C
3604
0604
0C00
0C00
0C00
0C00
0604
0604
0308
00F0
0000
0000
ENDCHAR
STARTCHAR 2116
ENCODING 8470
SWIDTH 960 0
DWIDTH 16 0
BBX 16 16 0 -2
BITMAP
0000
0000
C700
4200
6200
5200
5238
5244
4A44
4A44
4A44
4644
4244
E33A
0002
0000
ENDCHAR
STARTCHAR 2121
ENCODING 8481
SWIDTH 960 0
DWIDTH 16 0
BBX 16 16 0 -2
BITMAP
0000
0000
FE00
9200
9200
1000
1000
13D8
1250
1290
1390
1290
1252
3BDE
0000
0000
ENDCHAR
STARTCHAR 212B
ENCODING 8491
SWIDTH 960 0
DWIDTH 16 0
BBX 16 16 0 -2
BITMAP
0380
0440
0440
0380
0100
0380
0280
04C0
04C0
0860
0FE0
1030
1030
787C
0000
0000
ENDCHAR
STARTCHAR 2160
ENCODING 8544
SWIDTH 960 0
DWIDTH 16 0
BBX 16 16 0 -2
BITMAP
0000
0FC0
0300
0300
0300
0300
0300
0300
0300
0300
0300
0300
0300
0FC0
0000
0000
ENDCHAR
STARTCHAR 2161
ENCODING 8545
SWIDTH 960 0
DWIDTH 16 0
BBX 16 16 0 -2
BITMAP
0000
1FF8
0660
0660
0660
0660
0660
0660
0660
0660
0660
0660
0660
1FF8
0000
0000
ENDCHAR
STARTCHAR 2162
ENCODING 8546
SWIDTH 960 0
DWIDTH 16 0
BBX 16 16 0 -2
BITMAP
0000
7FFE
1998
1998
1998
1998
1998
1998
1998
1998
1998
1998
1998
7FFE
0000
0000
ENDCHAR
STARTCHAR 2163
ENCODING 8547
SWIDTH 960 0
DWIDTH 16 0
BBX 16 16 0 -2
BITMAP
0000
7F9E
1B04
1B04
1B04
1988
1988
1988
18D0
18D0
18D0
1860
1860
7E60
0000
0000
ENDCHAR
STARTCHAR 2164
ENCODING 8548
SWIDTH 960 0
DWIDTH 16 0
BBX 16 16 0 -2
BITMAP
0000
3E7C
0C10
0C10
0C10
0620
0620
0620
0340
0340
0340
0180
0180
0180
0000
0000
ENDCHAR
STARTCHAR 2165
ENCODING 8549
SWIDTH 960 0
DWIDTH 16 0
BBX 16 16 0 -2
BITMAP
0000
79FE
3058
3058
3058
1898
1898
1898
0D18
0D18
0D18
0618
0618
067E
0000
0000
ENDCHAR
STARTCHAR 2166
ENCODING 8550
SWIDTH 960 0
DWIDTH 16 0
BBX 16 16 0 -2
BITMAP
0000
F7FE
62CC
62CC
62CC
34CC
34CC
34CC
34CC
34CC
18CC
18CC
18CC
19FE
0000
0000
ENDCHAR
STARTCHAR 2167
ENCODING 8551
SWIDTH 960 0
DWIDTH 16 0
BBX 16 16 0 -2
BITMAP
0000
EFFE
C76C
C76C
C76C
6B6C
6B6C
6B6C
6B6C
6B6C
336C
336C
336C
37FE
0000
0000
ENDCHAR
STARTCHAR 2168
ENCODING 8552
SWIDTH 960 0
DWIDTH 16 0
BBX 16 16 0 -2
BITMAP
0000
7F9E
1B04
1988
1988
18D0
18E0
1860
1870
18B0
1918
1918
1A0C
7F9E
0000
0000
ENDCHAR
STARTCHAR 2169
ENCODING 8553
SWIDTH 960 0
DWIDTH 16 0
BBX 16 16 0 -2
BITMAP
0000
3E7C
0C10
0620
0620
0340
0380
0180
01C0
02C0
0460
0460
0830
3E7C
0000
0000
ENDCHAR
STARTCHAR 2190
ENCODING 8592
SWIDTH 960 0
DWIDTH 16 0
BBX 16 16 0 -2
BITMAP
0000
0000
0000
0000
1000
2000
4000
FFFE
4000
2000
1000
0000
0000
0000
0000
0000
ENDCHAR
STARTCHAR 2191
ENCODING 8593
SWIDTH 960 0
DWIDTH 16 0
BBX 16 16 0 -2
BITMAP
0100
0380
0540
0920
0100
0100
0100
0100
0100
0100
0100
0100
0100
0100
0100
0100
ENDCHAR
STARTCHAR 2192
ENCODING 8594
SWIDTH 960 0
DWIDTH 16 0
BBX 16 16 0 -2
BITMAP
0000
0000
0000
0000
0010
0008
0004
FFFE
0004
0008
0010
0000
0000
0000
0000
0000
ENDCHAR
STARTCHAR 2193
ENCODING 8595
SWIDTH 960 0
DWIDTH 16 0
BBX 16 16 0 -2
BITMAP
0100
0100
0100
0100
0100
0100
0100
0100
0100
0100
0100
0100
0920
0540
0380
0100
ENDCHAR
STARTCHAR 21D2
ENCODING 8658
SWIDTH 960 0
DWIDTH 16 0
BBX 16 16 0 -2
BITMAP
0000
0000
0000
0040
0020
7FF0
0008
0004
0008
7FF0
0020
0040
0000
0000
0000
0000
ENDCHAR
STARTCHAR 21D4
ENCODING 8660
SWIDTH 960 0
DWIDTH 16 0
BBX 16 16 0 -2
BITMAP
0000
0000
0000
0840
1020
3FF0
4008
8004
4008
3FF0
1020
0840
0000
0000
0000
0000
ENDCHAR
STARTCHAR 2200
ENCODING 8704
SWIDTH 960 0
DWIDTH 16 0
BBX 16 16 0 -2
BITMAP
0000
2008
2008
1010
1010
1FF0
0820
0820
0440
0440
0440
0280
0280
0100
0100
0000
ENDCHAR
STARTCHAR 2202
ENCODING 8706
SWIDTH 960 0
DWIDTH 16 0
BBX 16 16 0 -2
BITMAP
0000
0180
03C0
0460
0020
0020
0060
0760
08C0
18C0
30C0
3180
3180
1300
0E00
0000
ENDCHAR
STARTCHAR 2203
ENCODING 8707
SWIDTH 960 0
DWIDTH 16 0
BBX 16 16 0 -2
BITMAP
0000
0000
3FF8
0008
0008
0008
0008
3FF8
0008
0008
0008
0008
3FF8
0000
0000
0000
ENDCHAR
STARTCHAR 2207
ENCODING 8711
SWIDTH 960 0
DWIDTH 16 0
BBX 16 16 0 -2
BITMAP
0000
0000
0000
3FF8
1FF0
1810
0820
0C20
0440
0640
0280
0380
0100
0100
0000
0000
ENDCHAR
STARTCHAR 2208
ENCODING 8712
SWIDTH 960 0
DWIDTH 16 0
BBX 16 16 0 -2
BITMAP
0000
0000
0000
0FF8
1000
2000
2000
3FF8
2000
2000
1000
0FF8
0000
0000
0000
0000
ENDCHAR
STARTCHAR 220B
ENCODING 8715
SWIDTH 960 0
DWIDTH 16 0
BBX 16 16 0 -2
BITMAP
0000
0000
0000
3FE0
0010
0008
0008
3FF8
0008
0008
0010
3FE0
0000
0000
0000
0000
ENDCHAR
STARTCHAR 2211
ENCODING 8721
SWIDTH 960 0
DWIDTH 16 0
BBX 16 16 0 -2
BITMAP
0000
0000
3FF0
1810
0C08
0600
0300
0180
0300
0600
0C00
1808
3010
3FF0
0000
0000
ENDCHAR
STARTCHAR 2212
ENCODING 8722
SWIDTH 960 0
DWIDTH 16 0
BBX 16 16 0 -2
BITMAP
0000
0000
0000
0000
0000
0000
0000
3FF8
0000
0000
0000
0000
0000
0000
0000
0000
ENDCHAR
STARTCHAR 221A
ENCODING 8730
SWIDTH 960 0
DWIDTH 16 0
BBX 16 16 0 -2
BITMAP
00F8
0080
0080
0100
0100
0100
0100
4200
4200
6200
A400
1400
1400
0800
0800
0000
ENDCHAR
STARTCHAR 221D
ENCODING 8733
SWIDTH 960 0
DWIDTH 16 0
BBX 16 16 0 -2
BITMAP
0000
0000
0000
0000
1C70
2288
4280
4100
4280
2288
1C70
0000
0000
0000
0000
0000
ENDCHAR
STARTCHAR 221E
ENCODING 8734
SWIDTH 960 0
DWIDTH 16 0
BBX 16 16 0 -2
BITMAP
0000
0000
0000
0000
1C70
2288
4104
4104
4104
2288
1C70
0000
0000
0000
0000
0000
ENDCHAR
STARTCHAR 221F
ENCODING 8735
SWIDTH 960 0
DWIDTH 16 0
BBX 16 16 0 -2
BITMAP
0000
2000
2000
2000
2000
2000
2000
2000
2000
2000
2000
2000
3FFC
0000
0000
0000
ENDCHAR
STARTCHAR 2220
ENCODING 8736
SWIDTH 960 0
DWIDTH 16 0
BBX 16 16 0 -2
BITMAP
0000
0000
0008
0010
0020
0040
0080
0100
0200
0400
0800
1000
3FFC
0000
0000
0000
ENDCHAR
STARTCHAR 2227
ENCODING 8743
SWIDTH 960 0
DWIDTH 16 0
BBX 16 16 0 -2
BITMAP
0000
0000
0100
0100
0280
0280
0440
0440
0820
0820
1010
1010
2008
2008
4004
4004
ENDCHAR
STARTCHAR 2228
ENCODING 8744
SWIDTH 960 0
DWIDTH 16 0
BBX 16 16 0 -2
BITMAP
4004
4004
2008
2008
1010
1010
0820
0820
0440
0440
0280
0280
0100
0100
0000
0000
ENDCHAR
STARTCHAR 2229
ENCODING 8745
SWIDTH 960 0
DWIDTH 16 0
BBX 16 16 0 -2
BITMAP
0000
0380
0440
0820
1010
1010
1010
1010
1010
1010
1010
1010
1010
1010
1010
0000
ENDCHAR
STARTCHAR 222A
ENCODING 8746
SWIDTH 960 0
DWIDTH 16 0
BBX 16 16 0 -2
BITMAP
0000
1010
1010
1010
1010
1010
1010
1010
1010
1010
1010
1010
0820
0440
0380
0000
ENDCHAR
STARTCHAR 222B
ENCODING 8747
SWIDTH 960 0
DWIDTH 16 0
BBX 16 16 0 -2
BITMAP
0180
0240
02C0
0200
0200
0100
0100
0100
0080
0080
0080
0040
0040
0340
0240
0180
ENDCHAR
STARTCHAR 222C
ENCODING 8748
SWIDTH 960 0
DWIDTH 16 0
BBX 16 16 0 -2
BITMAP
0C60
16B0
16B0
1080
18C0
18C0
0840
0C60
0C60
0420
0630
0630
0210
1AD0
1AD0
0C60
ENDCHAR
STARTCHAR 222E
ENCODING 8750
SWIDTH 960 0
DWIDTH 16 0
BBX 16 16 0 -2
BITMAP
0180
0240
02C0
0200
0200
03C0
0520
0520
04A0
03C0
0080
0040
0040
0340
0240
0180
ENDCHAR
STARTCHAR 2234
ENCODING 8756
SWIDTH 960 0
DWIDTH 16 0
BBX 16 16 0 -2
BITMAP
0000
0000
0000
0100
0380
0100
0000
0000
0000
0000
1010
3838
1010
0000
0000
0000
ENDCHAR
STARTCHAR 2235
ENCODING 8757
SWIDTH 960 0
DWIDTH 16 0
BBX 16 16 0 -2
BITMAP
0000
0000
0000
1010
3838
1010
0000
0000
0000
0000
0100
0380
0100
0000
0000
0000
ENDCHAR
STARTCHAR 223D
ENCODING 8765
SWIDTH 960 0
DWIDTH 16 0
BBX 16 16 0 -2
BITMAP
0000
0000
0000
0000
1C70
2288
4084
4104
4204
2288
1C70
0000
0000
0000
0000
0000
ENDCHAR
STARTCHAR 2252
ENCODING 8786
SWIDTH 960 0
DWIDTH 16 0
BBX 16 16 0 -2
BITMAP
0000
0800
1C00
0800
0000
0000
3FF8
0000
0000
3FF8
0000
0000
0020
0070
0020
0000
ENDCHAR
STARTCHAR 2260
ENCODING 8800
SWIDTH 960 0
DWIDTH 16 0
BBX 16 16 0 -2
BITMAP
0000
0000
0040
0040
0080
0080
3FF8
0100
0100
3FF8
0200
0200
0400
0400
0000
0000
ENDCHAR
STARTCHAR 2261
ENCODING 8801
SWIDTH 960 0
DWIDTH 16 0
BBX 16 16 0 -2
BITMAP
0000
0000
0000
0000
3FF8
0000
0000
3FF8
0000
0000
3FF8
0000
0000
0000
0000
0000
ENDCHAR
STARTCHAR 2266
ENCODING 8806
SWIDTH 960 0
DWIDTH 16 0
BBX 16 16 0 -2
BITMAP
0000
0018
00E0
0300
0C00
3000
0C00
0300
00E0
0018
0000
3FF8
0000
3FF8
0000
0000
ENDCHAR
STARTCHAR 2267
ENCODING 8807
SWIDTH 960 0
DWIDTH 16 0
BBX 16 16 0 -2
BITMAP
0000
3000
0E00
0180
0060
0018
0060
0180
0E00
3000
0000
3FF8
0000
3FF8
0000
0000
ENDCHAR
STARTCHAR 226A
ENCODING 8810
SWIDTH 960 0
DWIDTH 16 0
BBX 16 16 0 -2
BITMAP
0030
0046
0088
0330
0440
0880
3300
4400
3300
0880
0440
0330
0088
0046
0030
0000
ENDCHAR
STARTCHAR 226B
ENCODING 8811
SWIDTH 960 0
DWIDTH 16 0
BBX 16 16 0 -2
BITMAP
0C00
6200
1100
0CC0
0220
0110
00CC
0022
00CC
0110
0220
0CC0
1100
6200
0C00
0000
ENDCHAR
STARTCHAR 2282
ENCODING 8834
SWIDTH 960 0
DWIDTH 16 0
BBX 16 16 0 -2
BITMAP
0000
0000
0000
0FF8
1000
2000
2000
2000
2000
2000
1000
0FF8
0000
0000
0000
0000
ENDCHAR
STARTCHAR 2283
ENCODING 8835
SWIDTH 960 0
DWIDTH 16 0
BBX 16 16 0 -2
BITMAP
0000
0000
0000
3FE0
0010
0008
0008
0008
0008
0008
0010
3FE0
0000
0000
0000
0000
ENDCHAR
STARTCHAR 2286
ENCODING 8838
SWIDTH 960 0
DWIDTH 16 0
BBX 16 16 0 -2
BITMAP
0000
0000
0FF8
1000
2000
2000
2000
2000
1000
0FF8
0000
0000
3FF8
0000
0000
0000
ENDCHAR
STARTCHAR 2287
ENCODING 8839
SWIDTH 960 0
DWIDTH 16 0
BBX 16 16 0 -2
BITMAP
0000
0000
3FE0
0010
0008
0008
0008
0008
0010
3FE0
0000
0000
3FF8
0000
0000
0000
ENDCHAR
STARTCHAR 22A5
ENCODING 8869
SWIDTH 960 0
DWIDTH 16 0
BBX 16 16 0 -2
BITMAP
0000
0100
0100
0100
0100
0100
0100
0100
0100
0100
0100
0100
7FFC
0000
0000
0000
ENDCHAR
STARTCHAR 22BF
ENCODING 8895
SWIDTH 960 0
DWIDTH 16 0
BBX 16 16 0 -2
BITMAP
0000
0000
0008
0018
0028
0048
0088
0108
0208
0408
0808
1008
3FF8
0000
0000
0000
ENDCHAR
STARTCHAR 2312
ENCODING 8978
SWIDTH 960 0
DWIDTH 16 0
BBX 16 16 0 -2
BITMAP
0000
0000
07C0
1FF0
3018
4004
0000
0000
0000
0000
0000
0000
0000
0000
0000
0000
ENDCHAR
STARTCHAR 2460
ENCODING 9312
SWIDTH 960 0
DWIDTH 16 0
BBX 16 16 0 -2
BITMAP
07C0
1830
2108
4104
4704
8102
8102
8102
8102
8102
8102
4104
47C4
2008
1830
07C0
ENDCHAR
STARTCHAR 2461
ENCODING 9313
SWIDTH 960 0
DWIDTH 16 0
BBX 16 16 0 -2
BITMAP
07C0
1830
2008
4784
4844
8842
8042
8082
8102
8202
8442
4844
4FC4
2008
1830
07C0
ENDCHAR
STARTCHAR 2462
ENCODING 9314
SWIDTH 960 0
DWIDTH 16 0
BBX 16 16 0 -2
BITMAP
07C0
1830
2008
4784
4844
8842
8042
8382
8042
8042
8842
4844
4784
2008
1830
07C0
ENDCHAR
STARTCHAR 2463
ENCODING 9315
SWIDTH 960 0
DWIDTH 16 0
BBX 16 16 0 -2
BITMAP
07C0
1830
2008
4084
4184
8282
8282
8482
8882
9FE2
8082
4084
43C4
2008
1830
07C0
ENDCHAR
STARTCHAR 2464
ENCODING 9316
SWIDTH 960 0
DWIDTH 16 0
BBX 16 16 0 -2
BITMAP
07C0
1830
2008
4FC4
4804
8802
8802
8F82
8842
8042
8842
4844
4784
2008
1830
07C0
ENDCHAR
STARTCHAR 2465
ENCODING 9317
SWIDTH 960 0
DWIDTH 16 0
BBX 16 16 0 -2
BITMAP
07C0
1830
2008
4784
4844
8842
8802
8F82
8842
8842
8842
4844
4784
2008
1830
07C0
ENDCHAR
STARTCHAR 2466
ENCODING 9318
SWIDTH 960 0
DWIDTH 16 0
BBX 16 16 0 -2
BITMAP
07C0
1830
2008
4FC4
4844
8842
8082
8082
8102
8102
8202
4204
4204
2008
1830
07C0
ENDCHAR
STARTCHAR 2467
ENCODING 9319
SWIDTH 960 0
DWIDTH 16 0
BBX 16 16 0 -2
BITMAP
07C0
1830
2008
4784
4844
8842
8842
8782
8842
8842
8842
4844
4784
2008
1830
07C0
ENDCHAR
STARTCHAR 2468
ENCODING 9320
SWIDTH 960 0
DWIDTH 16 0
BBX 16 16 0 -2
BITMAP
07C0
1830
2008
4784
4844
8842
8842
8842
87C2
8042
8842
4844
4784
2008
1830
07C0
ENDCHAR
STARTCHAR 2469
ENCODING 9321
SWIDTH 960 0
DWIDTH 16 0
BBX 16 16 0 -2
BITMAP
07C0
1830
2008
48E4
5914
8912
8912
8912
8912
8912
8912
4914
5CE4
2008
1830
07C0
ENDCHAR
STARTCHAR 246A
ENCODING 9322
SWIDTH 960 0
DWIDTH 16 0
BBX 16 16 0 -2
BITMAP
07C0
1830
2008
4444
4CC4
8442
8442
8442
8442
8442
8442
4444
4EE4
2008
1830
07C0
ENDCHAR
STARTCHAR 246B
ENCODING 9323
SWIDTH 960 0
DWIDTH 16 0
BBX 16 16 0 -2
BITMAP
07C0
1830
2008
48E4
5914
8912
8812
8822
8842
8882
8902
4914
5DF4
2008
1830
07C0
ENDCHAR
STARTCHAR 246C
ENCODING 9324
SWIDTH 960 0
DWIDTH 16 0
BBX 16 16 0 -2
BITMAP
07C0
1830
2008
48E4
5914
8912
8812
8862
8812
8812
8912
4914
5CE4
2008
1830
07C0
ENDCHAR
STARTCHAR 246D
ENCODING 9325
SWIDTH 960 0
DWIDTH 16 0
BBX 16 16 0 -2
BITMAP
07C0
1830
2008
4824
5864
88A2
88A2
8922
8A22
8BF2
8822
4824
5CF4
2008
1830
07C0
ENDCHAR
STARTCHAR 246E
ENCODING 9326
SWIDTH 960 0
DWIDTH 16 0
BBX 16 16 0 -2
BITMAP
07C0
1830
2008
49E4
5904
8902
8902
89E2
8912
8812
8912
4914
5CE4
2008
1830
07C0
ENDCHAR
STARTCHAR 246F
ENCODING 9327
SWIDTH 960 0
DWIDTH 16 0
BBX 16 16 0 -2
BITMAP
07C0
1830
2008
48E4
5914
8912
8902
89E2
8912
8912
8912
4914
5CE4
2008
1830
07C0
ENDCHAR
STARTCHAR 2470
ENCODING 9328
SWIDTH 960 0
DWIDTH 16 0
BBX 16 16 0 -2
BITMAP
07C0
1830
2008
49F4
5914
8912
8822
8822
8842
8842
8882
4884
5C84
2008
1830
07C0
ENDCHAR
STARTCHAR 2471
ENCODING 9329
SWIDTH 960 0
DWIDTH 16 0
BBX 16 16 0 -2
BITMAP
07C0
1830
2008
48E4
5914
8912
8912
88E2
8912
8912
8912
4914
5CE4
2008
1830
07C0
ENDCHAR
STARTCHAR 2472
ENCODING 9330
SWIDTH 960 0
DWIDTH 16 0
BBX 16 16 0 -2
BITMAP
07C0
1830
2008
48E4
5914
8912
8912
8912
88F2
8812
8912
4914
5CE4
2008
1830
07C0
ENDCHAR
STARTCHAR 2473
ENCODING 9331
SWIDTH 960 0
DWIDTH 16 0
BBX 16 16 0 -2
BITMAP
07C0
1830
2008
4C64
5294
9292
8292
8292
8492
8892
9092
5294
5E64
2008
1830
07C0
ENDCHAR
STARTCHAR 2581
ENCODING 9601
SWIDTH 960 0
DWIDTH 16 0
BBX 16 16 0 -2
BITMAP
8000
8000
4000
4000
2000
2000
1000
1000
0800
0800
0400
0400
0200
0200
0100
0100
ENDCHAR
STARTCHAR 2582
ENCODING 9602
SWIDTH 960 0
DWIDTH 16 0
BBX 16 16 0 -2
BITMAP
0000
7200
8C00
0000
0000
0000
0000
0000
0000
0000
0000
0000
0000
0000
0000
0000
ENDCHAR
STARTCHAR 2583
ENCODING 9603
SWIDTH 960 0
DWIDTH 16 0
BBX 16 16 0 -2
BITMAP
0000
0000
1000
1000
1000
1000
0000
0000
0000
1000
1000
1000
1000
0000
0000
0000
ENDCHAR
STARTCHAR 2587
ENCODING 9607
SWIDTH 960 0
DWIDTH 16 0
BBX 16 16 0 -2
BITMAP
2000
3000
5C00
7800
3000
2000
7000
6A00
DE00
9C00
3800
5800
4000
7C00
3C00
0000
ENDCHAR
STARTCHAR 2588
ENCODING 9608
SWIDTH 960 0
DWIDTH 16 0
BBX 16 16 0 -2
BITMAP
0000
0000
0000
0000
0000
0000
3000
5400
7C00
1000
3400
7C00
6E00
9200
E200
4C00
ENDCHAR
STARTCHAR 2589
ENCODING 9609
SWIDTH 960 0
DWIDTH 16 0
BBX 16 16 0 -2
BITMAP
0000
0000
0000
0000
0000
0000
3000
1800
1E00
1800
1000
1000
7800
D800
9E00
7200
ENDCHAR
STARTCHAR 258A
ENCODING 9610
SWIDTH 960 0
DWIDTH 16 0
BBX 16 16 0 -2
BITMAP
0000
0000
0000
0000
0000
0000
1000
9800
DC00
AE00
CA00
BA00
DC00
1000
3000
2000
ENDCHAR
STARTCHAR 258B
ENCODING 9611
SWIDTH 960 0
DWIDTH 16 0
BBX 16 16 0 -2
BITMAP
0000
0000
0000
0000
0000
0000
0C00
4800
5C00
7200
EE00
A400
3000
3000
1000
1000
ENDCHAR
STARTCHAR 258C
ENCODING 9612
SWIDTH 960 0
DWIDTH 16 0
BBX 16 16 0 -2
BITMAP
0000
0000
0000
0000
0000
0000
6400
2600
F200
6000
2000
3C00
6600
A600
6C00
0000
ENDCHAR
STARTCHAR 258D
ENCODING 9613
SWIDTH 960 0
DWIDTH 16 0
BBX 16 16 0 -2
BITMAP
0000
0000
0000
0000
0000
3000
1800
0000
7C00
2C00
1800
1000
3800
6800
CE00
8E00
ENDCHAR
STARTCHAR 258E
ENCODING 9614
SWIDTH 960 0
DWIDTH 16 0
BBX 16 16 0 -2
BITMAP
0000
0000
0000
0000
0000
2000
3800
0000
B800
EC00
0C00
0400
0C00
0800
0800
1000
ENDCHAR
STARTCHAR 258F
ENCODING 9615
SWIDTH 960 0
DWIDTH 16 0
BBX 16 16 0 -2
BITMAP
0000
0000
0000
0000
0000
0000
0000
8000
8C00
8600
8200
C200
5000
6000
2000
0000
ENDCHAR
STARTCHAR 25A0
ENCODING 9632
SWIDTH 960 0
DWIDTH 16 0
BBX 16 16 0 -2
BITMAP
FFFE
FFFE
FFFE
FFFE
FFFE
FFFE
FFFE
FFFE
FFFE
FFFE
FFFE
FFFE
FFFE
FFFE
FFFE
FFFE
ENDCHAR
STARTCHAR 25A1
ENCODING 9633
SWIDTH 960 0
DWIDTH 16 0
BBX 16 16 0 -2
BITMAP
FFFE
8002
8002
8002
8002
8002
8002
8002
8002
8002
8002
8002
8002
8002
8002
FFFE
ENDCHAR
STARTCHAR 25B2
ENCODING 9650
SWIDTH 960 0
DWIDTH 16 0
BBX 16 16 0 -2
BITMAP
0100
0100
0380
0380
07C0
07C0
0FE0
0FE0
1FF0
1FF0
3FF8
3FF8
7FFC
7FFC
FFFE
0000
ENDCHAR
STARTCHAR 25B3
ENCODING 9651
SWIDTH 960 0
DWIDTH 16 0
BBX 16 16 0 -2
BITMAP
0100
0100
0280
0280
0440
0440
0820
0820
1010
1010
2008
2008
4004
4004
FFFE
0000
ENDCHAR
STARTCHAR 25BC
ENCODING 9660
SWIDTH 960 0
DWIDTH 16 0
BBX 16 16 0 -2
BITMAP
0000
FFFE
7FFC
7FFC
3FF8
3FF8
1FF0
1FF0
0FE0
0FE0
07C0
07C0
0380
0380
0100
0100
ENDCHAR
STARTCHAR 25BD
ENCODING 9661
SWIDTH 960 0
DWIDTH 16 0
BBX 16 16 0 -2
BITMAP
0000
FFFE
4004
4004
2008
2008
1010
1010
0820
0820
0440
0440
0280
0280
0100
0100
ENDCHAR
STARTCHAR 25C6
ENCODING 9670
SWIDTH 960 0
DWIDTH 16 0
BBX 16 16 0 -2
BITMAP
0100
0380
07C0
0FE0
1FF0
3FF8
7FFC
FFFE
FFFE
7FFC
3FF8
1FF0
0FE0
07C0
0380
0100
ENDCHAR
STARTCHAR 25C7
ENCODING 9671
SWIDTH 960 0
DWIDTH 16 0
BBX 16 16 0 -2
BITMAP
0100
0280
0440
0820
1010
2008
4004
8002
4004
2008
1010
0820
0440
0280
0100
0000
ENDCHAR
STARTCHAR 25CB
ENCODING 9675
SWIDTH 960 0
DWIDTH 16 0
BBX 16 16 0 -2
BITMAP
07C0
1830
2008
4004
4004
8002
8002
8002
8002
8002
8002
4004
4004
2008
1830
07C0
ENDCHAR
STARTCHAR 25CE
ENCODING 9678
SWIDTH 960 0
DWIDTH 16 0
BBX 16 16 0 -2
BITMAP
07C0
1830
2008
4004
47C4
8822
9012
9012
9012
9012
8822
47C4
4004
2008
1830
07C0
ENDCHAR
STARTCHAR 25CF
ENCODING 9679
SWIDTH 960 0
DWIDTH 16 0
BBX 16 16 0 -2
BITMAP
07C0
1FF0
3FF8
7FFC
7FFC
FFFE
FFFE
FFFE
FFFE
FFFE
FFFE
7FFC
7FFC
3FF8
1FF0
07C0
ENDCHAR
STARTCHAR 25EF
ENCODING 9711
SWIDTH 960 0
DWIDTH 16 0
BBX 16 16 0 -2
BITMAP
07C0
1830
2008
4004
4004
8002
8002
8002
8002
8002
8002
4004
4004
2008
1830
07C0
ENDCHAR
STARTCHAR 2605
ENCODING 9733
SWIDTH 960 0
DWIDTH 16 0
BBX 16 16 0 -2
BITMAP
0100
0100
0380
0380
07C0
07C0
FFFE
7FFC
3FF8
1FF0
0FE0
1FF0
1EF0
1C70
3838
3018
ENDCHAR
STARTCHAR 2606
ENCODING 9734
SWIDTH 960 0
DWIDTH 16 0
BBX 16 16 0 -2
BITMAP
0100
0100
0280
0280
0440
0440
FC7E
4004
2008
1010
0820
1110
1290
1450
2828
3018
ENDCHAR
STARTCHAR 2640
ENCODING 9792
SWIDTH 960 0
DWIDTH 16 0
BBX 16 16 0 -2
BITMAP
0380
0440
0820
0820
0820
0440
0380
0100
0100
3FF8
0100
0100
0100
0100
0100
0000
ENDCHAR
STARTCHAR 2642
ENCODING 9794
SWIDTH 960 0
DWIDTH 16 0
BBX 16 16 0 -2
BITMAP
0000
00FC
000C
0014
0024
0044
0084
0100
3A00
4400
8200
8200
8200
4400
3800
0000
ENDCHAR
STARTCHAR 266A
ENCODING 9834
SWIDTH 960 0
DWIDTH 16 0
BBX 16 16 0 -2
BITMAP
0000
0100
0100
0180
01C0
0160
0130
0110
0110
0120
0100
0F00
1E00
3E00
1800
0000
ENDCHAR
STARTCHAR 266D
ENCODING 9837
SWIDTH 960 0
DWIDTH 16 0
BBX 16 16 0 -2
BITMAP
0000
0800
0800
0800
0800
0800
0B80
0EC0
0840
08C0
0880
0980
0B00
0C00
0800
0000
ENDCHAR
STARTCHAR 266F
ENCODING 9839
SWIDTH 960 0
DWIDTH 16 0
BBX 16 16 0 -2
BITMAP
0000
0040
0440
0470
07F0
1FC0
1C40
0440
0440
0470
07F0
1FC0
1C40
0440
0400
0000
ENDCHAR
STARTCHAR 3000
ENCODING 12288
SWIDTH 960 0
DWIDTH 16 0
BBX 16 16 0 -2
BITMAP
0000
0000
0000
0000
0000
0000
0000
0000
0000
0000
0000
0000
0000
0000
0000
0000
ENDCHAR
STARTCHAR 3001
ENCODING 12289
SWIDTH 960 0
DWIDTH 16 0
BBX 16 16 0 -2
BITMAP
0000
0000
0000
0000
0000
0000
0000
0000
0000
0000
0000
8000
4000
6000
3000
3000
ENDCHAR
STARTCHAR 3002
ENCODING 12290
SWIDTH 960 0
DWIDTH 16 0
BBX 16 16 0 -2
BITMAP
0000
0000
0000
0000
0000
0000
0000
0000
0000
0000
0000
7000
8800
8800
8800
7000
ENDCHAR
STARTCHAR 3003
ENCODING 12291
SWIDTH 960 0
DWIDTH 16 0
BBX 16 16 0 -2
BITMAP
0000
0000
0000
0000
0660
0660
0440
0CC0
0880
1100
0000
0000
0000
0000
0000
0000
ENDCHAR
STARTCHAR 3005
ENCODING 12293
SWIDTH 960 0
DWIDTH 16 0
BBX 16 16 0 -2
BITMAP
0000
0000
0380
0300
0318
07FC
0618
0C30
0830
1060
2640
0180
00C0
00E0
0040
0000
ENDCHAR
STARTCHAR 3006
ENCODING 12294
SWIDTH 960 0
DWIDTH 16 0
BBX 16 16 0 -2
BITMAP
0004
0002
0006
000C
0018
0020
0EC0
1100
13C0
24C0
2800
2800
3000
6000
6000
0000
ENDCHAR
STARTCHAR 3007
ENCODING 12295
SWIDTH 960 0
DWIDTH 16 0
BBX 16 16 0 -2
BITMAP
0000
0000
07C0
1830
2008
4004
8002
8002
8002
8002
4004
2008
1830
07C0
0000
0000
ENDCHAR
STARTCHAR 3008
ENCODING 12296
SWIDTH 960 0
DWIDTH 16 0
BBX 16 16 0 -2
BITMAP
0004
0004
0008
0008
0010
0020
0020
0040
0040
0020
0020
0010
0008
0008
0004
0004
ENDCHAR
STARTCHAR 3009
ENCODING 12297
SWIDTH 960 0
DWIDTH 16 0
BBX 16 16 0 -2
BITMAP
4000
4000
2000
2000
1000
0800
0800
0400
0400
0800
0800
1000
2000
2000
4000
4000
ENDCHAR
STARTCHAR 300A
ENCODING 12298
SWIDTH 960 0
DWIDTH 16 0
BBX 16 16 0 -2
BITMAP
0024
0024
0048
0048
0090
0120
0120
0240
0240
0120
0120
0090
0048
0048
0024
0024
ENDCHAR
STARTCHAR 300B
ENCODING 12299
SWIDTH 960 0
DWIDTH 16 0
BBX 16 16 0 -2
BITMAP
4800
4800
2400
2400
1200
0900
0900
0480
0480
0900
0900
1200
2400
2400
4800
4800
ENDCHAR
STARTCHAR 300C
ENCODING 12300
SWIDTH 960 0
DWIDTH 16 0
BBX 16 16 0 -2
BITMAP
007C
0040
0040
0040
0040
0040
0040
0040
0040
0040
0040
0040
0000
0000
0000
0000
ENDCHAR
STARTCHAR 300D
ENCODING 12301
SWIDTH 960 0
DWIDTH 16 0
BBX 16 16 0 -2
BITMAP
0000
0000
0000
0000
0400
0400
0400
0400
0400
0400
0400
0400
0400
0400
0400
7C00
ENDCHAR
STARTCHAR 300E
ENCODING 12302
SWIDTH 960 0
DWIDTH 16 0
BBX 16 16 0 -2
BITMAP
00FC
0084
00BC
00A0
00A0
00A0
00A0
00A0
00A0
00A0
00A0
00E0
0000
0000
0000
0000
ENDCHAR
STARTCHAR 300F
ENCODING 12303
SWIDTH 960 0
DWIDTH 16 0
BBX 16 16 0 -2
BITMAP
0000
0000
0000
0000
0E00
0A00
0A00
0A00
0A00
0A00
0A00
0A00
0A00
7A00
4200
7E00
ENDCHAR
STARTCHAR 3010
ENCODING 12304
SWIDTH 960 0
DWIDTH 16 0
BBX 16 16 0 -2
BITMAP
007C
0070
0070
0070
0060
0060
0060
0060
0060
0060
0060
0060
0070
0070
0070
007C
ENDCHAR
STARTCHAR 3011
ENCODING 12305
SWIDTH 960 0
DWIDTH 16 0
BBX 16 16 0 -2
BITMAP
7C00
1C00
1C00
1C00
0C00
0C00
0C00
0C00
0C00
0C00
0C00
0C00
1C00
1C00
1C00
7C00
ENDCHAR
STARTCHAR 3012
ENCODING 12306
SWIDTH 960 0
DWIDTH 16 0
BBX 16 16 0 -2
BITMAP
0000
FFFC
FFFC
0000
0000
FFFC
FFFC
0300
0300
0300
0300
0300
0300
0300
0300
0300
ENDCHAR
STARTCHAR 3013
ENCODING 12307
SWIDTH 960 0
DWIDTH 16 0
BBX 16 16 0 -2
BITMAP
0000
0000
0000
3FF8
3FF8
3FF8
0000
0000
0000
3FF8
3FF8
3FF8
0000
0000
0000
0000
ENDCHAR
STARTCHAR 3014
ENCODING 12308
SWIDTH 960 0
DWIDTH 16 0
BBX 16 16 0 -2
BITMAP
0004
0018
0020
0020
0020
0020
0020
0020
0020
0020
0020
0020
0020
0020
0018
0004
ENDCHAR
STARTCHAR 3015
ENCODING 12309
SWIDTH 960 0
DWIDTH 16 0
BBX 16 16 0 -2
BITMAP
4000
3000
0800
0800
0800
0800
0800
0800
0800
0800
0800
0800
0800
0800
3000
4000
ENDCHAR
STARTCHAR 301C
ENCODING 12316
SWIDTH 960 0
DWIDTH 16 0
BBX 16 16 0 -2
BITMAP
0000
0000
0000
0000
0000
3C00
6600
8302
0184
00D8
0070
0000
0000
0000
0000
0000
ENDCHAR
STARTCHAR 301D
ENCODING 12317
SWIDTH 960 0
DWIDTH 16 0
BBX 16 16 0 -2
BITMAP
0000
0036
0024
0048
0000
0000
0000
0000
0000
0000
0000
0000
0000
0000
0000
0000
ENDCHAR
STARTCHAR 301F
ENCODING 12319
SWIDTH 960 0
DWIDTH 16 0
BBX 16 16 0 -2
BITMAP
0000
0000
0000
0000
0000
0000
0000
0000
0000
0000
0000
0000
3600
2400
4800
0000
ENDCHAR
STARTCHAR 3041
ENCODING 12353
SWIDTH 960 0
DWIDTH 16 0
BBX 16 16 0 -2
BITMAP
0000
0000
0000
0000
0000
0300
0940
0FC0
0200
03C0
06A0
0AB0
0B10
15B0
1820
00C0
ENDCHAR
STARTCHAR 3042
ENCODING 12354
SWIDTH 960 0
DWIDTH 16 0
BBX 16 16 0 -2
BITMAP
0600
0300
0260
33E0
1F00
0640
07F0
0C98
1C8C
170C
330C
2F0C
3818
0030
01C0
0000
ENDCHAR
STARTCHAR 3043
ENCODING 12355
SWIDTH 960 0
DWIDTH 16 0
BBX 16 16 0 -2
BITMAP
0000
0000
0000
0000
0000
0000
0000
1020
1030
1810
1818
1838
0A10
0C00
0400
0000
ENDCHAR
STARTCHAR 3044
ENCODING 12356
SWIDTH 960 0
DWIDTH 16 0
BBX 16 16 0 -2
BITMAP
0000
0000
4000
2020
2010
3018
3008
300C
321C
320C
1408
1C00
1800
0800
0000
0000
ENDCHAR
STARTCHAR 3045
ENCODING 12357
SWIDTH 960 0
DWIDTH 16 0
BBX 16 16 0 -2
BITMAP
0000
0000
0000
0000
0000
0300
0180
0000
0B80
0640
0060
0060
0060
00C0
0080
0300
ENDCHAR
STARTCHAR 3046
ENCODING 12358
SWIDTH 960 0
DWIDTH 16 0
BBX 16 16 0 -2
BITMAP
0300
01C0
00C0
0000
0000
13C0
1E60
0C30
0030
0030
0030
0020
0060
0040
0080
0300
ENDCHAR
STARTCHAR 3047
ENCODING 12359
SWIDTH 960 0
DWIDTH 16 0
BBX 16 16 0 -2
BITMAP
0000
0000
0000
0000
0000
0100
0380
0080
0BC0
0EC0
0100
0300
0580
0CB0
18F0
0000
ENDCHAR
STARTCHAR 3048
ENCODING 12360
SWIDTH 960 0
DWIDTH 16 0
BBX 16 16 0 -2
BITMAP
0380
00C0
00C0
0000
09C0
0F60
04C0
0180
0100
0600
0F00
1980
3080
30FC
007C
0000
ENDCHAR
STARTCHAR 3049
ENCODING 12361
SWIDTH 960 0
DWIDTH 16 0
BBX 16 16 0 -2
BITMAP
0000
0000
0000
0000
0000
0000
0600
12A0
1FB0
0410
05E0
0630
0C30
1530
0CE0
0400
ENDCHAR
STARTCHAR 304A
ENCODING 12362
SWIDTH 960 0
DWIDTH 16 0
BBX 16 16 0 -2
BITMAP
1800
0C18
0C0C
0906
6F0C
3C00
0870
0998
0A0C
0C0C
180C
780C
2918
1CF0
0800
0000
ENDCHAR
STARTCHAR 304B
ENCODING 12363
SWIDTH 960 0
DWIDTH 16 0
BBX 16 16 0 -2
BITMAP
0000
0C00
0600
0600
0790
5CC8
7C4C
2844
0846
184E
10C6
34C0
3380
6180
6100
0000
ENDCHAR
STARTCHAR 304C
ENCODING 12364
SWIDTH 960 0
DWIDTH 16 0
BBX 16 16 0 -2
BITMAP
0004
1816
0C1A
0C08
0F20
B990
F898
5088
108C
309C
218C
6980
6700
C300
C200
0000
ENDCHAR
STARTCHAR 304D
ENCODING 12365
SWIDTH 960 0
DWIDTH 16 0
BBX 16 16 0 -2
BITMAP
0200
0300
0360
19E0
0F80
00B0
18F0
0FC0
0660
0020
0FF0
1870
1000
1800
0FC0
03C0
ENDCHAR
STARTCHAR 304E
ENCODING 12366
SWIDTH 960 0
DWIDTH 16 0
BBX 16 16 0 -2
BITMAP
0404
0616
06DA
33C8
1F00
0160
31E0
1F80
0CC0
0040
1FE0
30E0
2000
3000
1F80
0780
ENDCHAR
STARTCHAR 304F
ENCODING 12367
SWIDTH 960 0
DWIDTH 16 0
BBX 16 16 0 -2
BITMAP
0180
00C0
00C0
0180
0300
0600
0C00
1000
1800
0C00
0600
0300
0180
00C0
00C0
0040
ENDCHAR
STARTCHAR 3050
ENCODING 12368
SWIDTH 960 0
DWIDTH 16 0
BBX 16 16 0 -2
BITMAP
0180
00C0
00C4
0196
031A
0608
0C00
1000
1800
0C00
0600
0300
0180
00C0
00C0
0040
ENDCHAR
STARTCHAR 3051
ENCODING 12369
SWIDTH 960 0
DWIDTH 16 0
BBX 16 16 0 -2
BITMAP
00E0
6030
3030
3030
303C
36FE
63F2
6030
6030
6030
6830
6830
3020
3060
1040
0080
ENDCHAR
STARTCHAR 3052
ENCODING 12370
SWIDTH 960 0
DWIDTH 16 0
BBX 16 16 0 -2
BITMAP
00C4
6066
307A
306C
3060
306C
66FE
63E0
6060
6060
6860
6860
3040
30C0
1080
0100
ENDCHAR
STARTCHAR 3053
ENCODING 12371
SWIDTH 960 0
DWIDTH 16 0
BBX 16 16 0 -2
BITMAP
0000
0000
0800
07E0
03E0
0080
0000
0000
1000
2000
2000
3000
1FF8
07F8
0000
0000
ENDCHAR
STARTCHAR 3054
ENCODING 12372
SWIDTH 960 0
DWIDTH 16 0
BBX 16 16 0 -2
BITMAP
0004
0016
081A
07E8
03E0
0080
0000
0000
1000
2000
2000
3000
1FF8
07F8
0000
0000
ENDCHAR
STARTCHAR 3055
ENCODING 12373
SWIDTH 960 0
DWIDTH 16 0
BBX 16 16 0 -2
BITMAP
0300
0600
0620
0330
11F0
1FC0
0CC0
0060
0760
08F0
1030
1800
0800
0FC0
03C0
0000
ENDCHAR
STARTCHAR 3056
ENCODING 12374
SWIDTH 960 0
DWIDTH 16 0
BBX 16 16 0 -2
BITMAP
0604
0C16
0C5A
0668
23E0
3F80
1980
00C0
0EC0
11E0
2060
3000
1000
1F80
0780
0000
ENDCHAR
STARTCHAR 3057
ENCODING 12375
SWIDTH 960 0
DWIDTH 16 0
BBX 16 16 0 -2
BITMAP
1800
0C00
0E00
0C00
0C00
0C00
0C00
0C00
0800
0800
0804
0808
0C30
07E0
0380
0000
ENDCHAR
STARTCHAR 3058
ENCODING 12376
SWIDTH 960 0
DWIDTH 16 0
BBX 16 16 0 -2
BITMAP
1800
0C08
0E2C
0C34
0C10
0C00
0C00
0C00
0800
0800
0804
0808
0C30
07E0
0380
0000
ENDCHAR
STARTCHAR 3059
ENCODING 12377
SWIDTH 960 0
DWIDTH 16 0
BBX 16 16 0 -2
BITMAP
0380
00C0
00C0
01FC
8FDE
F840
6340
06C0
04C0
04C0
06C0
03C0
0080
0180
0100
0600
ENDCHAR
STARTCHAR 305A
ENCODING 12378
SWIDTH 960 0
DWIDTH 16 0
BBX 16 16 0 -2
BITMAP
0394
00DE
00CA
00C0
8FFC
F8DE
6340
06C0
04C0
04C0
06C0
03C0
0080
0180
0100
0600
ENDCHAR
STARTCHAR 305B
ENCODING 12379
SWIDTH 960 0
DWIDTH 16 0
BBX 16 16 0 -2
BITMAP
0000
00C0
1860
0C60
0C60
0CFC
8FFE
FE60
6C60
0CC0
0CC0
0C00
0C00
07F0
03F0
0000
ENDCHAR
STARTCHAR 305C
ENCODING 12380
SWIDTH 960 0
DWIDTH 16 0
BBX 16 16 0 -2
BITMAP
0004
0196
18DA
0CC8
0CC0
0CFC
8FFE
FEC0
6CC0
0D80
0C80
0C00
0C00
07F0
03F0
0000
ENDCHAR
STARTCHAR 305D
ENCODING 12381
SWIDTH 960 0
DWIDTH 16 0
BBX 16 16 0 -2
BITMAP
0000
0BC0
0EC0
0580
0100
0300
04F8
0FF8
7980
6100
0200
0200
0200
0300
01C0
00C0
ENDCHAR
STARTCHAR 305E
ENCODING 12382
SWIDTH 960 0
DWIDTH 16 0
BBX 16 16 0 -2
BITMAP
0000
0BC4
0ED6
059A
0108
0300
04F8
0FF8
7980
6100
0200
0200
0200
0300
01C0
00C0
ENDCHAR
STARTCHAR 305F
ENCODING 12383
SWIDTH 960 0
DWIDTH 16 0
BBX 16 16 0 -2
BITMAP
0000
1800
0C00
0D00
4F60
7E38
3818
0820
1800
1000
3100
3180
60F8
6078
0000
0000
ENDCHAR
STARTCHAR 3060
ENCODING 12384
SWIDTH 960 0
DWIDTH 16 0
BBX 16 16 0 -2
BITMAP
0004
1816
0C1A
0D08
4F60
7E38
3818
0820
1800
1000
3100
3180
60F8
6078
0000
0000
ENDCHAR
STARTCHAR 3061
ENCODING 12385
SWIDTH 960 0
DWIDTH 16 0
BBX 16 16 0 -2
BITMAP
0600
0300
0300
22E0
3FE0
1600
0400
04F0
0D98
0E0C
0C0C
000C
0018
0030
03C0
0000
ENDCHAR
STARTCHAR 3062
ENCODING 12386
SWIDTH 960 0
DWIDTH 16 0
BBX 16 16 0 -2
BITMAP
0600
0304
0316
22DA
3FE8
1600
0400
04F0
0D98
0E0C
0C0C
000C
0018
0030
03C0
0000
ENDCHAR
STARTCHAR 3063
ENCODING 12387
SWIDTH 960 0
DWIDTH 16 0
BBX 16 16 0 -2
BITMAP
0000
0000
0000
0000
0000
0000
0000
0000
23E0
3E30
1810
0030
0020
00E0
0380
0000
ENDCHAR
STARTCHAR 3064
ENCODING 12388
SWIDTH 960 0
DWIDTH 16 0
BBX 16 16 0 -2
BITMAP
0000
0000
0000
0000
03F0
4E08
7C0C
3004
000C
000C
0018
0030
0060
0380
0000
0000
ENDCHAR
STARTCHAR 3065
ENCODING 12389
SWIDTH 960 0
DWIDTH 16 0
BBX 16 16 0 -2
BITMAP
0004
0016
001A
0008
03F0
4E08
7C0C
3004
000C
000C
0018
0030
0060
0380
0000
0000
ENDCHAR
STARTCHAR 3066
ENCODING 12390
SWIDTH 960 0
DWIDTH 16 0
BBX 16 16 0 -2
BITMAP
0000
0000
41F8
6F78
38C0
1100
0200
0200
0400
0400
0400
0600
0300
03C0
00C0
0000
ENDCHAR
STARTCHAR 3067
ENCODING 12391
SWIDTH 960 0
DWIDTH 16 0
BBX 16 16 0 -2
BITMAP
0000
0000
41F0
6F70
38C4
1116
021A
0208
0400
0400
0400
0600
0300
03C0
00C0
0000
ENDCHAR
STARTCHAR 3068
ENCODING 12392
SWIDTH 960 0
DWIDTH 16 0
BBX 16 16 0 -2
BITMAP
0C00
0600
0700
0600
0600
0230
02F0
03C0
0600
0800
1800
1000
1830
0FF0
07C0
0000
ENDCHAR
STARTCHAR 3069
ENCODING 12393
SWIDTH 960 0
DWIDTH 16 0
BBX 16 16 0 -2
BITMAP
0C04
0616
071A
0608
0600
0230
02F0
03C0
0600
0800
1800
1000
1830
0FF0
07C0
0000
ENDCHAR
STARTCHAR 306A
ENCODING 12394
SWIDTH 960 0
DWIDTH 16 0
BBX 16 16 0 -2
BITMAP
0C00
0600
0400
4F30
7E1C
281C
1820
1020
3040
6040
6040
03E0
0478
04DC
0380
0000
ENDCHAR
STARTCHAR 306B
ENCODING 12395
SWIDTH 960 0
DWIDTH 16 0
BBX 16 16 0 -2
BITMAP
0000
2000
3000
30F0
33F8
3020
6000
6000
6000
6100
6A00
6B00
31FC
30F8
1000
0000
ENDCHAR
STARTCHAR 306C
ENCODING 12396
SWIDTH 960 0
DWIDTH 16 0
BBX 16 16 0 -2
BITMAP
0300
0180
2080
2180
23F0
3798
190C
130C
3A0C
2C0C
6EE8
4918
71BE
20E6
0000
0000
ENDCHAR
STARTCHAR 306D
ENCODING 12397
SWIDTH 960 0
DWIDTH 16 0
BBX 16 16 0 -2
BITMAP
0800
0C00
0600
0C00
5DF0
7B18
2E0C
0C0C
080C
180C
38F8
2918
693E
5CE6
1800
0000
ENDCHAR
STARTCHAR 306E
ENCODING 12398
SWIDTH 960 0
DWIDTH 16 0
BBX 16 16 0 -2
BITMAP
0000
0000
03E0
0DB8
1898
318C
210C
630C
420C
460C
6C18
3818
3070
01C0
0000
0000
ENDCHAR
STARTCHAR 306F
ENCODING 12399
SWIDTH 960 0
DWIDTH 16 0
BBX 16 16 0 -2
BITMAP
0000
60E0
3030
3030
3020
337C
61FC
60A0
6020
6020
6830
69F0
323C
336E
31C4
0000
ENDCHAR
STARTCHAR 3070
ENCODING 12400
SWIDTH 960 0
DWIDTH 16 0
BBX 16 16 0 -2
BITMAP
0004
61C6
306A
306C
3044
36F8
63F8
6140
6040
6040
6860
6BE0
3478
36DC
3388
0000
ENDCHAR
STARTCHAR 3071
ENCODING 12401
SWIDTH 960 0
DWIDTH 16 0
BBX 16 16 0 -2
BITMAP
000C
61D2
3072
306C
3040
36F8
63F8
6140
6040
6040
6860
6BE0
3478
36DC
3388
0000
ENDCHAR
STARTCHAR 3072
ENCODING 12402
SWIDTH 960 0
DWIDTH 16 0
BBX 16 16 0 -2
BITMAP
0000
0020
0630
4E30
3838
1828
102C
1026
2024
2020
2060
2040
30C0
1B80
0F00
0000
ENDCHAR
STARTCHAR 3073
ENCODING 12403
SWIDTH 960 0
DWIDTH 16 0
BBX 16 16 0 -2
BITMAP
0004
0016
0C5A
9C68
7060
3070
2050
205C
404C
4040
40C0
4080
6180
3700
1E00
0000
ENDCHAR
STARTCHAR 3074
ENCODING 12404
SWIDTH 960 0
DWIDTH 16 0
BBX 16 16 0 -2
BITMAP
000C
0012
0C52
9C6C
7060
3070
2050
205C
404C
4040
40C0
4080
6180
3700
1E00
0000
ENDCHAR
STARTCHAR 3075
ENCODING 12405
SWIDTH 960 0
DWIDTH 16 0
BBX 16 16 0 -2
BITMAP
0000
0200
0100
01C0
03C0
0400
0400
0200
03E0
0718
098C
B18E
6584
4380
0100
0000
ENDCHAR
STARTCHAR 3076
ENCODING 12406
SWIDTH 960 0
DWIDTH 16 0
BBX 16 16 0 -2
BITMAP
0000
0200
0104
01D6
03DA
0408
0400
0200
03E0
0718
098C
B18E
6584
4380
0100
0000
ENDCHAR
STARTCHAR 3077
ENCODING 12407
SWIDTH 960 0
DWIDTH 16 0
BBX 16 16 0 -2
BITMAP
0000
0200
010C
01D2
03D2
040C
0400
0200
03E0
0718
098C
B18E
6584
4380
0100
0000
ENDCHAR
STARTCHAR 3078
ENCODING 12408
SWIDTH 960 0
DWIDTH 16 0
BBX 16 16 0 -2
BITMAP
0000
0000
0000
0E00
1A00
1100
3180
B0C0
E060
4030
001C
000E
0006
0000
0000
0000
ENDCHAR
STARTCHAR 3079
ENCODING 12409
SWIDTH 960 0
DWIDTH 16 0
BBX 16 16 0 -2
BITMAP
0010
0058
0068
0E20
1A00
1100
3180
B0C0
E060
4030
001C
000E
0006
0000
0000
0000
ENDCHAR
STARTCHAR 307A
ENCODING 12410
SWIDTH 960 0
DWIDTH 16 0
BBX 16 16 0 -2
BITMAP
0030
0048
0048
0E30
1A00
1100
3180
B0C0
E060
4030
001C
000E
0006
0000
0000
0000
ENDCHAR
STARTCHAR 307B
ENCODING 12411
SWIDTH 960 0
DWIDTH 16 0
BBX 16 16 0 -2
BITMAP
0000
6078
33FC
3020
3030
303C
607C
63F0
6030
6030
6830
69F0
323C
326E
11C4
0000
ENDCHAR
STARTCHAR 307C
ENCODING 12412
SWIDTH 960 0
DWIDTH 16 0
BBX 16 16 0 -2
BITMAP
0000
60E4
37F6
304A
306C
3074
60F0
67E0
6060
6060
6860
6BE0
3478
34DC
1388
0000
ENDCHAR
STARTCHAR 307D
ENCODING 12413
SWIDTH 960 0
DWIDTH 16 0
BBX 16 16 0 -2
BITMAP
000C
60D2
37F2
304C
3060
3078
60F8
67E0
6060
6060
6860
6BE0
3478
34DC
1388
0000
ENDCHAR
STARTCHAR 307E
ENCODING 12414
SWIDTH 960 0
DWIDTH 16 0
BBX 16 16 0 -2
BITMAP
0300
0180
0180
1130
1FF0
0F80
0120
13F0
1FC0
0900
0180
1F80
21E0
33B8
1E18
0000
ENDCHAR
STARTCHAR 307F
ENCODING 12415
SWIDTH 960 0
DWIDTH 16 0
BBX 16 16 0 -2
BITMAP
0000
0080
17C0
1CC0
0980
0330
0218
0618
1FF8
2C18
483E
7026
3060
0040
0080
0000
ENDCHAR
STARTCHAR 3080
ENCODING 12416
SWIDTH 960 0
DWIDTH 16 0
BBX 16 16 0 -2
BITMAP
1800
0C00
0D18
7F2C
3C26
082E
0824
3C10
6C10
4818
5808
3818
1018
1FF0
0FE0
0000
ENDCHAR
STARTCHAR 3081
ENCODING 12417
SWIDTH 960 0
DWIDTH 16 0
BBX 16 16 0 -2
BITMAP
0000
0180
00C0
20C0
2080
33E0
1DB8
1918
3B0C
2E0C
640C
4F0C
7B18
2030
00C0
0000
ENDCHAR
STARTCHAR 3082
ENCODING 12418
SWIDTH 960 0
DWIDTH 16 0
BBX 16 16 0 -2
BITMAP
0300
0180
2180
1B00
0F00
0700
1200
2240
3620
1F10
0F18
0418
0418
07F0
03E0
0000
ENDCHAR
STARTCHAR 3083
ENCODING 12419
SWIDTH 960 0
DWIDTH 16 0
BBX 16 16 0 -2
BITMAP
0000
0000
0000
0000
0200
0F00
1180
13F0
1698
5918
7DF0
26E0
0600
0300
0300
0000
ENDCHAR
STARTCHAR 3084
ENCODING 12420
SWIDTH 960 0
DWIDTH 16 0
BBX 16 16 0 -2
BITMAP
0100
0080
1CC0
23C0
3078
118C
1F06
8C06
FCFC
6478
0600
0300
0300
0180
0180
0000
ENDCHAR
STARTCHAR 3085
ENCODING 12421
SWIDTH 960 0
DWIDTH 16 0
BBX 16 16 0 -2
BITMAP
0000
0000
0000
0000
1180
1A80
0BE0
0AD0
1ED8
16C8
1AD8
1AB0
09E0
0180
0100
0200
ENDCHAR
STARTCHAR 3086
ENCODING 12422
SWIDTH 960 0
DWIDTH 16 0
BBX 16 16 0 -2
BITMAP
0000
0180
62C0
34F0
35D8
36CC
24CC
6CCC
6ACC
72CC
72D8
21F0
3080
0180
0100
0200
ENDCHAR
STARTCHAR 3087
ENCODING 12423
SWIDTH 960 0
DWIDTH 16 0
BBX 16 16 0 -2
BITMAP
0000
0000
0000
0000
0300
0180
0160
01E0
0100
0100
0100
0F80
11E0
1B70
0E00
0000
ENDCHAR
STARTCHAR 3088
ENCODING 12424
SWIDTH 960 0
DWIDTH 16 0
BBX 16 16 0 -2
BITMAP
0300
01C0
0180
0180
01B0
01F8
0180
0180
0180
0180
0180
1F80
21E0
3338
1E18
0000
ENDCHAR
STARTCHAR 3089
ENCODING 12425
SWIDTH 960 0
DWIDTH 16 0
BBX 16 16 0 -2
BITMAP
0200
0100
0380
0580
0800
0800
0800
09E0
1A30
1C18
1818
0018
0030
0060
0380
0000
ENDCHAR
STARTCHAR 308A
ENCODING 12426
SWIDTH 960 0
DWIDTH 16 0
BBX 16 16 0 -2
BITMAP
0000
1800
0CC0
0D60
0A30
0A30
1A30
1C30
1C30
0830
0C30
0060
0060
00C0
0180
0600
ENDCHAR
STARTCHAR 308B
ENCODING 12427
SWIDTH 960 0
DWIDTH 16 0
BBX 16 16 0 -2
BITMAP
0000
09C0
0F60
04C0
0180
0100
0200
05E0
0E30
1818
3018
3318
04D8
0670
03E0
0000
ENDCHAR
STARTCHAR 308C
ENCODING 12428
SWIDTH 960 0
DWIDTH 16 0
BBX 16 16 0 -2
BITMAP
1800
0C00
0C00
08F0
5D98
7B18
2A18
0C18
0818
1830
3830
2830
6832
5C3C
1818
0000
ENDCHAR
STARTCHAR 308D
ENCODING 12429
SWIDTH 960 0
DWIDTH 16 0
BBX 16 16 0 -2
BITMAP
0000
08C0
0FE0
06C0
0180
0200
0600
0DE0
1E30
3018
3018
0018
0030
0060
0380
0000
ENDCHAR
STARTCHAR 308E
ENCODING 12430
SWIDTH 960 0
DWIDTH 16 0
BBX 16 16 0 -2
BITMAP
0000
0000
0000
0000
0000
0000
0C00
0600
3DC0
1660
0430
0C10
1430
3C20
16C0
0400
ENDCHAR
STARTCHAR 308F
ENCODING 12431
SWIDTH 960 0
DWIDTH 16 0
BBX 16 16 0 -2
BITMAP
1800
0C00
0E00
0C00
5800
7EF0
2B18
0C0C
180C
180C
280C
6818
6C30
1CC0
0800
0000
ENDCHAR
STARTCHAR 3090
ENCODING 12432
SWIDTH 960 0
DWIDTH 16 0
BBX 16 16 0 -2
BITMAP
0000
0880
0FC0
0680
0180
0100
03F0
0E18
160C
340C
640C
298C
3A58
1270
01E0
0000
ENDCHAR
STARTCHAR 3091
ENCODING 12433
SWIDTH 960 0
DWIDTH 16 0
BBX 16 16 0 -2
BITMAP
0000
0BC0
0EC0
0580
0200
07E0
0C30
1B30
0560
07C0
0C00
1830
3648
639C
C18C
0000
ENDCHAR
STARTCHAR 3092
ENCODING 12434
SWIDTH 960 0
DWIDTH 16 0
BBX 16 16 0 -2
BITMAP
0300
0180
11B0
1FF0
0F00
0208
078C
0CDC
18F0
19C0
02C0
0600
0400
07F0
03F0
0000
ENDCHAR
STARTCHAR 3093
ENCODING 12435
SWIDTH 960 0
DWIDTH 16 0
BBX 16 16 0 -2
BITMAP
0000
0300
0180
0180
0300
0300
0600
0400
0F00
1984
1184
3188
3198
60F0
60E0
0000
ENDCHAR
STARTCHAR 309B
ENCODING 12443
SWIDTH 960 0
DWIDTH 16 0
BBX 16 16 0 -2
BITMAP
2000
B000
D000
4000
0000
0000
0000
0000
0000
0000
0000
0000
0000
0000
0000
0000
ENDCHAR
STARTCHAR 309C
ENCODING 12444
SWIDTH 960 0
DWIDTH 16 0
BBX 16 16 0 -2
BITMAP
6000
9000
9000
6000
0000
0000
0000
0000
0000
0000
0000
0000
0000
0000
0000
0000
ENDCHAR
STARTCHAR 309D
ENCODING 12445
SWIDTH 960 0
DWIDTH 16 0
BBX 16 16 0 -2
BITMAP
0000
0000
0000
0800
0800
0400
0400
0200
0100
0180
00C0
01C0
0600
0000
0000
0000
ENDCHAR
STARTCHAR 309E
ENCODING 12446
SWIDTH 960 0
DWIDTH 16 0
BBX 16 16 0 -2
BITMAP
0000
0000
0020
08B0
08D0
0440
0400
0200
0100
0180
00C0
01C0
0600
0000
0000
0000
ENDCHAR
STARTCHAR 30A1
ENCODING 12449
SWIDTH 960 0
DWIDTH 16 0
BBX 16 16 0 -2
BITMAP
0000
0000
0000
0000
0000
0000
0040
1BE0
0E30
0060
0380
0100
0300
0200
0C00
0000
ENDCHAR
STARTCHAR 30A2
ENCODING 12450
SWIDTH 960 0
DWIDTH 16 0
BBX 16 16 0 -2
BITMAP
0000
0000
0030
23F8
3E1C
1830
0360
0180
0180
0180
0180
0100
0300
0200
0400
0000
ENDCHAR
STARTCHAR 30A3
ENCODING 12451
SWIDTH 960 0
DWIDTH 16 0
BBX 16 16 0 -2
BITMAP
0000
0000
0000
0000
0000
0000
0040
00E0
00C0
0380
0700
1D80
0180
0180
0180
0100
ENDCHAR
STARTCHAR 30A4
ENCODING 12452
SWIDTH 960 0
DWIDTH 16 0
BBX 16 16 0 -2
BITMAP
0000
0060
0070
00C0
00C0
0180
0300
0780
0D80
3180
0180
0180
0180
0180
0180
0000
ENDCHAR
STARTCHAR 30A5
ENCODING 12453
SWIDTH 960 0
DWIDTH 16 0
BBX 16 16 0 -2
BITMAP
0000
0000
0000
0000
0000
0300
0180
0920
0FF0
0C18
0830
0020
0060
00C0
0080
0300
ENDCHAR
STARTCHAR 30A6
ENCODING 12454
SWIDTH 960 0
DWIDTH 16 0
BBX 16 16 0 -2
BITMAP
0000
0600
0300
0330
33F8
1E1C
1818
1830
1830
1020
0060
00C0
0080
0100
0200
0000
ENDCHAR
STARTCHAR 30A7
ENCODING 12455
SWIDTH 960 0
DWIDTH 16 0
BBX 16 16 0 -2
BITMAP
0000
0000
0000
0000
0000
0000
0000
08C0
0FE0
0500
0180
0180
0100
1BE0
0FF0
0000
ENDCHAR
STARTCHAR 30A8
ENCODING 12456
SWIDTH 960 0
DWIDTH 16 0
BBX 16 16 0 -2
BITMAP
0000
0000
0000
21F0
1FF8
0F10
0180
0180
0180
0180
41B8
7FFC
3804
0000
0000
0000
ENDCHAR
STARTCHAR 30A9
ENCODING 12457
SWIDTH 960 0
DWIDTH 16 0
BBX 16 16 0 -2
BITMAP
0000
0000
0000
0000
0000
0180
0080
10E0
1FF0
0980
0380
0680
0C80
1180
0180
0080
ENDCHAR
STARTCHAR 30AA
ENCODING 12458
SWIDTH 960 0
DWIDTH 16 0
BBX 16 16 0 -2
BITMAP
0000
0180
00C0
00C0
00C0
67F8
3DDC
13C0
02C0
06C0
0CC0
18C0
12C0
61C0
00C0
0000
ENDCHAR
STARTCHAR 30AB
ENCODING 12459
SWIDTH 960 0
DWIDTH 16 0
BBX 16 16 0 -2
BITMAP
0000
0600
0380
0310
23F8
3F9C
1B18
0618
0618
0430
0C30
09B0
10E0
6060
0000
0000
ENDCHAR
STARTCHAR 30AC
ENCODING 12460
SWIDTH 960 0
DWIDTH 16 0
BBX 16 16 0 -2
BITMAP
0004
0C16
071A
0628
47F0
7F38
3630
0C30
0C30
0860
1860
1360
21C0
C0C0
0000
0000
ENDCHAR
STARTCHAR 30AD
ENCODING 12461
SWIDTH 960 0
DWIDTH 16 0
BBX 16 16 0 -2
BITMAP
0000
0600
0600
0360
27F0
3E00
1300
0338
43FC
7F80
3980
0180
0180
0180
0180
0000
ENDCHAR
STARTCHAR 30AE
ENCODING 12462
SWIDTH 960 0
DWIDTH 16 0
BBX 16 16 0 -2
BITMAP
0004
0C16
0C1A
06C8
4FE0
7C00
2600
0670
87F8
FF00
7300
0300
0300
0300
0300
0000
ENDCHAR
STARTCHAR 30AF
ENCODING 12463
SWIDTH 960 0
DWIDTH 16 0
BBX 16 16 0 -2
BITMAP
0000
0300
0180
0310
03F0
0638
0430
0860
1060
00C0
00C0
0180
0300
0600
1800
0000
ENDCHAR
STARTCHAR 30B0
ENCODING 12464
SWIDTH 960 0
DWIDTH 16 0
BBX 16 16 0 -2
BITMAP
0004
0616
031A
0648
07E0
0C70
0860
10C0
20C0
0180
0180
0300
0600
0C00
3000
0000
ENDCHAR
STARTCHAR 30B1
ENCODING 12465
SWIDTH 960 0
DWIDTH 16 0
BBX 16 16 0 -2
BITMAP
0000
0800
0C00
0600
0C00
0CF8
1FFC
1080
20C0
40C0
0180
0180
0300
0600
1800
0000
ENDCHAR
STARTCHAR 30B2
ENCODING 12466
SWIDTH 960 0
DWIDTH 16 0
BBX 16 16 0 -2
BITMAP
0004
1016
181A
0C08
1800
19F0
3FF8
2100
4180
8180
0300
0300
0600
0C00
3000
0000
ENDCHAR
STARTCHAR 30B3
ENCODING 12467
SWIDTH 960 0
DWIDTH 16 0
BBX 16 16 0 -2
BITMAP
0000
0000
0000
0060
1FF0
0E38
0030
0030
0020
0060
0060
1FE0
0E30
0000
0000
0000
ENDCHAR
STARTCHAR 30B4
ENCODING 12468
SWIDTH 960 0
DWIDTH 16 0
BBX 16 16 0 -2
BITMAP
0004
0016
001A
00C8
3FE0
1C70
0060
0060
0040
00C0
00C0
3FC0
1C60
0000
0000
0000
ENDCHAR
STARTCHAR 30B5
ENCODING 12469
SWIDTH 960 0
DWIDTH 16 0
BBX 16 16 0 -2
BITMAP
0000
0000
00C0
0C60
0660
46F8
7FFC
3660
0660
0460
00C0
00C0
0180
0100
0600
0000
ENDCHAR
STARTCHAR 30B6
ENCODING 12470
SWIDTH 960 0
DWIDTH 16 0
BBX 16 16 0 -2
BITMAP
0004
0016
019A
18C8
0CC0
8DF0
FFF8
6CC0
0CC0
08C0
0180
0180
0300
0200
0C00
0000
ENDCHAR
STARTCHAR 30B7
ENCODING 12471
SWIDTH 960 0
DWIDTH 16 0
BBX 16 16 0 -2
BITMAP
0000
0000
0C00
0600
0204
0008
1808
0C10
0430
0060
00C0
0180
1B00
0E00
0400
0000
ENDCHAR
STARTCHAR 30B8
ENCODING 12472
SWIDTH 960 0
DWIDTH 16 0
BBX 16 16 0 -2
BITMAP
0004
0016
181A
0C08
0400
0008
3010
1830
0860
00C0
0180
0300
3600
1C00
0800
0000
ENDCHAR
STARTCHAR 30B9
ENCODING 12473
SWIDTH 960 0
DWIDTH 16 0
BBX 16 16 0 -2
BITMAP
0000
0000
0040
11E0
1F30
0C60
0060
00C0
0080
01C0
0360
0630
0838
3018
0000
0000
ENDCHAR
STARTCHAR 30BA
ENCODING 12474
SWIDTH 960 0
DWIDTH 16 0
BBX 16 16 0 -2
BITMAP
0004
0016
009A
23C8
3E60
18C0
00C0
0180
0100
0380
06C0
0C60
1070
6030
0000
0000
ENDCHAR
STARTCHAR 30BB
ENCODING 12475
SWIDTH 960 0
DWIDTH 16 0
BBX 16 16 0 -2
BITMAP
0000
0C00
0700
0600
0610
07F8
4F1C
7E30
3620
0640
0600
0600
03F8
01F8
0000
0000
ENDCHAR
STARTCHAR 30BC
ENCODING 12476
SWIDTH 960 0
DWIDTH 16 0
BBX 16 16 0 -2
BITMAP
0004
1816
0E1A
0C08
0C20
0FF0
9E38
FC60
6C40
0C80
0C00
0C00
07F0
03F0
0000
0000
ENDCHAR
STARTCHAR 30BD
ENCODING 12477
SWIDTH 960 0
DWIDTH 16 0
BBX 16 16 0 -2
BITMAP
0000
0020
1030
0818
0C18
0C30
0030
0030
0060
0040
00C0
0080
0100
0600
0000
0000
ENDCHAR
STARTCHAR 30BE
ENCODING 12478
SWIDTH 960 0
DWIDTH 16 0
BBX 16 16 0 -2
BITMAP
0004
0016
409A
20C8
3060
30C0
00C0
0080
0180
0100
0300
0200
0400
1800
0000
0000
ENDCHAR
STARTCHAR 30BF
ENCODING 12479
SWIDTH 960 0
DWIDTH 16 0
BBX 16 16 0 -2
BITMAP
0000
0300
0180
0310
03F0
0638
0430
0F60
1160
01C0
00C0
0180
0300
0600
1800
0000
ENDCHAR
STARTCHAR 30C0
ENCODING 12480
SWIDTH 960 0
DWIDTH 16 0
BBX 16 16 0 -2
BITMAP
0004
0616
031A
0648
07E0
0C70
0860
1EC0
22C0
0380
0180
0300
0600
0C00
3000
0000
ENDCHAR
STARTCHAR 30C1
ENCODING 12481
SWIDTH 960 0
DWIDTH 16 0
BBX 16 16 0 -2
BITMAP
0000
0060
01F0
0380
1F00
0180
43F8
7FBC
3980
0180
0180
0100
0300
0200
0C00
0000
ENDCHAR
STARTCHAR 30C2
ENCODING 12482
SWIDTH 960 0
DWIDTH 16 0
BBX 16 16 0 -2
BITMAP
0004
0096
03DA
0708
3E00
0300
87F0
FF78
7300
0300
0300
0200
0600
0400
1800
0000
ENDCHAR
STARTCHAR 30C3
ENCODING 12483
SWIDTH 960 0
DWIDTH 16 0
BBX 16 16 0 -2
BITMAP
0000
0000
0000
0000
0000
0000
0000
0220
1330
1930
0820
0060
00C0
0080
0100
0600
ENDCHAR
STARTCHAR 30C4
ENCODING 12484
SWIDTH 960 0
DWIDTH 16 0
BBX 16 16 0 -2
BITMAP
0000
0000
0420
0230
2318
1130
1830
0820
0060
0040
00C0
0080
0100
0600
0000
0000
ENDCHAR
STARTCHAR 30C5
ENCODING 12485
SWIDTH 960 0
DWIDTH 16 0
BBX 16 16 0 -2
BITMAP
0004
0016
081A
04C8
4660
2260
3060
1040
00C0
0080
0180
0100
0200
0C00
0000
0000
ENDCHAR
STARTCHAR 30C6
ENCODING 12486
SWIDTH 960 0
DWIDTH 16 0
BBX 16 16 0 -2
BITMAP
0000
0840
0FE0
0720
0000
4070
7FF8
3908
0180
0180
0180
0300
0300
0200
0C00
0000
ENDCHAR
STARTCHAR 30C7
ENCODING 12487
SWIDTH 960 0
DWIDTH 16 0
BBX 16 16 0 -2
BITMAP
0004
1096
1FDA
0E48
0000
80E0
FFF0
7210
0300
0300
0300
0600
0600
0400
1800
0000
ENDCHAR
STARTCHAR 30C8
ENCODING 12488
SWIDTH 960 0
DWIDTH 16 0
BBX 16 16 0 -2
BITMAP
0000
0600
0300
0380
0300
0300
03C0
0370
0318
0318
0300
0300
0300
0300
0300
0000
ENDCHAR
STARTCHAR 30C9
ENCODING 12489
SWIDTH 960 0
DWIDTH 16 0
BBX 16 16 0 -2
BITMAP
0004
0616
031A
0388
0300
0300
03C0
0370
0318
0318
0300
0300
0300
0300
0300
0000
ENDCHAR
STARTCHAR 30CA
ENCODING 12490
SWIDTH 960 0
DWIDTH 16 0
BBX 16 16 0 -2
BITMAP
0000
0300
0180
0180
0180
01F8
4FBC
7D84
3180
0300
0300
0200
0600
0400
1800
0000
ENDCHAR
STARTCHAR 30CB
ENCODING 12491
SWIDTH 960 0
DWIDTH 16 0
BBX 16 16 0 -2
BITMAP
0000
0000
0000
10C0
1FE0
0E20
0000
0000
0000
40F8
7FFC
3C04
0000
0000
0000
0000
ENDCHAR
STARTCHAR 30CC
ENCODING 12492
SWIDTH 960 0
DWIDTH 16 0
BBX 16 16 0 -2
BITMAP
0000
0000
0040
11E0
1F70
0C60
00C0
0EC0
0380
03C0
0660
0C70
1020
6000
0000
0000
ENDCHAR
STARTCHAR 30CD
ENCODING 12493
SWIDTH 960 0
DWIDTH 16 0
BBX 16 16 0 -2
BITMAP
0200
0180
0180
0040
1BE0
0E70
00C0
0180
03E0
07B8
0D98
3180
0180
0180
0180
0000
ENDCHAR
STARTCHAR 30CE
ENCODING 12494
SWIDTH 960 0
DWIDTH 16 0
BBX 16 16 0 -2
BITMAP
0000
00C0
0060
0070
0060
00C0
00C0
0180
0100
0300
0600
0400
0800
3000
0000
0000
ENDCHAR
STARTCHAR 30CF
ENCODING 12495
SWIDTH 960 0
DWIDTH 16 0
BBX 16 16 0 -2
BITMAP
0000
0000
0000
1800
0CC0
0C20
0C30
1818
1818
100C
300C
200C
4000
0000
0000
0000
ENDCHAR
STARTCHAR 30D0
ENCODING 12496
SWIDTH 960 0
DWIDTH 16 0
BBX 16 16 0 -2
BITMAP
0004
0016
001A
1808
0CC0
0C20
0C30
1818
1818
100C
300C
200C
4000
0000
0000
0000
ENDCHAR
STARTCHAR 30D1
ENCODING 12497
SWIDTH 960 0
DWIDTH 16 0
BBX 16 16 0 -2
BITMAP
000C
0012
0012
180C
0CC0
0C20
0C30
1818
1818
100C
300C
200C
4000
0000
0000
0000
ENDCHAR
STARTCHAR 30D2
ENCODING 12498
SWIDTH 960 0
DWIDTH 16 0
BBX 16 16 0 -2
BITMAP
0000
0000
1800
0C00
0E00
0C00
0C70
0FF0
0D00
0C00
0C00
0C18
07F8
03E0
0000
0000
ENDCHAR
STARTCHAR 30D3
ENCODING 12499
SWIDTH 960 0
DWIDTH 16 0
BBX 16 16 0 -2
BITMAP
0004
0016
181A
0C08
0E00
0C00
0C70
0FF0
0D00
0C00
0C00
0C18
07F8
03E0
0000
0000
ENDCHAR
STARTCHAR 30D4
ENCODING 12500
SWIDTH 960 0
DWIDTH 16 0
BBX 16 16 0 -2
BITMAP
000C
0012
1812
0C0C
0E00
0C00
0C70
0FF0
0D00
0C00
0C00
0C18
07F8
03E0
0000
0000
ENDCHAR
STARTCHAR 30D5
ENCODING 12501
SWIDTH 960 0
DWIDTH 16 0
BBX 16 16 0 -2
BITMAP
0000
0000
0060
33F0
1F38
0C30
0060
0060
00C0
00C0
0180
0300
0600
1800
0000
0000
ENDCHAR
STARTCHAR 30D6
ENCODING 12502
SWIDTH 960 0
DWIDTH 16 0
BBX 16 16 0 -2
BITMAP
0004
0016
009A
67C8
3E60
1860
00C0
00C0
0180
0180
0300
0600
0C00
3000
0000
0000
ENDCHAR
STARTCHAR 30D7
ENCODING 12503
SWIDTH 960 0
DWIDTH 16 0
BBX 16 16 0 -2
BITMAP
000C
0012
0092
67CC
3E60
1860
00C0
00C0
0180
0180
0300
0600
0C00
3000
0000
0000
ENDCHAR
STARTCHAR 30D8
ENCODING 12504
SWIDTH 960 0
DWIDTH 16 0
BBX 16 16 0 -2
BITMAP
0000
0000
0000
0400
0E00
1900
1180
30C0
6060
C030
001C
000C
0000
0000
0000
0000
ENDCHAR
STARTCHAR 30D9
ENCODING 12505
SWIDTH 960 0
DWIDTH 16 0
BBX 16 16 0 -2
BITMAP
0020
00B0
00D0
0440
0E00
1900
1180
30C0
6060
C030
001C
000C
0000
0000
0000
0000
ENDCHAR
STARTCHAR 30DA
ENCODING 12506
SWIDTH 960 0
DWIDTH 16 0
BBX 16 16 0 -2
BITMAP
0060
0090
0090
0460
0E00
1900
1180
30C0
6060
C030
001C
000C
0000
0000
0000
0000
ENDCHAR
STARTCHAR 30DB
ENCODING 12507
SWIDTH 960 0
DWIDTH 16 0
BBX 16 16 0 -2
BITMAP
0000
0300
0180
01C0
21B8
3FFC
1D84
0180
01A0
0990
1998
318C
358C
0380
0180
0000
ENDCHAR
STARTCHAR 30DC
ENCODING 12508
SWIDTH 960 0
DWIDTH 16 0
BBX 16 16 0 -2
BITMAP
0004
0616
031A
0388
4370
7FF8
3B08
0300
0340
1320
3330
6318
6B18
0700
0300
0000
ENDCHAR
STARTCHAR 30DD
ENCODING 12509
SWIDTH 960 0
DWIDTH 16 0
BBX 16 16 0 -2
BITMAP
000C
0612
0312
038C
4370
7FF8
3B08
0300
0340
1320
3330
6318
6B18
0700
0300
0000
ENDCHAR
STARTCHAR 30DE
ENCODING 12510
SWIDTH 960 0
DWIDTH 16 0
BBX 16 16 0 -2
BITMAP
0000
0000
0000
0020
63F0
3F38
1860
0060
00C0
0980
0600
0300
0180
0180
0000
0000
ENDCHAR
STARTCHAR 30DF
ENCODING 12511
SWIDTH 960 0
DWIDTH 16 0
BBX 16 16 0 -2
BITMAP
0000
0400
0300
01C0
00E0
0420
0300
03C0
00C0
0800
0600
0380
01C0
0060
0000
0000
ENDCHAR
STARTCHAR 30E0
ENCODING 12512
SWIDTH 960 0
DWIDTH 16 0
BBX 16 16 0 -2
BITMAP
0000
0200
0300
0180
0300
0300
0200
0640
0420
0C10
0818
4FF8
7E0C
300C
0000
0000
ENDCHAR
STARTCHAR 30E1
ENCODING 12513
SWIDTH 960 0
DWIDTH 16 0
BBX 16 16 0 -2
BITMAP
0000
0000
0060
0030
0030
0C60
0360
01C0
00C0
01E0
0330
0630
0C00
3000
0000
0000
ENDCHAR
STARTCHAR 30E2
ENCODING 12514
SWIDTH 960 0
DWIDTH 16 0
BBX 16 16 0 -2
BITMAP
0000
0000
10E0
1FF0
0E00
0300
0378
67FC
3F00
1300
0300
0300
01F0
00F0
0000
0000
ENDCHAR
STARTCHAR 30E3
ENCODING 12515
SWIDTH 960 0
DWIDTH 16 0
BBX 16 16 0 -2
BITMAP
0000
0000
0000
0000
0000
0000
0C00
0420
07F0
3F60
1A40
0380
0300
0100
0180
0180
ENDCHAR
STARTCHAR 30E4
ENCODING 12516
SWIDTH 960 0
DWIDTH 16 0
BBX 16 16 0 -2
BITMAP
0000
0C00
0600
0610
06F8
038C
5E38
7B20
2140
0180
0180
0080
00C0
00C0
00C0
0000
ENDCHAR
STARTCHAR 30E5
ENCODING 12517
SWIDTH 960 0
DWIDTH 16 0
BBX 16 16 0 -2
BITMAP
0000
0000
0000
0000
0000
0000
0000
08C0
0FE0
0640
00C0
0080
37E0
1C70
0000
0000
ENDCHAR
STARTCHAR 30E6
ENCODING 12518
SWIDTH 960 0
DWIDTH 16 0
BBX 16 16 0 -2
BITMAP
0000
0000
0000
0040
13E0
1F30
0860
0060
0060
00C0
00D8
6FFC
3C04
1000
0000
0000
ENDCHAR
STARTCHAR 30E7
ENCODING 12519
SWIDTH 960 0
DWIDTH 16 0
BBX 16 16 0 -2
BITMAP
0000
0000
0000
0000
0000
0000
0840
0FE0
0430
0060
07E0
0260
0040
0BE0
0E60
0000
ENDCHAR
STARTCHAR 30E8
ENCODING 12520
SWIDTH 960 0
DWIDTH 16 0
BBX 16 16 0 -2
BITMAP
0000
0000
0060
1BF0
0E38
0030
0030
0DF0
0730
0060
0060
1160
1FF0
0C10
0000
0000
ENDCHAR
STARTCHAR 30E9
ENCODING 12521
SWIDTH 960 0
DWIDTH 16 0
BBX 16 16 0 -2
BITMAP
0000
0000
09C0
0FE0
0400
0020
11F0
1F38
0C30
0060
0060
00C0
0180
0300
0C00
0000
ENDCHAR
STARTCHAR 30EA
ENCODING 12522
SWIDTH 960 0
DWIDTH 16 0
BBX 16 16 0 -2
BITMAP
0000
00C0
1860
0C70
0C60
0C60
0C60
0C60
0C60
0860
00C0
00C0
0180
0100
0600
0000
ENDCHAR
STARTCHAR 30EB
ENCODING 12523
SWIDTH 960 0
DWIDTH 16 0
BBX 16 16 0 -2
BITMAP
0000
0000
0000
0180
18C0
0CE0
0CC0
08C2
18C4
18C8
10D8
30F0
21E0
40C0
0000
0000
ENDCHAR
STARTCHAR 30EC
ENCODING 12524
SWIDTH 960 0
DWIDTH 16 0
BBX 16 16 0 -2
BITMAP
0000
0000
1800
0C00
0C00
0C00
0C00
0C04
0C08
0C30
0CE0
1F80
0E00
0C00
0000
0000
ENDCHAR
STARTCHAR 30ED
ENCODING 12525
SWIDTH 960 0
DWIDTH 16 0
BBX 16 16 0 -2
BITMAP
0000
0000
0000
0020
11F0
1F98
0818
0C30
0C30
0C30
0C30
0C60
0FF0
0C10
0000
0000
ENDCHAR
STARTCHAR 30EE
ENCODING 12526
SWIDTH 960 0
DWIDTH 16 0
BBX 16 16 0 -2
BITMAP
0000
0000
0000
0000
0000
0000
1040
1FE0
1830
1830
1060
0060
0040
00C0
0080
0300
ENDCHAR
STARTCHAR 30EF
ENCODING 12527
SWIDTH 960 0
DWIDTH 16 0
BBX 16 16 0 -2
BITMAP
0000
0000
0020
31F0
1F18
1830
1830
1830
1060
0060
00C0
0180
0100
0200
0C00
0000
ENDCHAR
STARTCHAR 30F0
ENCODING 12528
SWIDTH 960 0
DWIDTH 16 0
BBX 16 16 0 -2
BITMAP
0000
0180
00C0
00C0
20F0
3FF8
1CC0
0CC0
48D8
7FFC
38C0
00C0
00C0
00C0
00C0
0000
ENDCHAR
STARTCHAR 30F1
ENCODING 12529
SWIDTH 960 0
DWIDTH 16 0
BBX 16 16 0 -2
BITMAP
0000
0000
0000
0060
1BF0
0E60
0440
0380
0180
0180
0130
6FF8
3C0C
1000
0000
0000
ENDCHAR
STARTCHAR 30F2
ENCODING 12530
SWIDTH 960 0
DWIDTH 16 0
BBX 16 16 0 -2
BITMAP
0000
0000
0020
37F0
1E18
0830
0030
13E0
1E60
0CC0
00C0
0180
0300
0600
1800
0000
ENDCHAR
STARTCHAR 30F3
ENCODING 12531
SWIDTH 960 0
DWIDTH 16 0
BBX 16 16 0 -2
BITMAP
0000
0000
1000
0C00
0604
0208
0008
0010
0030
0060
00C0
0180
1B00
0E00
0400
0000
ENDCHAR
STARTCHAR 30F4
ENCODING 12532
SWIDTH 960 0
DWIDTH 16 0
BBX 16 16 0 -2
BITMAP
0004
0C16
061A
0648
67E0
3C70
3060
3060
30C0
20C0
0080
0180
0100
0200
0400
0000
ENDCHAR
STARTCHAR 30F5
ENCODING 12533
SWIDTH 960 0
DWIDTH 16 0
BBX 16 16 0 -2
BITMAP
0000
0000
0000
0000
0000
0000
0300
01A0
0BF0
0F38
0330
0330
0620
0460
09E0
1040
ENDCHAR
STARTCHAR 30F6
ENCODING 12534
SWIDTH 960 0
DWIDTH 16 0
BBX 16 16 0 -2
BITMAP
0000
0000
0000
0000
0000
0600
0600
0C60
0FF0
1880
20C0
00C0
0180
0100
0200
0C00
ENDCHAR
STARTCHAR 30FB
ENCODING 12539
SWIDTH 960 0
DWIDTH 16 0
BBX 16 16 0 -2
BITMAP
0000
0000
0000
0000
0000
0000
0180
03C0
03C0
0180
0000
0000
0000
0000
0000
0000
ENDCHAR
STARTCHAR 30FC
ENCODING 12540
SWIDTH 960 0
DWIDTH 16 0
BBX 16 16 0 -2
BITMAP
0000
0000
0000
0000
0000
4000
7FF8
3FFC
0000
0000
0000
0000
0000
0000
0000
0000
ENDCHAR
STARTCHAR 30FD
ENCODING 12541
SWIDTH 960 0
DWIDTH 16 0
BBX 16 16 0 -2
BITMAP
0000
0000
0000
0000
0000
0400
0200
0100
0180
00C0
00C0
0040
0000
0000
0000
0000
ENDCHAR
STARTCHAR 30FE
ENCODING 12542
SWIDTH 960 0
DWIDTH 16 0
BBX 16 16 0 -2
BITMAP
0000
0000
0020
00B0
00D0
0840
0400
0200
0300
0180
0180
0080
0000
0000
0000
0000
ENDCHAR
STARTCHAR 3231
ENCODING 12849
SWIDTH 960 0
DWIDTH 16 0
BBX 16 16 0 -2
BITMAP
1010
2D68
4944
4BF4
BE42
8852
9FFA
9A42
AAE2
C8D2
895A
4A54
4C44
2848
1010
0000
ENDCHAR
STARTCHAR 3232
ENCODING 12850
SWIDTH 960 0
DWIDTH 16 0
BBX 16 16 0 -2
BITMAP
1010
2308
4224
7FF4
8202
8442
8FE2
9442
A7C2
C442
87C2
4444
45C4
2488
1010
0000
ENDCHAR
STARTCHAR 3239
ENCODING 12857
SWIDTH 960 0
DWIDTH 16 0
BBX 16 16 0 -2
BITMAP
1010
26C8
44A4
44B4
8882
8FFA
9882
A882
C882
8842
8842
4854
4824
2838
1010
0000
ENDCHAR
STARTCHAR 32A4
ENCODING 12964
SWIDTH 960 0
DWIDTH 16 0
BBX 16 16 0 -2
BITMAP
07C0
1830
2308
4204
4204
8242
83E2
8202
8202
8202
8222
5FF4
4004
2008
1830
07C0
ENDCHAR
STARTCHAR 32A5
ENCODING 12965
SWIDTH 960 0
DWIDTH 16 0
BBX 16 16 0 -2
BITMAP
07C0
1830
2308
4204
5224
9FF2
9222
9222
9222
9FE2
9222
4204
4204
2208
1830
07C0
ENDCHAR
STARTCHAR 32A6
ENCODING 12966
SWIDTH 960 0
DWIDTH 16 0
BBX 16 16 0 -2
BITMAP
07C0
1830
2008
4024
5FF4
8202
8202
8382
8262
8222
8202
4204
4204
2208
1830
07C0
ENDCHAR
STARTCHAR 32A7
ENCODING 12967
SWIDTH 960 0
DWIDTH 16 0
BBX 16 16 0 -2
BITMAP
07C0
1830
2308
4204
4224
BFF2
8402
8422
8FF2
8882
9082
60A4
4FF4
2008
1830
07C0
ENDCHAR
STARTCHAR 32A8
ENCODING 12968
SWIDTH 960 0
DWIDTH 16 0
BBX 16 16 0 -2
BITMAP
07C0
1830
2308
4204
4224
BFF2
8402
8442
8FE2
9442
A442
4444
47C4
2448
1830
07C0
ENDCHAR
STARTCHAR 3303
ENCODING 13059
SWIDTH 960 0
DWIDTH 16 0
BBX 16 16 0 -2
BITMAP
0000
9F00
E200
1400
1900
10FE
1080
2000
2300
4D00
0500
0510
0520
0940
0980
1100
ENDCHAR
STARTCHAR 330D
ENCODING 13069
SWIDTH 960 0
DWIDTH 16 0
BBX 16 16 0 -2
BITMAP
3000
10C6
1E7A
F242
1242
2244
2244
5C7C
8844
0600
6400
44FE
4440
4400
0800
3000
ENDCHAR
STARTCHAR 3314
ENCODING 13076
SWIDTH 960 0
DWIDTH 16 0
BBX 16 16 0 -2
BITMAP
3000
1000
1000
1C00
F000
1000
1000
1ECE
F072
0842
0842
0844
0844
007C
0044
0000
ENDCHAR
STARTCHAR 3318
ENCODING 13080
SWIDTH 960 0
DWIDTH 16 0
BBX 16 16 0 -2
BITMAP
3100
249C
3EE0
451E
45E4
8808
0808
1010
2360
C100
0100
0200
0240
05E0
1E30
0810
ENDCHAR
STARTCHAR 3322
ENCODING 13090
SWIDTH 960 0
DWIDTH 16 0
BBX 16 16 0 -2
BITMAP
6080
2040
3F60
E202
2404
2098
2060
1F40
0080
0F80
0100
03F8
3D00
0100
0200
0C00
ENDCHAR
STARTCHAR 3323
ENCODING 13091
SWIDTH 960 0
DWIDTH 16 0
BBX 16 16 0 -2
BITMAP
6080
2040
3F60
E202
2404
2098
2060
1F40
0200
0200
0200
0380
0260
0220
0200
0200
ENDCHAR
STARTCHAR 3326
ENCODING 13094
SWIDTH 960 0
DWIDTH 16 0
BBX 16 16 0 -2
BITMAP
6100
2480
2280
2200
3000
2C00
2600
2060
21A0
20A0
20A0
00A2
0124
0128
0230
0420
ENDCHAR
STARTCHAR 3327
ENCODING 13095
SWIDTH 960 0
DWIDTH 16 0
BBX 16 16 0 -2
BITMAP
3000
1000
1000
1000
1800
1600
1280
1040
1060
1002
1004
0108
0090
00E0
0080
0000
ENDCHAR
STARTCHAR 332B
ENCODING 13099
SWIDTH 960 0
DWIDTH 16 0
BBX 16 16 0 -2
BITMAP
1380
6A80
2780
2400
24FE
4240
8200
0200
C030
4210
5990
E83C
5256
4990
3D10
0000
ENDCHAR
STARTCHAR 3336
ENCODING 13110
SWIDTH 960 0
DWIDTH 16 0
BBX 16 16 0 -2
BITMAP
0060
1044
187C
A448
6288
4310
0120
0040
6080
4818
7C68
4828
ABAA
122A
204C
4088
ENDCHAR
STARTCHAR 333B
ENCODING 13115
SWIDTH 960 0
DWIDTH 16 0
BBX 16 16 0 -2
BITMAP
0380
0280
1B80
1400
A47E
6220
4300
0100
0410
0328
0810
0610
0040
0880
0700
0400
ENDCHAR
STARTCHAR 3349
ENCODING 13129
SWIDTH 960 0
DWIDTH 16 0
BBX 16 16 0 -2
BITMAP
0000
6000
1800
0C00
0000
6006
1064
0844
0044
C044
3044
0804
0C04
0008
0008
0030
ENDCHAR
STARTCHAR 334A
ENCODING 13130
SWIDTH 960 0
DWIDTH 16 0
BBX 16 16 0 -2
BITMAP
380C
0468
0048
3848
0448
0008
7010
0C10
0460
0018
6A68
5528
502A
4BAA
4A4C
8888
ENDCHAR
STARTCHAR 334D
ENCODING 13133
SWIDTH 960 0
DWIDTH 16 0
BBX 16 16 0 -2
BITMAP
0600
0400
4800
3100
10FE
2880
4C00
8030
60D0
2050
2050
3852
2694
2098
2110
2200
ENDCHAR
STARTCHAR 3351
ENCODING 13137
SWIDTH 960 0
DWIDTH 16 0
BBX 16 16 0 -2
BITMAP
0600
6400
4400
4444
4524
44A8
0888
0810
3060
1000
1030
18D0
1452
1654
1058
1190
ENDCHAR
STARTCHAR 3357
ENCODING 13143
SWIDTH 960 0
DWIDTH 16 0
BBX 16 16 0 -2
BITMAP
0000
4F00
7100
4124
4294
0254
0448
0810
1620
0240
0200
0380
0260
0220
0200
0200
ENDCHAR
STARTCHAR 337B
ENCODING 13179
SWIDTH 960 0
DWIDTH 16 0
BBX 16 16 0 -2
BITMAP
0000
0000
040C
7E8A
10FE
5488
54AA
12FA
FFAC
10AA
116A
1114
1266
1002
0000
0000
ENDCHAR
STARTCHAR 337C
ENCODING 13180
SWIDTH 960 0
DWIDTH 16 0
BBX 16 16 0 -2
BITMAP
0000
0200
3F20
8A70
EBCA
AA4E
B7FA
E44A
AEEA
AADA
EB4E
AA4A
0E40
0A40
0000
0000
ENDCHAR
STARTCHAR 337D
ENCODING 13181
SWIDTH 960 0
DWIDTH 16 0
BBX 16 16 0 -2
BITMAP
0000
1808
11FC
1420
FE20
10A0
10A8
10BC
28A0
28A0
28A0
44A4
47FE
8200
0000
0000
ENDCHAR
STARTCHAR 337E
ENCODING 13182
SWIDTH 960 0
DWIDTH 16 0
BBX 16 16 0 -2
BITMAP
0000
0A8C
AE48
EA48
AA94
AE52
EA5E
AA32
AE40
EA5E
AAD2
0A52
1252
1E5E
2472
0000
ENDCHAR
STARTCHAR 338E
ENCODING 13198
SWIDTH 960 0
DWIDTH 16 0
BBX 16 16 0 -2
BITMAP
0000
0000
0000
0000
0000
6C36
3A48
2A48
2A48
2A30
2A20
2A7C
7F42
0042
003C
0000
ENDCHAR
STARTCHAR 338F
ENCODING 13199
SWIDTH 960 0
DWIDTH 16 0
BBX 16 16 0 -2
BITMAP
0000
6000
2000
2000
2000
2736
2248
2448
3848
2830
2420
227C
7742
0042
003C
0000
ENDCHAR
STARTCHAR 339C
ENCODING 13212
SWIDTH 960 0
DWIDTH 16 0
BBX 16 16 0 -2
BITMAP
0000
0000
0000
0000
0000
6CD8
3A74
2A54
2A54
2A54
2A54
2A54
7FFE
0000
0000
0000
ENDCHAR
STARTCHAR 339D
ENCODING 13213
SWIDTH 960 0
DWIDTH 16 0
BBX 16 16 0 -2
BITMAP
0000
0000
0000
0000
0000
1AD8
2674
2254
2054
2054
2254
2254
1CFE
0000
0000
0000
ENDCHAR
STARTCHAR 339E
ENCODING 13214
SWIDTH 960 0
DWIDTH 16 0
BBX 16 16 0 -2
BITMAP
0000
6000
2000
2000
2000
2ED8
2474
2854
3054
2854
2454
2454
76FE
0000
0000
0000
ENDCHAR
STARTCHAR 33A1
ENCODING 13217
SWIDTH 960 0
DWIDTH 16 0
BBX 16 16 0 -2
BITMAP
0000
0018
0024
0004
0018
3BA0
167C
1240
1240
1240
1240
1240
3FE0
0000
0000
0000
ENDCHAR
STARTCHAR 33C4
ENCODING 13252
SWIDTH 960 0
DWIDTH 16 0
BBX 16 16 0 -2
BITMAP
0000
0000
0000
0000
0000
1A34
264C
2244
2040
2040
2244
2244
1C38
0000
0000
0000
ENDCHAR
STARTCHAR 33CD
ENCODING 13261
SWIDTH 960 0
DWIDTH 16 0
BBX 16 16 0 -2
BITMAP
0000
0000
EFDC
4488
4488
4890
50A0
60C0
50A0
4890
4890
4488
4488
EFDE
0202
0000
ENDCHAR
STARTCHAR 4E00
ENCODING 19968
SWIDTH 960 0
DWIDTH 16 0
BBX 16 16 0 -2
BITMAP
0000
0000
0000
0000
0000
0008
001C
FFFE
0000
0000
0000
0000
0000
0000
0000
0000
ENDCHAR
STARTCHAR 4E01
ENCODING 19969
SWIDTH 960 0
DWIDTH 16 0
BBX 16 16 0 -2
BITMAP
000C
FFFE
0180
0180
0180
0180
0180
0180
0180
0180
0180
0180
0180
0180
0F80
0300
ENDCHAR
STARTCHAR 4E03
ENCODING 19971
SWIDTH 960 0
DWIDTH 16 0
BBX 16 16 0 -2
BITMAP
0E00
0C00
0C00
0C00
0C0C
0C7E
1FC0
FC00
0C00
0C00
0C08
0C08
0C0C
0FFC
07F8
0000
ENDCHAR
STARTCHAR 4E07
ENCODING 19975
SWIDTH 960 0
DWIDTH 16 0
BBX 16 16 0 -2
BITMAP
0000
000C
FFFE
0600
0600
0618
07FC
0618
0618
0618
0C18
0C18
1830
1030
21E0
C0C0
ENDCHAR
STARTCHAR 4E08
ENCODING 19976
SWIDTH 960 0
DWIDTH 16 0
BBX 16 16 0 -2
BITMAP
01C0
0180
018C
FFFE
0180
0980
0980
0580
0580
0780
0300
0380
06E0
0C7E
301C
C004
ENDCHAR
STARTCHAR 4E09
ENCODING 19977
SWIDTH 960 0
DWIDTH 16 0
BBX 16 16 0 -2
BITMAP
0000
0030
3FF8
0000
0000
0000
0060
1FF0
0000
0000
0000
0000
000C
FFFE
0000
0000
ENDCHAR
STARTCHAR 4E0A
ENCODING 19978
SWIDTH 960 0
DWIDTH 16 0
BBX 16 16 0 -2
BITMAP
0380
0300
0300
0300
0300
0330
03F8
0300
0300
0300
0300
0300
0300
030C
FFFE
0000
ENDCHAR
STARTCHAR 4E0B
ENCODING 19979
SWIDTH 960 0
DWIDTH 16 0
BBX 16 16 0 -2
BITMAP
000C
FFFE
0300
0300
0300
03C0
0370
0318
0318
0300
0300
0300
0300
0300
0300
0300
ENDCHAR
STARTCHAR 4E0D
ENCODING 19981
SWIDTH 960 0
DWIDTH 16 0
BBX 16 16 0 -2
BITMAP
000C
FFFE
0180
01C0
0380
0360
0798
0D8C
198E
3186
C180
0180
0180
0180
0180
0180
ENDCHAR
STARTCHAR 4E0E
ENCODING 19982
SWIDTH 960 0
DWIDTH 16 0
BBX 16 16 0 -2
BITMAP
0E00
0C18
0FFC
0C00
1800
1830
1FF8
1830
0030
0034
FFFE
0060
0060
00C0
07C0
0180
ENDCHAR
STARTCHAR 4E10
ENCODING 19984
SWIDTH 960 0
DWIDTH 16 0
BBX 16 16 0 -2
BITMAP
000C
FFFE
0180
0180
3998
31FC
3180
318C
7FFE
600C
600C
000C
000C
0018
00F8
0030
ENDCHAR
STARTCHAR 4E11
ENCODING 19985
SWIDTH 960 0
DWIDTH 16 0
BBX 16 16 0 -2
BITMAP
0030
3FF8
0630
0630
0630
0630
0634
FFFE
0C30
0C30
0C30
0C30
0C30
0C34
FFFE
0000
ENDCHAR
STARTCHAR 4E14
ENCODING 19988
SWIDTH 960 0
DWIDTH 16 0
BBX 16 16 0 -2
BITMAP
1030
1FF8
1830
1830
1830
1FF0
1830
1830
1830
1FF0
1830
1830
1830
1834
FFFE
0000
ENDCHAR
STARTCHAR 4E15
ENCODING 19989
SWIDTH 960 0
DWIDTH 16 0
BBX 16 16 0 -2
BITMAP
000C
FFFE
0180
01C0
0380
03C0
07B0
0D98
198C
618C
0180
0180
0180
000C
FFFE
0000
ENDCHAR
STARTCHAR 4E16
ENCODING 19990
SWIDTH 960 0
DWIDTH 16 0
BBX 16 16 0 -2
BITMAP
3BB8
3330
3330
3330
3334
FFFE
3330
3330
3330
33F0
3330
3000
3000
300C
3FFE
3000
ENDCHAR
STARTCHAR 4E17
ENCODING 19991
SWIDTH 960 0
DWIDTH 16 0
BBX 16 16 0 -2
BITMAP
01C0
399C
3198
3198
3198
319C
FFFE
3198
3198
3198
3198
3198
3198
3198
3FF8
3018
ENDCHAR
STARTCHAR 4E18
ENCODING 19992
SWIDTH 960 0
DWIDTH 16 0
BBX 16 16 0 -2
BITMAP
0030
11F8
1FC0
1800
1800
1818
1FFC
1860
1860
1860
1860
1860
1860
186C
FFFE
0000
ENDCHAR
STARTCHAR 4E19
ENCODING 19993
SWIDTH 960 0
DWIDTH 16 0
BBX 16 16 0 -2
BITMAP
000C
FFFE
0180
418C
7FFE
618C
618C
638C
636C
663C
6C3C
700C
600C
600C
603C
6018
ENDCHAR
STARTCHAR 4E1E
ENCODING 19998
SWIDTH 960 0
DWIDTH 16 0
BBX 16 16 0 -2
BITMAP
0030
3FF8
0030
0020
0D4C
FD8C
0DD8
19B0
19A0
3198
219E
478C
8304
0018
7FFC
0000
ENDCHAR
STARTCHAR 4E21
ENCODING 20001
SWIDTH 960 0
DWIDTH 16 0
BBX 16 16 0 -2
BITMAP
000C
FFFE
0180
4186
7FFE
6186
6186
6DB6
6DB6
6DB6
6DB6
6DB6
6FF6
6C36
601E
600C
ENDCHAR
STARTCHAR 4E26
ENCODING 20006
SWIDTH 960 0
DWIDTH 16 0
BBX 16 16 0 -2
BITMAP
1018
0C18
0C30
0648
7FFC
0660
4668
266C
266C
3668
3670
3660
0660
066C
FFFE
0000
ENDCHAR
STARTCHAR 4E2A
ENCODING 20010
SWIDTH 960 0
DWIDTH 16 0
BBX 16 16 0 -2
BITMAP
0100
0180
0380
0740
0E60
1838
31DE
C18C
0180
0180
0180
0180
0180
0180
0180
0180
ENDCHAR
STARTCHAR 4E2D
ENCODING 20013
SWIDTH 960 0
DWIDTH 16 0
BBX 16 16 0 -2
BITMAP
01C0
0180
4186
7FFE
6186
6186
6186
6186
6186
7FFE
6186
0180
0180
0180
0180
0180
ENDCHAR
STARTCHAR 4E31
ENCODING 20017
SWIDTH 960 0
DWIDTH 16 0
BBX 16 16 0 -2
BITMAP
0770
0660
0660
7666
6666
6666
6666
6666
6666
7E7E
6666
0666
0460
0C60
0860
3060
ENDCHAR
STARTCHAR 4E32
ENCODING 20018
SWIDTH 960 0
DWIDTH 16 0
BBX 16 16 0 -2
BITMAP
01C0
218C
3FFE
318C
318C
3FFC
0180
4186
7FFE
6186
6186
6186
7FFE
6186
0180
0180
ENDCHAR
STARTCHAR 4E36
ENCODING 20022
SWIDTH 960 0
DWIDTH 16 0
BBX 16 16 0 -2
BITMAP
0000
0000
1000
0C00
0600
0300
0180
01C0
00E0
0060
0070
0030
0000
0000
0000
0000
ENDCHAR
STARTCHAR 4E38
ENCODING 20024
SWIDTH 960 0
DWIDTH 16 0
BBX 16 16 0 -2
BITMAP
0E00
0C00
0C60
FFF0
0C60
0C60
0C60
6C60
1860
0C60
1E60
1364
3364
2066
407E
803C
ENDCHAR
STARTCHAR 4E39
ENCODING 20025
SWIDTH 960 0
DWIDTH 16 0
BBX 16 16 0 -2
BITMAP
1030
1FF8
1830
1E30
1B30
19B0
1930
1834
FFFE
1830
1830
1830
1030
3030
20F0
C060
ENDCHAR
STARTCHAR 4E3B
ENCODING 20027
SWIDTH 960 0
DWIDTH 16 0
BBX 16 16 0 -2
BITMAP
0300
0180
01C0
0098
7FFC
0180
0180
0180
01B0
3FF8
0180
0180
0180
018C
FFFE
0000
ENDCHAR
STARTCHAR 4E3C
ENCODING 20028
SWIDTH 960 0
DWIDTH 16 0
BBX 16 16 0 -2
BITMAP
0E38
0C30
0C30
7FFC
0E30
0D30
0DB0
0DB0
0C34
FFFE
0C30
1830
1830
3030
2030
C030
ENDCHAR
STARTCHAR 4E3F
ENCODING 20031
SWIDTH 960 0
DWIDTH 16 0
BBX 16 16 0 -2
BITMAP
01C0
0180
0180
0180
0180
0180
0180
0180
0180
0180
0300
0300
0300
0600
0C00
7000
ENDCHAR
STARTCHAR 4E42
ENCODING 20034
SWIDTH 960 0
DWIDTH 16 0
BBX 16 16 0 -2
BITMAP
0010
1018
1018
1030
0830
0830
0C60
0460
06C0
0380
0100
0380
06C0
0C70
303E
C00C
ENDCHAR
STARTCHAR 4E43
ENCODING 20035
SWIDTH 960 0
DWIDTH 16 0
BBX 16 16 0 -2
BITMAP
0060
7FF0
0C60
0C60
0C60
0CCC
0CFE
0CCC
180C
180C
180C
1018
3018
2018
41F0
8060
ENDCHAR
STARTCHAR 4E45
ENCODING 20037
SWIDTH 960 0
DWIDTH 16 0
BBX 16 16 0 -2
BITMAP
0700
0600
0660
0FF0
0C60
1860
10C0
60C0
01C0
01C0
0360
0620
0C38
181E
300C
C004
ENDCHAR
STARTCHAR 4E4B
ENCODING 20043
SWIDTH 960 0
DWIDTH 16 0
BBX 16 16 0 -2
BITMAP
01C0
0180
0198
7FFC
0018
0030
0030
0060
00C0
0180
0200
1400
3800
2C00
E7FE
41FC
ENDCHAR
STARTCHAR 4E4D
ENCODING 20045
SWIDTH 960 0
DWIDTH 16 0
BBX 16 16 0 -2
BITMAP
0C00
0C00
180C
1FFE
3180
2180
4190
81F8
0180
0180
0198
01FC
0180
0180
0180
0180
ENDCHAR
STARTCHAR 4E4E
ENCODING 20046
SWIDTH 960 0
DWIDTH 16 0
BBX 16 16 0 -2
BITMAP
0070
03F8
7F80
2190
1198
19B0
19A0
01CC
FFFE
0180
0180
0180
0180
0180
0F80
0300
ENDCHAR
STARTCHAR 4E4F
ENCODING 20047
SWIDTH 960 0
DWIDTH 16 0
BBX 16 16 0 -2
BITMAP
0030
01F8
3F80
0180
0198
7FFC
0018
0030
0060
00C0
0180
1600
3800
6800
C7FE
41FC
ENDCHAR
STARTCHAR 4E55
ENCODING 20053
SWIDTH 960 0
DWIDTH 16 0
BBX 16 16 0 -2
BITMAP
0018
21FC
3FC0
30CC
3FFE
30C0
30CC
3FFE
30C0
38CC
3FFE
2CCC
6CCC
4CDC
8CCC
00C0
ENDCHAR
STARTCHAR 4E56
ENCODING 20054
SWIDTH 960 0
DWIDTH 16 0
BBX 16 16 0 -2
BITMAP
00F8
7FFC
0180
018C
FFFE
0180
0DB0
0DB4
FDBC
0DB0
0DB4
3DB4
EDBE
4D9C
0180
0180
ENDCHAR
STARTCHAR 4E57
ENCODING 20055
SWIDTH 960 0
DWIDTH 16 0
BBX 16 16 0 -2
BITMAP
0030
03F8
3F80
0188
7FFC
1998
FFFE
1998
1998
7FFC
03C0
07A0
0DB0
199E
318C
C184
ENDCHAR
STARTCHAR 4E58
ENCODING 20056
SWIDTH 960 0
DWIDTH 16 0
BBX 16 16 0 -2
BITMAP
00F8
7FFC
0184
FFFE
0180
1DB4
F9BC
19B4
FBBE
DBDC
07C0
0DA0
1DB8
319E
C18C
0180
ENDCHAR
STARTCHAR 4E59
ENCODING 20057
SWIDTH 960 0
DWIDTH 16 0
BBX 16 16 0 -2
BITMAP
0030
7FF8
0030
0060
00C0
0180
0300
0600
0C00
1800
3004
3004
7006
3FFE
1FFC
0000
ENDCHAR
STARTCHAR 4E5D
ENCODING 20061
SWIDTH 960 0
DWIDTH 16 0
BBX 16 16 0 -2
BITMAP
0E00
0C00
0C00
0C60
FFF0
0C60
0C60
0C60
0C60
0C60
1860
1864
1864
3066
207E
C03C
ENDCHAR
STARTCHAR 4E5E
ENCODING 20062
SWIDTH 960 0
DWIDTH 16 0
BBX 16 16 0 -2
BITMAP
0C00
0C00
180C
1FFE
3000
6060
9FF0
01C0
0300
0600
0C00
1804
1804
3006
3FFE
1FFC
ENDCHAR
STARTCHAR 4E5F
ENCODING 20063
SWIDTH 960 0
DWIDTH 16 0
BBX 16 16 0 -2
BITMAP
01C0
1D80
1980
1998
19BC
1BD8
3D98
D998
1998
19F8
1990
1984
1804
1806
1FFE
0FFC
ENDCHAR
STARTCHAR 4E62
ENCODING 20066
SWIDTH 960 0
DWIDTH 16 0
BBX 16 16 0 -2
BITMAP
1C70
1860
1860
DB60
DB60
DB60
DB60
DB60
DB60
DB60
DB60
FF64
C364
C066
007E
003C
ENDCHAR
STARTCHAR 4E71
ENCODING 20081
SWIDTH 960 0
DWIDTH 16 0
BBX 16 16 0 -2
BITMAP
0670
1F60
7C60
0C60
0D60
FFE0
0C60
0C60
4D60
7FE0
6360
6364
6364
6366
7F7E
633C
ENDCHAR
STARTCHAR 4E73
ENCODING 20083
SWIDTH 960 0
DWIDTH 16 0
BBX 16 16 0 -2
BITMAP
0670
1F60
7260
5B60
6E60
2D60
7F60
0660
0460
0DE0
FE60
6C64
0C64
0C66
3C7E
183C
ENDCHAR
STARTCHAR 4E7E
ENCODING 20094
SWIDTH 960 0
DWIDTH 16 0
BBX 16 16 0 -2
BITMAP
1C70
1A60
FF4C
18FE
7F00
6618
67FC
7E18
6630
6660
7EC0
18C4
FF84
1986
19FE
18FC
ENDCHAR
STARTCHAR 4E80
ENCODING 20096
SWIDTH 960 0
DWIDTH 16 0
BBX 16 16 0 -2
BITMAP
0C40
0FE0
18D0
3FF8
D9B0
1FF0
19B0
5FF0
7FFC
6198
7FF8
6198
7FFC
6186
01FE
00FC
ENDCHAR
STARTCHAR 4E82
ENCODING 20098
SWIDTH 960 0
DWIDTH 16 0
BBX 16 16 0 -2
BITMAP
0738
7FB0
5930
CBB0
BF30
0630
8CB0
FFF0
C9B0
DFB0
DBB0
C5B4
FFB4
D5B6
CFBE
F59C
ENDCHAR
STARTCHAR 4E85
ENCODING 20101
SWIDTH 960 0
DWIDTH 16 0
BBX 16 16 0 -2
BITMAP
01C0
0180
0180
0180
0180
0180
0180
0180
0180
0180
0180
0180
0180
0180
0F80
0300
ENDCHAR
STARTCHAR 4E86
ENCODING 20102
SWIDTH 960 0
DWIDTH 16 0
BBX 16 16 0 -2
BITMAP
0018
7FFC
0018
0030
0060
0140
0180
0180
0180
0180
0180
0180
0180
0180
0F80
0300
ENDCHAR
STARTCHAR 4E88
ENCODING 20104
SWIDTH 960 0
DWIDTH 16 0
BBX 16 16 0 -2
BITMAP
0010
3FF8
0030
0460
0340
0380
0104
FFFE
018C
0190
0180
0180
0180
0180
0F80
0300
ENDCHAR
STARTCHAR 4E89
ENCODING 20105
SWIDTH 960 0
DWIDTH 16 0
BBX 16 16 0 -2
BITMAP
0640
07E0
0CC0
0898
3FFC
0198
0198
FFFE
0198
0198
3FF8
0198
0180
0180
0F80
0300
ENDCHAR
STARTCHAR 4E8A
ENCODING 20106
SWIDTH 960 0
DWIDTH 16 0
BBX 16 16 0 -2
BITMAP
01C0
018C
FFFE
09B0
0DA0
3FF8
0198
019C
FFFE
0198
0198
3FF8
0198
0180
0780
0300
ENDCHAR
STARTCHAR 4E8B
ENCODING 20107
SWIDTH 960 0
DWIDTH 16 0
BBX 16 16 0 -2
BITMAP
0184
FFFE
0180
3FF8
3198
3FF8
0180
7FFC
018C
FFFE
018C
7FFC
018C
0180
0F80
0300
ENDCHAR
STARTCHAR 4E8C
ENCODING 20108
SWIDTH 960 0
DWIDTH 16 0
BBX 16 16 0 -2
BITMAP
0000
0000
0030
3FF8
0000
0000
0000
0000
0000
0000
0000
000C
FFFE
0000
0000
0000
ENDCHAR
STARTCHAR 4E8E
ENCODING 20110
SWIDTH 960 0
DWIDTH 16 0
BBX 16 16 0 -2
BITMAP
0018
7FFC
0180
0180
0180
018C
FFFE
0180
0180
0180
0180
0180
0180
0180
0F80
0300
ENDCHAR
STARTCHAR 4E91
ENCODING 20113
SWIDTH 960 0
DWIDTH 16 0
BBX 16 16 0 -2
BITMAP
0030
3FF8
0000
0000
0000
000C
FFFE
0300
0300
0620
0410
0C18
0BF8
FF0C
780C
0000
ENDCHAR
STARTCHAR 4E92
ENCODING 20114
SWIDTH 960 0
DWIDTH 16 0
BBX 16 16 0 -2
BITMAP
0018
7FFC
0600
0600
0C30
0FF8
0C30
0C30
0C30
1FF0
1830
1860
0060
006C
FFFE
0000
ENDCHAR
STARTCHAR 4E94
ENCODING 20116
SWIDTH 960 0
DWIDTH 16 0
BBX 16 16 0 -2
BITMAP
0018
7FFC
0300
0300
0300
0600
0630
3FF8
0630
0630
0630
0C30
0C30
0C34
FFFE
0000
ENDCHAR
STARTCHAR 4E95
ENCODING 20117
SWIDTH 960 0
DWIDTH 16 0
BBX 16 16 0 -2
BITMAP
0E70
0C60
0C60
0C68
7FFC
0C60
0C60
0C60
0C6C
FFFE
0C60
0C60
0860
1860
1060
6060
ENDCHAR
STARTCHAR 4E98
ENCODING 20120
SWIDTH 960 0
DWIDTH 16 0
BBX 16 16 0 -2
BITMAP
0018
7FFC
0000
1030
1FF8
1830
1830
1FF0
1830
1830
1830
1FF0
1830
000C
FFFE
0000
ENDCHAR
STARTCHAR 4E99
ENCODING 20121
SWIDTH 960 0
DWIDTH 16 0
BBX 16 16 0 -2
BITMAP
0018
7FFC
0600
0630
07F8
0C30
0F30
0DB0
0DB0
1860
1E60
1B60
0360
006C
FFFE
0000
ENDCHAR
STARTCHAR 4E9B
ENCODING 20123
SWIDTH 960 0
DWIDTH 16 0
BBX 16 16 0 -2
BITMAP
0EE0
0CCC
6CDC
6FF0
6CC4
6CC4
6FC6
7CFE
F07C
C000
0030
3FF8
0000
000C
FFFE
0000
ENDCHAR
STARTCHAR 4E9C
ENCODING 20124
SWIDTH 960 0
DWIDTH 16 0
BBX 16 16 0 -2
BITMAP
0018
7FFC
06C0
06C0
46CC
7FFE
66CC
66CC
66CC
7FFC
66CC
06C0
06C0
06CC
FFFE
0000
ENDCHAR
STARTCHAR 4E9E
ENCODING 20126
SWIDTH 960 0
DWIDTH 16 0
BBX 16 16 0 -2
BITMAP
0018
7FFC
06C0
06C0
46C4
7EFE
66CC
600C
600C
668C
7EFC
66CC
06C0
06CC
FFFE
0000
ENDCHAR
STARTCHAR 4E9F
ENCODING 20127
SWIDTH 960 0
DWIDTH 16 0
BBX 16 16 0 -2
BITMAP
0018
7FFC
0600
0600
0C80
0FC8
41FC
7DAC
65A8
6598
7DBC
61AE
0744
030C
FFFE
0000
ENDCHAR
STARTCHAR 4EA0
ENCODING 20128
SWIDTH 960 0
DWIDTH 16 0
BBX 16 16 0 -2
BITMAP
0000
0000
0000
0000
01C0
0180
0180
0180
018C
FFFE
0000
0000
0000
0000
0000
0000
ENDCHAR
STARTCHAR 4EA1
ENCODING 20129
SWIDTH 960 0
DWIDTH 16 0
BBX 16 16 0 -2
BITMAP
01C0
0180
0180
018C
FFFE
1800
1800
1800
1800
1800
1800
1800
1800
1FF8
0FF8
0000
ENDCHAR
STARTCHAR 4EA2
ENCODING 20130
SWIDTH 960 0
DWIDTH 16 0
BBX 16 16 0 -2
BITMAP
01C0
018C
FFFE
0000
0860
0FF0
0C60
0C60
0C60
0C60
0C60
0C64
1864
1866
307E
C03C
ENDCHAR
STARTCHAR 4EA4
ENCODING 20132
SWIDTH 960 0
DWIDTH 16 0
BBX 16 16 0 -2
BITMAP
01C0
018C
FFFE
0400
0E60
0C18
1C5C
346C
4260
03C0
0180
03C0
0670
0C3E
300C
C004
ENDCHAR
STARTCHAR 4EA5
ENCODING 20133
SWIDTH 960 0
DWIDTH 16 0
BBX 16 16 0 -2
BITMAP
01C0
018C
FFFE
0200
0740
26E0
18C8
0D9C
0718
0E30
1860
60E0
01D0
0718
180C
E00C
ENDCHAR
STARTCHAR 4EA6
ENCODING 20134
SWIDTH 960 0
DWIDTH 16 0
BBX 16 16 0 -2
BITMAP
01C0
0180
018C
FFFE
0660
2660
3670
3668
266C
6666
4666
8C60
0C60
1860
11E0
60C0
ENDCHAR
STARTCHAR 4EA8
ENCODING 20136
SWIDTH 960 0
DWIDTH 16 0
BBX 16 16 0 -2
BITMAP
0184
FFFE
0000
1FF0
1830
1830
1FF0
0018
7FFC
0030
0140
0180
0180
0180
0F80
0300
ENDCHAR
STARTCHAR 4EAB
ENCODING 20139
SWIDTH 960 0
DWIDTH 16 0
BBX 16 16 0 -2
BITMAP
0184
FFFE
0000
1FF0
1830
1830
1FF0
0018
7FFC
0030
014C
FFFE
0180
0180
0F80
0300
ENDCHAR
STARTCHAR 4EAC
ENCODING 20140
SWIDTH 960 0
DWIDTH 16 0
BBX 16 16 0 -2
BITMAP
01C0
018C
FFFE
0000
1FF8
1818
1818
1818
1FF8
0198
1980
1998
318C
2186
C786
0300
ENDCHAR
STARTCHAR 4EAD
ENCODING 20141
SWIDTH 960 0
DWIDTH 16 0
BBX 16 16 0 -2
BITMAP
0188
7FFC
0000
1FF0
1830
1830
1FF0
4004
7FFE
C00C
DFF8
0180
0180
0180
0F80
0300
ENDCHAR
STARTCHAR 4EAE
ENCODING 20142
SWIDTH 960 0
DWIDTH 16 0
BBX 16 16 0 -2
BITMAP
01C0
018C
FFFE
0000
0FF0
0C30
0FF0
400C
7FFE
C00C
CEF0
0CC4
0CC4
18C6
30FE
C07C
ENDCHAR
STARTCHAR 4EB0
ENCODING 20144
SWIDTH 960 0
DWIDTH 16 0
BBX 16 16 0 -2
BITMAP
01C0
018C
FFFE
1010
1FF8
1830
1830
1FF0
1830
1830
1FF0
0980
0DB8
198C
338C
4100
ENDCHAR
STARTCHAR 4EB3
ENCODING 20147
SWIDTH 960 0
DWIDTH 16 0
BBX 16 16 0 -2
BITMAP
0184
FFFE
0000
1FF0
1830
1FF0
4004
7FFE
C006
C0E8
1FF0
0310
7FFC
0304
03FE
01FC
ENDCHAR
STARTCHAR 4EB6
ENCODING 20150
SWIDTH 960 0
DWIDTH 16 0
BBX 16 16 0 -2
BITMAP
0184
FFFE
0000
3FF8
3458
37D8
3FF8
0000
1FF0
1830
1FF0
1830
1FF0
000C
FFFE
0000
ENDCHAR
STARTCHAR 4EBA
ENCODING 20154
SWIDTH 960 0
DWIDTH 16 0
BBX 16 16 0 -2
BITMAP
01C0
0180
0180
0180
0180
0180
0180
0340
0340
0340
0620
0630
0C10
181E
300C
C004
ENDCHAR
STARTCHAR 4EC0
ENCODING 20160
SWIDTH 960 0
DWIDTH 16 0
BBX 16 16 0 -2
BITMAP
0870
0C60
0C60
1860
1860
306C
37FE
7060
B060
3060
3060
3060
3060
3060
3060
3060
ENDCHAR
STARTCHAR 4EC1
ENCODING 20161
SWIDTH 960 0
DWIDTH 16 0
BBX 16 16 0 -2
BITMAP
0400
0600
0E18
0DFC
1800
1800
3800
5800
9800
1800
1800
1800
180C
1BFE
1800
1800
ENDCHAR
STARTCHAR 4EC2
ENCODING 20162
SWIDTH 960 0
DWIDTH 16 0
BBX 16 16 0 -2
BITMAP
08E0
0CC0
1CC0
18C0
18CC
3FFE
38CC
58CC
98CC
18CC
18CC
198C
198C
193C
1A18
1C10
ENDCHAR
STARTCHAR 4EC4
ENCODING 20164
SWIDTH 960 0
DWIDTH 16 0
BBX 16 16 0 -2
BITMAP
200C
3FFE
3000
30E0
30C0
30C0
30C0
30C0
30C0
31E0
31A0
21B0
6318
621E
440C
9804
ENDCHAR
STARTCHAR 4EC6
ENCODING 20166
SWIDTH 960 0
DWIDTH 16 0
BBX 16 16 0 -2
BITMAP
04E0
06C0
0EC0
0CC0
1CC0
18E0
38D8
58CC
98C6
18C6
18C0
18C0
18C0
18C0
18C0
18C0
ENDCHAR
STARTCHAR 4EC7
ENCODING 20167
SWIDTH 960 0
DWIDTH 16 0
BBX 16 16 0 -2
BITMAP
11C0
1980
1980
39B0
37F8
31B0
71B0
71B0
B1B0
31B0
3330
3330
3334
3634
343E
381C
ENDCHAR
STARTCHAR 4ECA
ENCODING 20170
SWIDTH 960 0
DWIDTH 16 0
BBX 16 16 0 -2
BITMAP
0180
0180
0340
0660
0C38
185E
37EC
C004
0030
7FF8
0030
0060
0060
00C0
0180
0180
ENDCHAR
STARTCHAR 4ECB
ENCODING 20171
SWIDTH 960 0
DWIDTH 16 0
BBX 16 16 0 -2
BITMAP
0300
0300
0680
0C40
1870
303E
CE7C
0C64
0C60
0C60
0C60
0C60
0860
1860
1060
6060
ENDCHAR
STARTCHAR 4ECD
ENCODING 20173
SWIDTH 960 0
DWIDTH 16 0
BBX 16 16 0 -2
BITMAP
1008
1FFC
1B18
3318
3318
7330
7334
B33E
332C
330C
320C
360C
3618
3418
3878
3010
ENDCHAR
STARTCHAR 4ECE
ENCODING 20174
SWIDTH 960 0
DWIDTH 16 0
BBX 16 16 0 -2
BITMAP
1C70
1860
1860
1860
1860
1860
1860
1860
1870
1CD0
36D0
3698
2198
410E
820C
0C04
ENDCHAR
STARTCHAR 4ECF
ENCODING 20175
SWIDTH 960 0
DWIDTH 16 0
BBX 16 16 0 -2
BITMAP
0440
0E60
0C60
0C60
1860
18C0
38C0
38D0
5888
9888
198C
1904
193E
1FE6
1B86
1A00
ENDCHAR
STARTCHAR 4ED4
ENCODING 20180
SWIDTH 960 0
DWIDTH 16 0
BBX 16 16 0 -2
BITMAP
0804
0DFE
0C0C
1808
1850
3060
306C
77FE
B060
3060
3060
3060
3060
3060
33E0
30C0
ENDCHAR
STARTCHAR 4ED5
ENCODING 20181
SWIDTH 960 0
DWIDTH 16 0
BBX 16 16 0 -2
BITMAP
0870
0C60
0C60
1860
186C
37FE
3060
7060
B060
3060
3060
3060
3060
3068
37FC
3000
ENDCHAR
STARTCHAR 4ED6
ENCODING 20182
SWIDTH 960 0
DWIDTH 16 0
BBX 16 16 0 -2
BITMAP
1070
1B60
1B60
336C
337E
73EC
7F6C
B36C
337C
336C
3360
3364
3304
3306
33FE
31FC
ENDCHAR
STARTCHAR 4ED7
ENCODING 20183
SWIDTH 960 0
DWIDTH 16 0
BBX 16 16 0 -2
BITMAP
1070
1860
1860
306C
37FE
7060
7260
B260
3260
3160
31C0
30C0
30C0
3170
323E
3C0C
ENDCHAR
STARTCHAR 4ED8
ENCODING 20184
SWIDTH 960 0
DWIDTH 16 0
BBX 16 16 0 -2
BITMAP
101C
1818
1818
301C
37FE
7018
7218
B318
3198
3198
3018
3018
3018
3018
30F8
3030
ENDCHAR
STARTCHAR 4ED9
ENCODING 20185
SWIDTH 960 0
DWIDTH 16 0
BBX 16 16 0 -2
BITMAP
0870
0C60
1C60
1860
3766
3666
7666
B666
3666
3666
3666
3666
3666
3666
37FE
3606
ENDCHAR
STARTCHAR 4EDD
ENCODING 20189
SWIDTH 960 0
DWIDTH 16 0
BBX 16 16 0 -2
BITMAP
0100
0300
0380
0640
0C60
1830
301E
C02C
3FF4
0300
0300
0300
0300
030C
FFFE
0000
ENDCHAR
STARTCHAR 4EDE
ENCODING 20190
SWIDTH 960 0
DWIDTH 16 0
BBX 16 16 0 -2
BITMAP
1000
180C
1BFE
30CC
30CC
72CC
72CC
B6CC
36CC
318C
318C
3118
3318
3218
3470
3830
ENDCHAR
STARTCHAR 4EDF
ENCODING 20191
SWIDTH 960 0
DWIDTH 16 0
BBX 16 16 0 -2
BITMAP
1018
187C
1BF0
1860
3060
3060
706C
7FFE
B060
3060
3060
3060
3060
3060
3060
3060
ENDCHAR
STARTCHAR 4EE3
ENCODING 20195
SWIDTH 960 0
DWIDTH 16 0
BBX 16 16 0 -2
BITMAP
08E0
0CD0
1CD8
18D8
30CC
3FFE
70C0
B0C0
30C0
3060
3060
3060
3034
3034
301E
300E
ENDCHAR
STARTCHAR 4EE4
ENCODING 20196
SWIDTH 960 0
DWIDTH 16 0
BBX 16 16 0 -2
BITMAP
0180
0380
0340
0660
0C30
185E
37EC
C004
0018
3FFC
0318
0318
0318
0378
0330
0300
ENDCHAR
STARTCHAR 4EE5
ENCODING 20197
SWIDTH 960 0
DWIDTH 16 0
BBX 16 16 0 -2
BITMAP
381C
3018
3618
3318
3198
3198
3018
3018
3018
3010
3130
3630
386C
F046
C086
0300
ENDCHAR
STARTCHAR 4EED
ENCODING 20205
SWIDTH 960 0
DWIDTH 16 0
BBX 16 16 0 -2
BITMAP
1000
180C
1BFE
30CC
34CC
74CC
72CC
B3CC
318C
31CC
317C
313E
331C
3218
3470
3830
ENDCHAR
STARTCHAR 4EEE
ENCODING 20206
SWIDTH 960 0
DWIDTH 16 0
BBX 16 16 0 -2
BITMAP
1218
1BFC
1B00
3B00
3318
73FC
7318
B398
3398
3358
3370
3270
3630
347E
38CC
3304
ENDCHAR
STARTCHAR 4EF0
ENCODING 20208
SWIDTH 960 0
DWIDTH 16 0
BBX 16 16 0 -2
BITMAP
11C6
1DFE
1F66
3666
3666
7666
7666
B666
3666
3666
37E6
3F7E
346C
3060
3060
3060
ENDCHAR
STARTCHAR 4EF2
ENCODING 20210
SWIDTH 960 0
DWIDTH 16 0
BBX 16 16 0 -2
BITMAP
1070
1860
1860
3466
37FE
7666
7666
B666
3666
37FE
3666
3060
3060
3060
3060
3060
ENDCHAR
STARTCHAR 4EF6
ENCODING 20214
SWIDTH 960 0
DWIDTH 16 0
BBX 16 16 0 -2
BITMAP
1070
1B60
1B60
3268
37FC
7460
7860
B060
306C
3FFE
3060
3060
3060
3060
3060
3060
ENDCHAR
STARTCHAR 4EF7
ENCODING 20215
SWIDTH 960 0
DWIDTH 16 0
BBX 16 16 0 -2
BITMAP
10C0
18C0
19E0
31B0
3318
720E
759C
B998
3198
3198
3198
3198
3318
3318
3618
3818
ENDCHAR
STARTCHAR 4EFB
ENCODING 20219
SWIDTH 960 0
DWIDTH 16 0
BBX 16 16 0 -2
BITMAP
1018
18FC
1FC0
30C0
30C0
70C0
70CC
BFFE
30C0
30C0
30C0
30C0
30C0
30D8
37FC
3000
ENDCHAR
STARTCHAR 4F01
ENCODING 20225
SWIDTH 960 0
DWIDTH 16 0
BBX 16 16 0 -2
BITMAP
0180
0180
0340
0660
0C30
19DE
E18C
0184
1DB0
19F8
1980
1980
1980
198C
FFFE
0000
ENDCHAR
STARTCHAR 4F09
ENCODING 20233
SWIDTH 960 0
DWIDTH 16 0
BBX 16 16 0 -2
BITMAP
10E0
18C0
38CC
37FE
3000
7230
73F8
B330
3330
3330
3330
3334
3234
3636
343E
381C
ENDCHAR
STARTCHAR 4F0A
ENCODING 20234
SWIDTH 960 0
DWIDTH 16 0
BBX 16 16 0 -2
BITMAP
100C
1BFC
18CC
38CC
37FE
30CC
70CC
70CC
B3FC
30CC
30C0
30C0
3080
3180
3100
3600
ENDCHAR
STARTCHAR 4F0D
ENCODING 20237
SWIDTH 960 0
DWIDTH 16 0
BBX 16 16 0 -2
BITMAP
1018
1FFC
18C0
38C0
30C0
3198
77FC
7198
B198
3198
3198
3318
3318
331C
3FFE
3000
ENDCHAR
STARTCHAR 4F0E
ENCODING 20238
SWIDTH 960 0
DWIDTH 16 0
BBX 16 16 0 -2
BITMAP
10E0
18C0
18CC
1FFE
30C0
30C0
70D8
77FC
B118
3118
30B0
30B0
3060
30FE
319C
3604
ENDCHAR
STARTCHAR 4F0F
ENCODING 20239
SWIDTH 960 0
DWIDTH 16 0
BBX 16 16 0 -2
BITMAP
10E0
18D0
18D8
30D8
30C4
7FFE
70C0
B0C0
31A0
31A0
31B0
3110
3318
320E
340C
3804
ENDCHAR
STARTCHAR 4F10
ENCODING 20240
SWIDTH 960 0
DWIDTH 16 0
BBX 16 16 0 -2
BITMAP
08E0
0CD8
18D8
18C4
30FE
3FC0
70C8
B06C
306C
3078
3030
3072
30FA
319C
360E
3006
ENDCHAR
STARTCHAR 4F11
ENCODING 20241
SWIDTH 960 0
DWIDTH 16 0
BBX 16 16 0 -2
BITMAP
10E0
18C0
18C0
30CC
3FFE
71C0
71E0
B3E0
33F0
32D0
36D8
34CE
38CC
30C4
30C0
30C0
ENDCHAR
STARTCHAR 4F1A
ENCODING 20250
SWIDTH 960 0
DWIDTH 16 0
BBX 16 16 0 -2
BITMAP
0300
0300
0680
0C40
1870
30BE
DFEC
0004
0018
7FFC
0300
0620
0410
09F8
7F0C
780C
ENDCHAR
STARTCHAR 4F1C
ENCODING 20252
SWIDTH 960 0
DWIDTH 16 0
BBX 16 16 0 -2
BITMAP
10C0
18C8
1FFC
30DA
319C
719E
730E
BCE0
30C0
30CC
3FFE
30C0
30C0
30C0
30C0
30C0
ENDCHAR
STARTCHAR 4F1D
ENCODING 20253
SWIDTH 960 0
DWIDTH 16 0
BBX 16 16 0 -2
BITMAP
0800
0C18
1FFC
1800
3000
300C
77FE
B0C0
30C0
3080
3190
3108
310C
3FFE
3786
3200
ENDCHAR
STARTCHAR 4F2F
ENCODING 20271
SWIDTH 960 0
DWIDTH 16 0
BBX 16 16 0 -2
BITMAP
1060
1C60
1AC6
33FE
3306
7306
7306
B306
33FE
3306
3306
3306
3306
3306
33FE
3306
ENDCHAR
STARTCHAR 4F30
ENCODING 20272
SWIDTH 960 0
DWIDTH 16 0
BBX 16 16 0 -2
BITMAP
1070
1860
1860
306C
3FFE
7060
7060
B060
326C
33FE
330C
330C
330C
330C
33FC
330C
ENDCHAR
STARTCHAR 4F34
ENCODING 20276
SWIDTH 960 0
DWIDTH 16 0
BBX 16 16 0 -2
BITMAP
1070
1A68
1B6C
337C
3170
7068
77FC
B060
3060
306C
3FFE
3060
3060
3060
3060
3060
ENDCHAR
STARTCHAR 4F36
ENCODING 20278
SWIDTH 960 0
DWIDTH 16 0
BBX 16 16 0 -2
BITMAP
10C0
18C0
19A0
31B0
331E
36EC
7804
700C
B7FE
30CC
30CC
30CC
30DC
30D8
30C0
30C0
ENDCHAR
STARTCHAR 4F38
ENCODING 20280
SWIDTH 960 0
DWIDTH 16 0
BBX 16 16 0 -2
BITMAP
1070
1860
1866
3FFE
3666
3666
77FE
7666
B666
3666
37FE
3666
3060
3060
3060
3060
ENDCHAR
STARTCHAR 4F3A
ENCODING 20282
SWIDTH 960 0
DWIDTH 16 0
BBX 16 16 0 -2
BITMAP
1006
1FFE
1806
3826
37F6
7006
7226
B3F6
3366
3366
3366
33E6
3366
3006
301E
300C
ENDCHAR
STARTCHAR 4F3C
ENCODING 20284
SWIDTH 960 0
DWIDTH 16 0
BBX 16 16 0 -2
BITMAP
0800
0F9C
1B18
1B98
3358
3378
7358
B318
3318
3338
3358
33B8
3734
3E66
3446
3186
ENDCHAR
STARTCHAR 4F3D
ENCODING 20285
SWIDTH 960 0
DWIDTH 16 0
BBX 16 16 0 -2
BITMAP
1380
1B00
3B00
3356
3FFE
76D6
76D6
B6D6
36D6
36D6
36D6
36D6
34D6
34DE
3B96
3180
ENDCHAR
STARTCHAR 4F43
ENCODING 20291
SWIDTH 960 0
DWIDTH 16 0
BBX 16 16 0 -2
BITMAP
1000
1C06
1FFE
3666
3666
3666
7666
77FE
B666
3666
3666
3666
3666
37FE
3606
3000
ENDCHAR
STARTCHAR 4F46
ENCODING 20294
SWIDTH 960 0
DWIDTH 16 0
BBX 16 16 0 -2
BITMAP
1218
1BFC
1B18
3318
3318
7318
73F8
B318
3318
3318
3318
33F8
3318
300C
3FFE
3000
ENDCHAR
STARTCHAR 4F47
ENCODING 20295
SWIDTH 960 0
DWIDTH 16 0
BBX 16 16 0 -2
BITMAP
1070
1860
1A64
33FE
3606
7608
700C
B7FE
3030
3030
3030
3030
3030
3030
30F0
3060
ENDCHAR
STARTCHAR 4F4D
ENCODING 20301
SWIDTH 960 0
DWIDTH 16 0
BBX 16 16 0 -2
BITMAP
10E0
18C0
18C0
38CC
37FE
3008
720C
720C
B308
3118
3198
3190
31B0
3024
3FFE
3000
ENDCHAR
STARTCHAR 4F4E
ENCODING 20302
SWIDTH 960 0
DWIDTH 16 0
BBX 16 16 0 -2
BITMAP
1008
1A3C
1BF0
3330
3330
7334
73FE
B330
3330
3318
331A
3FDA
370C
302E
37F6
3000
ENDCHAR
STARTCHAR 4F4F
ENCODING 20303
SWIDTH 960 0
DWIDTH 16 0
BBX 16 16 0 -2
BITMAP
08C0
0C60
1C60
180C
37FE
3060
7060
B060
3068
37FC
3060
3060
3060
306C
3FFE
3000
ENDCHAR
STARTCHAR 4F50
ENCODING 20304
SWIDTH 960 0
DWIDTH 16 0
BBX 16 16 0 -2
BITMAP
10E0
18C0
18C0
30CC
3FFE
7180
7180
B300
3218
35FC
3860
3060
3060
306C
37FE
3000
ENDCHAR
STARTCHAR 4F51
ENCODING 20305
SWIDTH 960 0
DWIDTH 16 0
BBX 16 16 0 -2
BITMAP
10E0
18C0
18C0
30CC
3FFE
7180
7180
B300
330C
37FE
398C
318C
318C
318C
31FC
318C
ENDCHAR
STARTCHAR 4F53
ENCODING 20307
SWIDTH 960 0
DWIDTH 16 0
BBX 16 16 0 -2
BITMAP
10E0
18C0
18C0
30CC
3FFE
71E0
71E0
B3D0
32D0
36D8
34CE
3FFC
30C4
30C0
30C0
30C0
ENDCHAR
STARTCHAR 4F55
ENCODING 20309
SWIDTH 960 0
DWIDTH 16 0
BBX 16 16 0 -2
BITMAP
1000
180C
1FFE
300C
346C
77EC
766C
B66C
366C
37EC
366C
360C
300C
300C
307C
3018
ENDCHAR
STARTCHAR 4F57
ENCODING 20311
SWIDTH 960 0
DWIDTH 16 0
BBX 16 16 0 -2
BITMAP
1070
1860
1A64
33FE
3606
7788
7180
B18C
31BC
31F0
3180
3184
3184
3186
31FE
30FC
ENDCHAR
STARTCHAR 4F59
ENCODING 20313
SWIDTH 960 0
DWIDTH 16 0
BBX 16 16 0 -2
BITMAP
0180
0380
0340
0660
0C30
185E
37EC
C184
0198
7FFC
0980
1DB0
1998
318C
478C
0300
ENDCHAR
STARTCHAR 4F5A
ENCODING 20314
SWIDTH 960 0
DWIDTH 16 0
BBX 16 16 0 -2
BITMAP
1070
1B60
1B68
33FC
3660
7C60
706C
BFFE
3060
3060
30D0
30D0
3198
330E
360C
3804
ENDCHAR
STARTCHAR 4F5B
ENCODING 20315
SWIDTH 960 0
DWIDTH 16 0
BBX 16 16 0 -2
BITMAP
11B0
19B4
1FFE
39B4
35B4
77FC
75B0
B5B4
37FE
35B6
31B6
31B6
333C
3334
3630
3830
ENDCHAR
STARTCHAR 4F5C
ENCODING 20316
SWIDTH 960 0
DWIDTH 16 0
BBX 16 16 0 -2
BITMAP
0880
0CC0
19C0
198C
33FE
32C0
76C0
B8D8
30FC
30C0
30C0
30D8
30FC
30C0
30C0
30C0
ENDCHAR
STARTCHAR 4F5D
ENCODING 20317
SWIDTH 960 0
DWIDTH 16 0
BBX 16 16 0 -2
BITMAP
1180
1980
1B0C
33FE
360C
7A2C
73FC
B36C
336C
336C
33EC
336C
300C
3018
3078
3030
ENDCHAR
STARTCHAR 4F5E
ENCODING 20318
SWIDTH 960 0
DWIDTH 16 0
BBX 16 16 0 -2
BITMAP
1030
1BF8
1800
300C
3FFE
7000
70C0
B0C4
3FFE
3198
3330
33B0
3070
30D8
318E
3E06
ENDCHAR
STARTCHAR 4F69
ENCODING 20329
SWIDTH 960 0
DWIDTH 16 0
BBX 16 16 0 -2
BITMAP
1404
1FFE
3E0C
360C
37FC
764C
764C
B7FC
375C
375C
375C
375E
355C
395E
3846
3046
ENDCHAR
STARTCHAR 4F6F
ENCODING 20335
SWIDTH 960 0
DWIDTH 16 0
BBX 16 16 0 -2
BITMAP
1218
1998
19A8
37FC
3060
7068
73F8
B060
3060
3064
37FE
3060
3060
3060
3060
3060
ENDCHAR
STARTCHAR 4F70
ENCODING 20336
SWIDTH 960 0
DWIDTH 16 0
BBX 16 16 0 -2
BITMAP
1004
1FFE
1860
30C0
328C
73FE
730C
B30C
330C
33FC
330C
330C
330C
330C
33FC
330C
ENDCHAR
STARTCHAR 4F73
ENCODING 20339
SWIDTH 960 0
DWIDTH 16 0
BBX 16 16 0 -2
BITMAP
1060
1868
1BFC
3860
3060
706C
77FE
B000
3060
3068
37FC
3060
3060
306C
37FE
3000
ENDCHAR
STARTCHAR 4F75
ENCODING 20341
SWIDTH 960 0
DWIDTH 16 0
BBX 16 16 0 -2
BITMAP
1118
1998
19B0
37FC
3198
7198
7198
B19C
3FFE
3198
3198
3198
3118
3318
3218
3C18
ENDCHAR
STARTCHAR 4F76
ENCODING 20342
SWIDTH 960 0
DWIDTH 16 0
BBX 16 16 0 -2
BITMAP
10E0
18C0
38CC
3FFE
30C0
70C0
70D8
B7FC
3000
3218
33FC
3318
3318
3318
33F8
3318
ENDCHAR
STARTCHAR 4F7B
ENCODING 20347
SWIDTH 960 0
DWIDTH 16 0
BBX 16 16 0 -2
BITMAP
11B8
19B0
19B0
31B4
3DBC
77B8
73B0
B1B0
37B8
3DBC
35B4
31B0
3334
3334
363E
381C
ENDCHAR
STARTCHAR 4F7C
ENCODING 20348
SWIDTH 960 0
DWIDTH 16 0
BBX 16 16 0 -2
BITMAP
1070
1860
386C
37FE
3080
71B8
718C
B32C
34B0
30B0
3060
3060
30F0
319E
330C
3C04
ENDCHAR
STARTCHAR 4F7F
ENCODING 20351
SWIDTH 960 0
DWIDTH 16 0
BBX 16 16 0 -2
BITMAP
10E0
18CC
1FFE
38C0
34CC
77FE
76CC
B6CC
37FC
32CC
31C0
30C0
31E0
31BE
331C
3C04
ENDCHAR
STARTCHAR 4F83
ENCODING 20355
SWIDTH 960 0
DWIDTH 16 0
BBX 16 16 0 -2
BITMAP
1218
1BFC
1B1C
3B18
3318
7318
73F8
B000
335C
3358
3358
3358
335A
365A
365E
380E
ENDCHAR
STARTCHAR 4F86
ENCODING 20358
SWIDTH 960 0
DWIDTH 16 0
BBX 16 16 0 -2
BITMAP
01C0
018C
FFFE
0180
19B0
19B0
19B0
37AC
27CC
43C0
07A0
0DB8
199E
318C
C184
0180
ENDCHAR
STARTCHAR 4F88
ENCODING 20360
SWIDTH 960 0
DWIDTH 16 0
BBX 16 16 0 -2
BITMAP
10C8
18FC
198C
33D8
3470
7060
70C0
B1E4
367E
30CC
31EC
3238
3030
3060
30C0
3700
ENDCHAR
STARTCHAR 4F8B
ENCODING 20363
SWIDTH 960 0
DWIDTH 16 0
BBX 16 16 0 -2
BITMAP
1046
1FE6
3B16
3316
3356
73F6
72D6
B6D6
37D6
3896
3196
3116
3316
3206
341E
380C
ENDCHAR
STARTCHAR 4F8D
ENCODING 20365
SWIDTH 960 0
DWIDTH 16 0
BBX 16 16 0 -2
BITMAP
10E0
18C0
18D8
3FFC
30C0
30CC
7FFE
7018
B018
37FE
3318
3198
3198
3018
30F8
3030
ENDCHAR
STARTCHAR 4F8F
ENCODING 20367
SWIDTH 960 0
DWIDTH 16 0
BBX 16 16 0 -2
BITMAP
1070
1B60
1B68
33FC
3660
7C60
706C
BFFE
30E0
31F0
31F0
336E
366C
3864
3060
3060
ENDCHAR
STARTCHAR 4F91
ENCODING 20369
SWIDTH 960 0
DWIDTH 16 0
BBX 16 16 0 -2
BITMAP
1060
1864
1FFE
30C0
3184
73FE
738C
B58C
39FC
318C
318C
31FC
318C
318C
319C
318C
ENDCHAR
STARTCHAR 4F96
ENCODING 20374
SWIDTH 960 0
DWIDTH 16 0
BBX 16 16 0 -2
BITMAP
0100
0380
0740
0E60
1838
3FFE
C00C
2018
3FFC
36D8
36D8
3FF8
36D8
36D8
36F8
36D0
ENDCHAR
STARTCHAR 4F98
ENCODING 20376
SWIDTH 960 0
DWIDTH 16 0
BBX 16 16 0 -2
BITMAP
1070
1860
3A64
37FE
3606
7068
70F8
B7C0
30C0
30CC
3FFE
30C0
30C4
30C4
30FE
307C
ENDCHAR
STARTCHAR 4F9B
ENCODING 20379
SWIDTH 960 0
DWIDTH 16 0
BBX 16 16 0 -2
BITMAP
11B0
19B0
19B0
31B0
3FFC
71B0
71B0
B1B0
31B4
3FFE
3000
3320
3310
3618
340C
380C
ENDCHAR
STARTCHAR 4F9D
ENCODING 20381
SWIDTH 960 0
DWIDTH 16 0
BBX 16 16 0 -2
BITMAP
10E0
18C0
18CC
3FFE
30C0
71C0
718C
B34C
3758
3B60
3320
3330
3330
33DE
3F0C
3604
ENDCHAR
STARTCHAR 4FA0
ENCODING 20384
SWIDTH 960 0
DWIDTH 16 0
BBX 16 16 0 -2
BITMAP
10E0
1CC0
18D8
1FFC
30C0
34D8
76D8
B6D0
30E4
3FFE
30A0
31B0
3198
331E
320C
3C04
ENDCHAR
STARTCHAR 4FA1
ENCODING 20385
SWIDTH 960 0
DWIDTH 16 0
BBX 16 16 0 -2
BITMAP
100C
1FFE
19B0
39B0
35B4
77FE
76AC
B6AC
36AC
36AC
36AC
36AC
36AC
37FC
360C
3000
ENDCHAR
STARTCHAR 4FAB
ENCODING 20395
SWIDTH 960 0
DWIDTH 16 0
BBX 16 16 0 -2
BITMAP
1070
1864
1FFE
3300
3300
73FC
71FC
B000
30C4
3FFE
3198
3198
33F0
3070
30DC
370C
ENDCHAR
STARTCHAR 4FAD
ENCODING 20397
SWIDTH 960 0
DWIDTH 16 0
BBX 16 16 0 -2
BITMAP
1204
1BFE
1B0C
330C
33FC
732C
7320
B330
3310
32D8
366E
346C
3B04
30C0
3070
3030
ENDCHAR
STARTCHAR 4FAE
ENCODING 20398
SWIDTH 960 0
DWIDTH 16 0
BBX 16 16 0 -2
BITMAP
1180
198C
1BFE
3300
3618
7BFC
7358
B358
335C
3FFE
3698
3698
37FE
3630
30F0
3060
ENDCHAR
STARTCHAR 4FAF
ENCODING 20399
SWIDTH 960 0
DWIDTH 16 0
BBX 16 16 0 -2
BITMAP
1010
1BF8
3830
3034
3FFE
7180
7198
B3FC
34C0
30CC
3FFE
31A0
31B0
331E
360C
3804
ENDCHAR
STARTCHAR 4FB5
ENCODING 20405
SWIDTH 960 0
DWIDTH 16 0
BBX 16 16 0 -2
BITMAP
1008
1BFC
1818
3BF8
3018
73F8
7404
B7FE
3C14
3BF8
3130
30B0
3060
30FE
319C
3604
ENDCHAR
STARTCHAR 4FB6
ENCODING 20406
SWIDTH 960 0
DWIDTH 16 0
BBX 16 16 0 -2
BITMAP
090C
0DFE
198C
198C
318C
31FC
716C
7040
B2C6
33FE
3306
3306
3306
3306
33FE
3306
ENDCHAR
STARTCHAR 4FBF
ENCODING 20415
SWIDTH 960 0
DWIDTH 16 0
BBX 16 16 0 -2
BITMAP
100C
1FFE
1860
3BFC
336C
73FC
736C
B36C
33FC
316C
3160
30C0
30E0
31BE
331C
3C04
ENDCHAR
STARTCHAR 4FC2
ENCODING 20418
SWIDTH 960 0
DWIDTH 16 0
BBX 16 16 0 -2
BITMAP
1018
187C
1BE0
38D0
30D8
73B8
71E8
B0E4
3FFE
3766
3060
33F8
336C
3666
3866
3060
ENDCHAR
STARTCHAR 4FC3
ENCODING 20419
SWIDTH 960 0
DWIDTH 16 0
BBX 16 16 0 -2
BITMAP
120C
1BFE
1B0C
3B0C
330C
73FC
736C
B060
3060
3368
337C
3360
3360
3760
35FE
38FC
ENDCHAR
STARTCHAR 4FC4
ENCODING 20420
SWIDTH 960 0
DWIDTH 16 0
BBX 16 16 0 -2
BITMAP
2160
33F8
3F6C
366C
6664
7FFE
6660
E66C
67EC
7E6C
6E78
6638
6634
667C
6EDE
6506
ENDCHAR
STARTCHAR 4FCA
ENCODING 20426
SWIDTH 960 0
DWIDTH 16 0
BBX 16 16 0 -2
BITMAP
10C0
18C8
198C
3FFE
37B4
71B0
733E
B61E
3990
31F8
3318
3CB0
3060
30FE
339C
3C04
ENDCHAR
STARTCHAR 4FCE
ENCODING 20430
SWIDTH 960 0
DWIDTH 16 0
BBX 16 16 0 -2
BITMAP
3108
31FC
3198
3198
2D98
6DF8
4598
8198
3198
3198
31F8
2D98
6D98
459C
8FFE
0000
ENDCHAR
STARTCHAR 4FD0
ENCODING 20432
SWIDTH 960 0
DWIDTH 16 0
BBX 16 16 0 -2
BITMAP
10C6
19E6
3F96
3196
3196
7FF6
7196
B3D6
37F6
35B6
3596
3996
3186
3186
318E
3184
ENDCHAR
STARTCHAR 4FD1
ENCODING 20433
SWIDTH 960 0
DWIDTH 16 0
BBX 16 16 0 -2
BITMAP
1008
1BFC
1818
39B0
34E4
37FE
76CC
76CC
B7FC
36CC
36CC
37FC
36CC
36CC
36DC
36C8
ENDCHAR
STARTCHAR 4FD4
ENCODING 20436
SWIDTH 960 0
DWIDTH 16 0
BBX 16 16 0 -2
BITMAP
1208
1BFC
1B18
3318
33F8
7318
7318
B3F8
3318
3318
33F8
31B0
31B4
3334
363E
381C
ENDCHAR
STARTCHAR 4FD7
ENCODING 20439
SWIDTH 960 0
DWIDTH 16 0
BBX 16 16 0 -2
BITMAP
1110
1988
1B0C
3266
34E6
78A0
7190
B31C
360E
3A04
33FC
3318
3318
3318
33F8
3318
ENDCHAR
STARTCHAR 4FD8
ENCODING 20440
SWIDTH 960 0
DWIDTH 16 0
BBX 16 16 0 -2
BITMAP
1070
1BFC
1948
336C
3636
77F8
7030
B020
306C
3FFE
3060
3060
3060
3060
31E0
3040
ENDCHAR
STARTCHAR 4FDA
ENCODING 20442
SWIDTH 960 0
DWIDTH 16 0
BBX 16 16 0 -2
BITMAP
1204
1BFE
3B6C
336C
33FC
736C
736C
B3FC
3060
3068
37FC
3060
3060
306C
3FFE
3000
ENDCHAR
STARTCHAR 4FDB
ENCODING 20443
SWIDTH 960 0
DWIDTH 16 0
BBX 16 16 0 -2
BITMAP
1180
19A0
1BF0
3A60
34C4
77FE
76CC
B6CC
36CC
37FC
31B0
31B0
31B4
3334
323E
3C1C
ENDCHAR
STARTCHAR 4FDD
ENCODING 20445
SWIDTH 960 0
DWIDTH 16 0
BBX 16 16 0 -2
BITMAP
1204
1BFE
1B0C
330C
330C
73FC
7060
B06C
37FE
30F0
31F8
3168
336E
366C
3864
3060
ENDCHAR
STARTCHAR 4FDF
ENCODING 20447
SWIDTH 960 0
DWIDTH 16 0
BBX 16 16 0 -2
BITMAP
10C0
18D0
1898
37FC
378C
7300
7310
B7F8
3CC0
30D8
3FFC
30C0
31B0
3318
360E
3804
ENDCHAR
STARTCHAR 4FE1
ENCODING 20449
SWIDTH 960 0
DWIDTH 16 0
BBX 16 16 0 -2
BITMAP
0808
0DFC
1C0C
1BFE
3000
3008
73FC
B008
33FC
3000
320C
33FE
330C
330C
33FC
330C
ENDCHAR
STARTCHAR 4FE3
ENCODING 20451
SWIDTH 960 0
DWIDTH 16 0
BBX 16 16 0 -2
BITMAP
1208
1BFC
1B18
3318
33F8
7008
77FC
B0C0
30CC
3FFE
30E0
31A0
3190
331E
360C
3804
ENDCHAR
STARTCHAR 4FE4
ENCODING 20452
SWIDTH 960 0
DWIDTH 16 0
BBX 16 16 0 -2
BITMAP
1110
1998
19B4
37FE
306C
726C
73FC
B360
3664
37FE
35E6
31E6
337C
366C
3860
3060
ENDCHAR
STARTCHAR 4FE5
ENCODING 20453
SWIDTH 960 0
DWIDTH 16 0
BBX 16 16 0 -2
BITMAP
1070
1868
1FFC
3060
3060
77FC
766C
B7FC
366C
37FC
3060
306C
3FFE
3060
3060
3060
ENDCHAR
STARTCHAR 4FEE
ENCODING 20462
SWIDTH 960 0
DWIDTH 16 0
BBX 16 16 0 -2
BITMAP
10C0
18CC
19FE
3398
3E98
6C70
6C60
EDDE
6F2C
6C74
6CC8
6FBC
6C76
6FCC
6038
63C0
ENDCHAR
STARTCHAR 4FEF
ENCODING 20463
SWIDTH 960 0
DWIDTH 16 0
BBX 16 16 0 -2
BITMAP
2060
3864
3FFE
3C00
2C8C
6CCC
6D8C
6DFE
EF8C
6DCC
6DEC
6DAC
698C
698C
719C
6188
ENDCHAR
STARTCHAR 4FF3
ENCODING 20467
SWIDTH 960 0
DWIDTH 16 0
BBX 16 16 0 -2
BITMAP
11B8
19B0
19B4
3FBE
31B0
71B0
77BC
B1B0
31B0
31B0
3FB4
3DBE
3130
3330
3630
3830
ENDCHAR
STARTCHAR 4FF5
ENCODING 20469
SWIDTH 960 0
DWIDTH 16 0
BBX 16 16 0 -2
BITMAP
10C0
18D8
1FFC
30C0
30D0
77F8
70C0
B0CC
3FFE
33CC
37AC
35B8
3990
31FE
37CC
3304
ENDCHAR
STARTCHAR 4FF6
ENCODING 20470
SWIDTH 960 0
DWIDTH 16 0
BBX 16 16 0 -2
BITMAP
1380
1B04
1B7E
33AC
332C
732C
7FEC
B32C
3B98
3FD8
3B58
3B38
332C
376C
3246
3084
ENDCHAR
STARTCHAR 4FF8
ENCODING 20472
SWIDTH 960 0
DWIDTH 16 0
BBX 16 16 0 -2
BITMAP
10E0
18C8
1FFC
38C8
37FC
70C4
7FFE
B1B0
331E
36CC
3BF4
30C0
30C8
37FC
30C0
30C0
ENDCHAR
STARTCHAR 4FFA
ENCODING 20474
SWIDTH 960 0
DWIDTH 16 0
BBX 16 16 0 -2
BITMAP
10C0
18CC
1FFE
38E0
31B0
73DE
7ECC
B7FC
36D8
37F8
36D8
37F8
36DC
30C6
30FE
307C
ENDCHAR
STARTCHAR 4FFE
ENCODING 20478
SWIDTH 960 0
DWIDTH 16 0
BBX 16 16 0 -2
BITMAP
10E0
18C4
1FFE
36CC
36CC
37FC
76CC
76CC
B7FC
3100
31B8
3334
3FFE
3030
3030
3030
ENDCHAR
STARTCHAR 5005
ENCODING 20485
SWIDTH 960 0
DWIDTH 16 0
BBX 16 16 0 -2
BITMAP
1060
1868
3BFC
3000
3330
7330
72EC
B6EC
3460
3864
37FE
3060
3060
3060
3060
3060
ENDCHAR
STARTCHAR 5006
ENCODING 20486
SWIDTH 960 0
DWIDTH 16 0
BBX 16 16 0 -2
BITMAP
1004
1FFE
18C0
34CC
37FE
74CC
74CC
B7FC
37FC
35DC
37DC
36EC
34CC
34CC
34DC
34CC
ENDCHAR
STARTCHAR 5009
ENCODING 20489
SWIDTH 960 0
DWIDTH 16 0
BBX 16 16 0 -2
BITMAP
0180
03C0
0640
0C30
1FFE
380C
CFF4
0C30
0FF0
0C30
1FF0
1808
3FFC
6C18
8FF8
0C18
ENDCHAR
STARTCHAR 500B
ENCODING 20491
SWIDTH 960 0
DWIDTH 16 0
BBX 16 16 0 -2
BITMAP
1406
1FFE
1606
3666
3666
77FE
7666
B666
36F6
3696
3696
3696
36F6
3606
37FE
3606
ENDCHAR
STARTCHAR 500D
ENCODING 20493
SWIDTH 960 0
DWIDTH 16 0
BBX 16 16 0 -2
BITMAP
1070
1864
1FFE
3210
3338
71B0
7124
BFFE
3000
3218
33FC
3318
3318
3318
33F8
3318
ENDCHAR
STARTCHAR 500F
ENCODING 20495
SWIDTH 960 0
DWIDTH 16 0
BBX 16 16 0 -2
BITMAP
1060
1868
18FC
3598
3670
3470
74DE
770C
B478
3468
37FC
3460
34D0
30DE
318C
3604
ENDCHAR
STARTCHAR 5011
ENCODING 20497
SWIDTH 960 0
DWIDTH 16 0
BBX 16 16 0 -2
BITMAP
1000
1FBE
1EB6
36B6
37BE
76B6
76B6
B7BE
3606
3606
3606
3606
3606
3606
360E
3604
ENDCHAR
STARTCHAR 5012
ENCODING 20498
SWIDTH 960 0
DWIDTH 16 0
BBX 16 16 0 -2
BITMAP
1086
3FC6
3636
36B6
64F6
7FF6
EB76
6336
6336
6FF6
6336
6336
63C6
7F06
6C1E
600C
ENDCHAR
STARTCHAR 5014
ENCODING 20500
SWIDTH 960 0
DWIDTH 16 0
BBX 16 16 0 -2
BITMAP
140C
1FFE
1E0C
360C
37FC
360C
7660
776C
B76C
35FC
3460
3B66
3B66
3366
33FE
3306
ENDCHAR
STARTCHAR 5016
ENCODING 20502
SWIDTH 960 0
DWIDTH 16 0
BBX 16 16 0 -2
BITMAP
10E0
18D8
3FFC
30C0
30CC
7FFE
7218
B1B0
31AC
3FFE
30C0
30D8
37FC
30C0
30C0
30C0
ENDCHAR
STARTCHAR 5019
ENCODING 20505
SWIDTH 960 0
DWIDTH 16 0
BBX 16 16 0 -2
BITMAP
1008
19FC
3818
3618
37FE
7680
76C8
B6FC
3760
366C
37FE
3670
36D0
30DE
318C
3604
ENDCHAR
STARTCHAR 501A
ENCODING 20506
SWIDTH 960 0
DWIDTH 16 0
BBX 16 16 0 -2
BITMAP
10E0
18C8
1FFC
31C0
333C
7418
7FFE
B00C
342C
37FC
366C
366C
37EC
366C
301C
3018
ENDCHAR
STARTCHAR 501F
ENCODING 20511
SWIDTH 960 0
DWIDTH 16 0
BBX 16 16 0 -2
BITMAP
11B0
19B0
19B0
37FC
31B0
71B4
7FFE
B000
33F8
3318
3318
33F8
3318
3318
33F8
3318
ENDCHAR
STARTCHAR 5021
ENCODING 20513
SWIDTH 960 0
DWIDTH 16 0
BBX 16 16 0 -2
BITMAP
1208
1BFC
1B18
3BF8
3318
33F8
7318
7404
B7FE
360C
360C
37FC
360C
360C
37FC
360C
ENDCHAR
STARTCHAR 5023
ENCODING 20515
SWIDTH 960 0
DWIDTH 16 0
BBX 16 16 0 -2
BITMAP
1730
3E30
36B0
3FE4
767E
76AC
B7AC
35AC
35AC
3598
3598
3590
35B8
3B2E
3B4C
3084
ENDCHAR
STARTCHAR 5024
ENCODING 20516
SWIDTH 960 0
DWIDTH 16 0
BBX 16 16 0 -2
BITMAP
1064
1BFE
1860
3864
30FC
76CC
76FC
B6CC
36FC
36CC
36CC
36FC
36CC
3604
37FE
3600
ENDCHAR
STARTCHAR 5025
ENCODING 20517
SWIDTH 960 0
DWIDTH 16 0
BBX 16 16 0 -2
BITMAP
1070
1860
3A64
33FE
3606
76B8
71B0
B1BE
331E
3C08
33FC
3060
3060
306C
37FE
3000
ENDCHAR
STARTCHAR 5026
ENCODING 20518
SWIDTH 960 0
DWIDTH 16 0
BBX 16 16 0 -2
BITMAP
1268
196C
19F0
1FFC
30C0
3194
7FFE
B198
330E
37FC
3834
31F0
31B4
3186
31FE
30FC
ENDCHAR
STARTCHAR 5028
ENCODING 20520
SWIDTH 960 0
DWIDTH 16 0
BBX 16 16 0 -2
BITMAP
1404
1FFE
1E0C
360C
37FC
7660
7664
B7FE
3660
3664
37FE
378C
358C
398C
39FC
318C
ENDCHAR
STARTCHAR 5029
ENCODING 20521
SWIDTH 960 0
DWIDTH 16 0
BBX 16 16 0 -2
BITMAP
10E0
18C8
1FFC
30D0
33F8
30C4
7FFE
7000
B3F8
3358
3358
33F8
3318
3318
3338
3318
ENDCHAR
STARTCHAR 502A
ENCODING 20522
SWIDTH 960 0
DWIDTH 16 0
BBX 16 16 0 -2
BITMAP
1000
1984
1FBE
360C
360C
37BC
760C
760C
B7FC
35B4
31B0
31B0
3334
3336
363E
381C
ENDCHAR
STARTCHAR 502B
ENCODING 20523
SWIDTH 960 0
DWIDTH 16 0
BBX 16 16 0 -2
BITMAP
10C0
18C0
19A0
3330
361E
79EC
7404
B7F8
3558
3558
37F8
3558
3558
3558
3578
3430
ENDCHAR
STARTCHAR 502C
ENCODING 20524
SWIDTH 960 0
DWIDTH 16 0
BBX 16 16 0 -2
BITMAP
10E0
18C8
18FC
30C0
34C4
37FE
760C
77FC
B60C
37FC
36CC
30C4
3FFE
30C0
30C0
30C0
ENDCHAR
STARTCHAR 502D
ENCODING 20525
SWIDTH 960 0
DWIDTH 16 0
BBX 16 16 0 -2
BITMAP
1018
187C
3BE0
306C
37FE
71F0
737E
BC6C
30C4
30CC
3FFE
3198
33B0
30F0
319C
360C
ENDCHAR
STARTCHAR 5036
ENCODING 20534
SWIDTH 960 0
DWIDTH 16 0
BBX 16 16 0 -2
BITMAP
1218
1BFC
1B18
3B18
33F8
7318
7318
B3F8
3318
3318
33F8
3004
3FFE
3118
338C
3E0C
ENDCHAR
STARTCHAR 5039
ENCODING 20537
SWIDTH 960 0
DWIDTH 16 0
BBX 16 16 0 -2
BITMAP
10C0
18C0
19A0
3330
361E
7DFC
70C4
B7FC
36CC
36CC
37FC
30E0
31B0
319E
330C
3C04
ENDCHAR
STARTCHAR 5043
ENCODING 20547
SWIDTH 960 0
DWIDTH 16 0
BBX 16 16 0 -2
BITMAP
140C
1FFE
1E00
36FC
36CC
36FC
76CC
76FC
B664
37FE
36D8
36F0
363C
36CC
37FE
3600
ENDCHAR
STARTCHAR 5047
ENCODING 20551
SWIDTH 960 0
DWIDTH 16 0
BBX 16 16 0 -2
BITMAP
1084
1FBE
168C
368C
368C
77BC
7600
B684
37FE
364C
364C
37B8
3618
363C
366E
3784
ENDCHAR
STARTCHAR 5048
ENCODING 20552
SWIDTH 960 0
DWIDTH 16 0
BBX 16 16 0 -2
BITMAP
1408
1FFC
1E18
37F8
3618
77F8
7180
B304
37FE
3E66
3666
36D6
3716
37FE
361C
300C
ENDCHAR
STARTCHAR 5049
ENCODING 20553
SWIDTH 960 0
DWIDTH 16 0
BBX 16 16 0 -2
BITMAP
10C8
1BFC
1998
3998
37FE
7000
73FC
B30C
33FC
3030
37FC
3330
3334
3FFE
3030
3030
ENDCHAR
STARTCHAR 504F
ENCODING 20559
SWIDTH 960 0
DWIDTH 16 0
BBX 16 16 0 -2
BITMAP
100C
1FFE
1800
37FC
360C
760C
77FC
B602
37FE
3756
3756
37FE
3F56
3356
335E
330C
ENDCHAR
STARTCHAR 5050
ENCODING 20560
SWIDTH 960 0
DWIDTH 16 0
BBX 16 16 0 -2
BITMAP
10E0
18C8
3FFC
3130
30E0
71B0
761C
B7FE
3610
3638
36EC
3618
3474
35CE
3838
33C0
ENDCHAR
STARTCHAR 5055
ENCODING 20565
SWIDTH 960 0
DWIDTH 16 0
BBX 16 16 0 -2
BITMAP
1738
1E30
3EB6
37FE
7630
77F4
BF3E
3CDC
3080
33FC
330C
33FC
330C
330C
33FC
330C
ENDCHAR
STARTCHAR 5056
ENCODING 20566
SWIDTH 960 0
DWIDTH 16 0
BBX 16 16 0 -2
BITMAP
10E0
18D4
3FFE
30CC
30D8
7FFE
7070
B0D4
31FE
338C
3D8C
31FC
318C
318C
31FC
318C
ENDCHAR
STARTCHAR 505A
ENCODING 20570
SWIDTH 960 0
DWIDTH 16 0
BBX 16 16 0 -2
BITMAP
1330
1B30
1B30
3364
3FFE
736C
73AC
B32C
37AC
36B8
36B8
3690
37B8
36EE
304C
3184
ENDCHAR
STARTCHAR 505C
ENCODING 20572
SWIDTH 960 0
DWIDTH 16 0
BBX 16 16 0 -2
BITMAP
1060
186C
3FFE
3000
73F8
7318
B3F8
3404
37FE
3C0C
37F8
3060
3060
3060
31E0
30C0
ENDCHAR
STARTCHAR 5065
ENCODING 20581
SWIDTH 960 0
DWIDTH 16 0
BBX 16 16 0 -2
BITMAP
1060
1A68
1EFC
3668
37FE
6468
6CF8
EE68
7660
77FC
6C64
6FFE
6460
6E00
6BFE
70FC
ENDCHAR
STARTCHAR 506C
ENCODING 20588
SWIDTH 960 0
DWIDTH 16 0
BBX 16 16 0 -2
BITMAP
1180
1980
1B04
33FE
36BC
792C
73EC
B4EC
31AC
3338
3C58
31E0
35AC
3D86
3DFE
30F8
ENDCHAR
STARTCHAR 5072
ENCODING 20594
SWIDTH 960 0
DWIDTH 16 0
BBX 16 16 0 -2
BITMAP
120C
1BFE
1B6C
3B6C
33FC
336C
736C
73FC
B36C
3030
32F4
32D6
36C6
3EC8
34FC
3078
ENDCHAR
STARTCHAR 5074
ENCODING 20596
SWIDTH 960 0
DWIDTH 16 0
BBX 16 16 0 -2
BITMAP
2886
3FF6
3DB6
6DB6
6DB6
6FB6
EDB6
6DB6
6FB6
6DB6
6DB6
6DB6
6F86
6586
6CDE
70CC
ENDCHAR
STARTCHAR 5075
ENCODING 20597
SWIDTH 960 0
DWIDTH 16 0
BBX 16 16 0 -2
BITMAP
1064
187E
1A60
33FC
330C
730C
73FC
B30C
330C
33FC
330C
330C
33FC
3118
338E
3E06
ENDCHAR
STARTCHAR 5076
ENCODING 20598
SWIDTH 960 0
DWIDTH 16 0
BBX 16 16 0 -2
BITMAP
120C
1BFE
1B6C
3B6C
33FC
736C
736C
B3FC
3462
37FE
3666
3676
367E
37E6
369E
360C
ENDCHAR
STARTCHAR 5078
ENCODING 20600
SWIDTH 960 0
DWIDTH 16 0
BBX 16 16 0 -2
BITMAP
13E0
18D0
1998
330E
35F4
7800
77B6
B5B6
37A4
35EC
35C8
37EC
35A4
35B6
35B6
35B6
ENDCHAR
STARTCHAR 507D
ENCODING 20605
SWIDTH 960 0
DWIDTH 16 0
BBX 16 16 0 -2
BITMAP
0930
0DB0
1CE0
1BF8
30D8
3090
71FC
B18C
3308
37FE
3906
36A6
37F6
354C
343C
3018
ENDCHAR
STARTCHAR 5080
ENCODING 20608
SWIDTH 960 0
DWIDTH 16 0
BBX 16 16 0 -2
BITMAP
1060
18C4
37FE
36CC
36CC
77FC
76CC
B6CC
37FC
3568
33EC
337E
337A
3664
347E
383C
ENDCHAR
STARTCHAR 5085
ENCODING 20613
SWIDTH 960 0
DWIDTH 16 0
BBX 16 16 0 -2
BITMAP
10D8
18CC
3FFE
30C0
37FC
76CC
77FC
B6CC
37FC
36CC
3018
3FFE
3318
3198
31B8
3010
ENDCHAR
STARTCHAR 508D
ENCODING 20621
SWIDTH 960 0
DWIDTH 16 0
BBX 16 16 0 -2
BITMAP
1060
1868
1BFC
3130
35A4
77FE
7CCC
BCC8
37FC
30C8
30FC
3198
3198
3318
3670
3830
ENDCHAR
STARTCHAR 5091
ENCODING 20625
SWIDTH 960 0
DWIDTH 16 0
BBX 16 16 0 -2
BITMAP
130C
1A4C
1FCC
36FE
3AAC
71AC
71FE
B30C
3C6C
3064
3FFE
30F0
31F8
336E
366C
3864
ENDCHAR
STARTCHAR 5098
ENCODING 20632
SWIDTH 960 0
DWIDTH 16 0
BBX 16 16 0 -2
BITMAP
0180
0380
0660
0DB0
319E
C9AC
3DB4
45D8
199C
31B0
2DAC
49C8
FFFE
0180
0180
0180
ENDCHAR
STARTCHAR 5099
ENCODING 20633
SWIDTH 960 0
DWIDTH 16 0
BBX 16 16 0 -2
BITMAP
21B0
37FC
31B0
69B4
6FFE
6C00
EDFC
6DAC
6DAC
6DFC
6DAC
6DAC
69FC
69AC
71BC
6198
ENDCHAR
STARTCHAR 509A
ENCODING 20634
SWIDTH 960 0
DWIDTH 16 0
BBX 16 16 0 -2
BITMAP
1330
1B30
3330
3FE4
357E
75EC
7CAC
B96C
35AC
3318
3318
3798
34BC
382E
304C
3084
ENDCHAR
STARTCHAR 50AC
ENCODING 20652
SWIDTH 960 0
DWIDTH 16 0
BBX 16 16 0 -2
BITMAP
1060
1B6C
1B6C
33FC
3198
71B4
73FE
B730
3B30
33FC
3330
33FC
3330
3334
33FE
3300
ENDCHAR
STARTCHAR 50AD
ENCODING 20653
SWIDTH 960 0
DWIDTH 16 0
BBX 16 16 0 -2
BITMAP
1064
1FFE
3630
36FC
3634
77FE
7634
B6FC
3630
36FC
36B4
36FC
34B4
34FC
38B4
30B4
ENDCHAR
STARTCHAR 50B2
ENCODING 20658
SWIDTH 960 0
DWIDTH 16 0
BBX 16 16 0 -2
BITMAP
1330
1B30
3FF0
3324
3FFE
736C
732C
BFEC
362C
37DC
36D8
36D8
34D8
3BAE
39AC
3044
ENDCHAR
STARTCHAR 50B3
ENCODING 20659
SWIDTH 960 0
DWIDTH 16 0
BBX 16 16 0 -2
BITMAP
1064
1FFE
1860
37FC
366C
37FC
766C
77FC
B066
37FE
301C
3FFE
3318
3198
3078
3030
ENDCHAR
STARTCHAR 50B4
ENCODING 20660
SWIDTH 960 0
DWIDTH 16 0
BBX 16 16 0 -2
BITMAP
140C
1FFE
1E00
36F8
3688
3688
76F8
7600
B7DC
3754
3754
37DC
3754
360C
37FE
3600
ENDCHAR
STARTCHAR 50B5
ENCODING 20661
SWIDTH 960 0
DWIDTH 16 0
BBX 16 16 0 -2
BITMAP
10C8
1FFC
18C0
33F8
30C4
7FFE
7000
B3F8
3318
33F8
3318
33F8
3318
33F8
330E
3E06
ENDCHAR
STARTCHAR 50B7
ENCODING 20663
SWIDTH 960 0
DWIDTH 16 0
BBX 16 16 0 -2
BITMAP
1188
19FC
1B00
33F0
3730
7BF0
7330
B3F0
300C
37FE
3188
37FC
3D6C
32CC
35B8
3030
ENDCHAR
STARTCHAR 50BE
ENCODING 20670
SWIDTH 960 0
DWIDTH 16 0
BBX 16 16 0 -2
BITMAP
1004
19FE
1830
3C24
34FE
75CC
77CC
B4FC
34CC
34FC
35CC
33CC
30FC
30DC
3186
3606
ENDCHAR
STARTCHAR 50C2
ENCODING 20674
SWIDTH 960 0
DWIDTH 16 0
BBX 16 16 0 -2
BITMAP
10C0
1BF8
3ADC
3FFE
32D8
73F8
70C0
B3F8
32D8
33F8
3184
3FFE
3318
37B0
30F8
3F1C
ENDCHAR
STARTCHAR 50C5
ENCODING 20677
SWIDTH 960 0
DWIDTH 16 0
BBX 16 16 0 -2
BITMAP
1330
1B34
1FFE
3330
3408
77FC
76D8
B6D8
37F8
30C8
37FC
30C0
33F8
30C4
3FFE
3000
ENDCHAR
STARTCHAR 50C9
ENCODING 20681
SWIDTH 960 0
DWIDTH 16 0
BBX 16 16 0 -2
BITMAP
0300
0380
0640
0E60
1838
3FFE
C004
3EF8
32C8
32C8
3EF8
3AE8
1860
36D8
378C
C20C
ENDCHAR
STARTCHAR 50CA
ENCODING 20682
SWIDTH 960 0
DWIDTH 16 0
BBX 16 16 0 -2
BITMAP
1004
1FFE
19A0
37FC
35AC
75AC
77FC
B0C4
3FFE
3330
37FE
3B34
3370
3308
33FC
31F8
ENDCHAR
STARTCHAR 50CD
ENCODING 20685
SWIDTH 960 0
DWIDTH 16 0
BBX 16 16 0 -2
BITMAP
219C
3FD8
3318
7FDA
633E
6FD6
EB56
6FD6
6B56
6B56
6FD6
6316
6FF6
6326
6FEC
6E4C
ENDCHAR
STARTCHAR 50CF
ENCODING 20687
SWIDTH 960 0
DWIDTH 16 0
BBX 16 16 0 -2
BITMAP
10D0
18F8
19B0
3B4C
37FE
736C
736C
B3FC
30E8
31AC
377C
31B0
3778
30FE
3734
3064
ENDCHAR
STARTCHAR 50D1
ENCODING 20689
SWIDTH 960 0
DWIDTH 16 0
BBX 16 16 0 -2
BITMAP
1038
1BFC
18C0
37FE
3190
73FE
761C
BFF4
340C
37FE
360C
36EC
36AC
36EC
369C
3618
ENDCHAR
STARTCHAR 50D5
ENCODING 20693
SWIDTH 960 0
DWIDTH 16 0
BBX 16 16 0 -2
BITMAP
15B4
1FBC
39B4
37FE
3130
71A4
7FFE
B0C8
37FC
30C4
3FFE
30E0
3190
331E
360C
3804
ENDCHAR
STARTCHAR 50D6
ENCODING 20694
SWIDTH 960 0
DWIDTH 16 0
BBX 16 16 0 -2
BITMAP
10C4
1FFE
18C0
37FC
3000
37FC
760C
77FC
B130
31A4
3FFE
3000
37FC
360C
37FC
360C
ENDCHAR
STARTCHAR 50DA
ENCODING 20698
SWIDTH 960 0
DWIDTH 16 0
BBX 16 16 0 -2
BITMAP
10C0
18C8
1FFC
30C0
3DB6
771C
760E
BBFC
3318
33F8
3318
33F8
32E0
36D8
35CC
38CC
ENDCHAR
STARTCHAR 50DE
ENCODING 20702
SWIDTH 960 0
DWIDTH 16 0
BBX 16 16 0 -2
BITMAP
1038
1BFC
1948
336C
3624
33F8
7310
73FC
B30C
3318
33FE
36A6
35FE
3956
331C
300C
ENDCHAR
STARTCHAR 50E3
ENCODING 20707
SWIDTH 960 0
DWIDTH 16 0
BBX 16 16 0 -2
BITMAP
1318
1B58
3FFE
3318
3358
7FFE
7318
B7B6
34E6
3BFC
330C
33FC
330C
330C
33FC
330C
ENDCHAR
STARTCHAR 50E5
ENCODING 20709
SWIDTH 960 0
DWIDTH 16 0
BBX 16 16 0 -2
BITMAP
1068
1BFC
1860
37FE
3318
7FBE
7318
BFD8
367E
3004
3FFE
31B0
31B0
3334
363E
381C
ENDCHAR
STARTCHAR 50E7
ENCODING 20711
SWIDTH 960 0
DWIDTH 16 0
BBX 16 16 0 -2
BITMAP
1918
19B2
1FFE
3666
37FE
7666
7666
B7FE
3000
33FC
330C
33FC
330C
330C
33FC
330C
ENDCHAR
STARTCHAR 50ED
ENCODING 20717
SWIDTH 960 0
DWIDTH 16 0
BBX 16 16 0 -2
BITMAP
1358
1FFE
3B58
3318
3FFE
7738
75AE
B9CE
3204
33FE
330C
33FC
330C
330C
33FC
330C
ENDCHAR
STARTCHAR 50EE
ENCODING 20718
SWIDTH 960 0
DWIDTH 16 0
BBX 16 16 0 -2
BITMAP
10C8
1FFC
1930
31A4
3FFE
3000
73F8
72D8
B3F8
32D8
33F8
30C8
37FC
30C4
3FFE
3000
ENDCHAR
STARTCHAR 50F5
ENCODING 20725
SWIDTH 960 0
DWIDTH 16 0
BBX 16 16 0 -2
BITMAP
1004
1FFE
3800
37FC
36CC
77FC
76CC
BFFE
37FC
36CC
37FC
36CC
37FC
3004
3FFE
3000
ENDCHAR
STARTCHAR 50F9
ENCODING 20729
SWIDTH 960 0
DWIDTH 16 0
BBX 16 16 0 -2
BITMAP
1008
1FFC
39A0
37FC
35AC
77FC
7000
B3F8
3318
33F8
3318
33F8
3318
33F8
31BC
370C
ENDCHAR
STARTCHAR 50FB
ENCODING 20731
SWIDTH 960 0
DWIDTH 16 0
BBX 16 16 0 -2
BITMAP
1498
1FD8
369C
36FE
36C8
67AC
6638
E6FE
6C18
6F98
6E9C
76FE
7698
6798
6698
6018
ENDCHAR
STARTCHAR 5100
ENCODING 20736
SWIDTH 960 0
DWIDTH 16 0
BBX 16 16 0 -2
BITMAP
1118
1994
3BFE
3060
3FFC
7060
77FE
B100
37BC
3334
3FFE
3334
3F9C
3338
376E
3386
ENDCHAR
STARTCHAR 5101
ENCODING 20737
SWIDTH 960 0
DWIDTH 16 0
BBX 16 16 0 -2
BITMAP
10D8
19B4
1BFE
3F30
33FC
7330
73FC
B334
33FE
3400
37DE
36D6
36F6
36D6
360E
3606
ENDCHAR
STARTCHAR 5102
ENCODING 20738
SWIDTH 960 0
DWIDTH 16 0
BBX 16 16 0 -2
BITMAP
11A0
1FFC
3DAC
37FC
35AC
77FC
7000
B7FC
3600
37F8
3600
37FE
35CC
3DB8
3BFE
338C
ENDCHAR
STARTCHAR 5104
ENCODING 20740
SWIDTH 960 0
DWIDTH 16 0
BBX 16 16 0 -2
BITMAP
1068
1BFC
1918
3194
37FE
7000
73F8
B318
33F8
3318
33F8
304C
32E6
36CE
36F8
3078
ENDCHAR
STARTCHAR 5109
ENCODING 20745
SWIDTH 960 0
DWIDTH 16 0
BBX 16 16 0 -2
BITMAP
10C0
18E0
1990
3398
37FE
3C04
7000
77BC
B6B4
36B4
37BC
3318
3318
37BC
35A6
38C6
ENDCHAR
STARTCHAR 5112
ENCODING 20754
SWIDTH 960 0
DWIDTH 16 0
BBX 16 16 0 -2
BITMAP
2008
37FC
30C4
3FFE
6CCC
7EDC
E0C0
66D8
600C
7FFE
60C0
6FFE
6DB6
6DB6
6DBE
6C0C
ENDCHAR
STARTCHAR 5114
ENCODING 20756
SWIDTH 960 0
DWIDTH 16 0
BBX 16 16 0 -2
BITMAP
1068
1BFC
3860
33F8
3004
77FE
700C
B3F8
3064
37FE
300C
37BE
36EC
37AC
369C
3008
ENDCHAR
STARTCHAR 5115
ENCODING 20757
SWIDTH 960 0
DWIDTH 16 0
BBX 16 16 0 -2
BITMAP
1064
1FFE
3910
30A4
3FFE
7554
7556
BB5A
3000
3318
33F8
3318
33F8
3318
3618
3818
ENDCHAR
STARTCHAR 5116
ENCODING 20758
SWIDTH 960 0
DWIDTH 16 0
BBX 16 16 0 -2
BITMAP
1430
1FB4
1D3E
37A0
34E0
74C4
77BE
B500
37C0
3004
37FC
36AC
36AC
36AC
3FFE
3000
ENDCHAR
STARTCHAR 5118
ENCODING 20760
SWIDTH 960 0
DWIDTH 16 0
BBX 16 16 0 -2
BITMAP
10C8
1FF8
18DC
3FFE
30D8
77F8
70C4
BFFE
356C
3DA6
3CB2
37F8
3558
355C
3FFE
3000
ENDCHAR
STARTCHAR 511A
ENCODING 20762
SWIDTH 960 0
DWIDTH 16 0
BBX 16 16 0 -2
BITMAP
11B0
1FFC
39B0
3000
37FC
76AC
77FC
B404
37FE
3CD6
3DF8
3318
35F0
3060
30C0
3700
ENDCHAR
STARTCHAR 511F
ENCODING 20767
SWIDTH 960 0
DWIDTH 16 0
BBX 16 16 0 -2
BITMAP
136C
1968
1BFE
36F6
3698
70F0
720C
B3FE
330C
33FC
330C
33FC
330C
33FC
330E
3E06
ENDCHAR
STARTCHAR 5121
ENCODING 20769
SWIDTH 960 0
DWIDTH 16 0
BBX 16 16 0 -2
BITMAP
1204
1BFE
1B6C
33FC
336C
33FC
630C
68A2
EFBE
6AAA
6AAA
6FBE
6AAA
6AAA
6FBE
68A2
ENDCHAR
STARTCHAR 512A
ENCODING 20778
SWIDTH 960 0
DWIDTH 16 0
BBX 16 16 0 -2
BITMAP
1004
1BFE
38C0
33FC
330C
73FC
770C
BFFE
36EC
32D4
36FC
3190
33F8
3530
30FE
379C
ENDCHAR
STARTCHAR 5132
ENCODING 20786
SWIDTH 960 0
DWIDTH 16 0
BBX 16 16 0 -2
BITMAP
2238
3734
31FE
3FB6
603C
62FE
6F30
E260
6ECC
617E
696C
6F7C
6D6C
6D6C
6F7C
6D6C
ENDCHAR
STARTCHAR 5137
ENCODING 20791
SWIDTH 960 0
DWIDTH 16 0
BBX 16 16 0 -2
BITMAP
1104
1FBE
3800
37BE
36AA
7460
77FE
76D8
B7FE
3696
37FE
3798
35DE
3598
3BFE
330C
ENDCHAR
STARTCHAR 513A
ENCODING 20794
SWIDTH 960 0
DWIDTH 16 0
BBX 16 16 0 -2
BITMAP
24B4
3FEC
34A8
27AC
637E
6FE8
6B68
EFFC
6328
6FA8
633C
6FA8
6328
67AC
65BE
6820
ENDCHAR
STARTCHAR 513B
ENCODING 20795
SWIDTH 960 0
DWIDTH 16 0
BBX 16 16 0 -2
BITMAP
1358
1954
3FFE
37B4
31F0
7404
77FE
B554
B554
37FC
3068
37FC
3064
3FFE
32A4
36F6
ENDCHAR
STARTCHAR 513C
ENCODING 20796
SWIDTH 960 0
DWIDTH 16 0
BBX 16 16 0 -2
BITMAP
2000
37BC
36B4
37BC
6804
6FFE
6C18
6FD4
ED3E
6DD4
6D54
6DDC
6948
6FCE
76DC
60E4
ENDCHAR
STARTCHAR 513F
ENCODING 20799
SWIDTH 960 0
DWIDTH 16 0
BBX 16 16 0 -2
BITMAP
0EE0
0CC0
0CC0
0CC0
0CC0
0CC0
0CC0
0CC0
0CC0
0CC0
0CC0
18C4
18C4
30C6
20FE
C07C
ENDCHAR
STARTCHAR 5140
ENCODING 20800
SWIDTH 960 0
DWIDTH 16 0
BBX 16 16 0 -2
BITMAP
000C
FFFE
0CC0
0CC0
0CC0
0CC0
0CC0
0CC0
0CC0
0CC0
0CC0
18C4
18C4
30C6
20FE
C07C
ENDCHAR
STARTCHAR 5141
ENCODING 20801
SWIDTH 960 0
DWIDTH 16 0
BBX 16 16 0 -2
BITMAP
0300
0300
0620
0410
08F8
FFCC
FCCC
0CC0
0CC0
0CC0
0CC0
0CC4
18C4
18C6
30FE
C07C
ENDCHAR
STARTCHAR 5143
ENCODING 20803
SWIDTH 960 0
DWIDTH 16 0
BBX 16 16 0 -2
BITMAP
0030
3FF8
0000
0000
0000
000C
FFFE
0CC0
0CC0
0CC0
0CC0
18C4
18C4
30C6
20FE
C07C
ENDCHAR
STARTCHAR 5144
ENCODING 20804
SWIDTH 960 0
DWIDTH 16 0
BBX 16 16 0 -2
BITMAP
2018
3FFC
3018
3018
3018
3018
3018
3FF8
36D8
06C0
06C0
0CC4
0CC4
18C6
30FE
C07C
ENDCHAR
STARTCHAR 5145
ENCODING 20805
SWIDTH 960 0
DWIDTH 16 0
BBX 16 16 0 -2
BITMAP
01C0
018C
FFFE
0300
0620
0418
7FFC
7ECC
0CC0
0CC0
0CC0
0CC4
18C4
18C6
30FE
C07C
ENDCHAR
STARTCHAR 5146
ENCODING 20806
SWIDTH 960 0
DWIDTH 16 0
BBX 16 16 0 -2
BITMAP
0EE0
0CC0
8CCC
4CCC
6CD8
6CE0
2CC0
0CE0
3CD8
ECCC
CCCC
0CC4
18C4
18C6
30FE
C07C
ENDCHAR
STARTCHAR 5147
ENCODING 20807
SWIDTH 960 0
DWIDTH 16 0
BBX 16 16 0 -2
BITMAP
309C
3CD8
37D8
3198
3398
32D8
3CD8
3018
3FF8
36D8
06C0
0CC4
0CC4
18C6
30FE
C07C
ENDCHAR
STARTCHAR 5148
ENCODING 20808
SWIDTH 960 0
DWIDTH 16 0
BBX 16 16 0 -2
BITMAP
01C0
1980
1998
1FFC
3180
4180
018C
FFFE
0660
0660
0660
0C64
0C64
1866
307E
C03C
ENDCHAR
STARTCHAR 5149
ENCODING 20809
SWIDTH 960 0
DWIDTH 16 0
BBX 16 16 0 -2
BITMAP
0380
2318
3318
1B30
1B20
034C
FFFE
0CC0
0CC0
0CC0
0CC0
0CC4
18C4
18C6
30FE
C07C
ENDCHAR
STARTCHAR 514B
ENCODING 20811
SWIDTH 960 0
DWIDTH 16 0
BBX 16 16 0 -2
BITMAP
01C0
018C
FFFE
0180
1198
1FFC
1818
1818
1818
1FF8
0660
0664
0664
0C66
187E
E03C
ENDCHAR
STARTCHAR 514C
ENCODING 20812
SWIDTH 960 0
DWIDTH 16 0
BBX 16 16 0 -2
BITMAP
09C0
0C40
1C60
1830
701E
DFFC
1830
1830
1830
1FF0
04C0
06C4
0EC4
0CC6
38FE
E07C
ENDCHAR
STARTCHAR 514D
ENCODING 20813
SWIDTH 960 0
DWIDTH 16 0
BBX 16 16 0 -2
BITMAP
0600
0620
0FF0
1860
3084
FFFE
318C
318C
3FFC
366C
0660
0664
0C64
0866
307E
C03C
ENDCHAR
STARTCHAR 514E
ENCODING 20814
SWIDTH 960 0
DWIDTH 16 0
BBX 16 16 0 -2
BITMAP
0030
01F8
3FC0
0180
2198
3FFC
3198
3198
3FF8
2988
0DB0
0D98
1998
1984
31FE
C0FC
ENDCHAR
STARTCHAR 5150
ENCODING 20816
SWIDTH 960 0
DWIDTH 16 0
BBX 16 16 0 -2
BITMAP
7418
67FC
6618
6618
67F8
6618
6618
67F8
6618
11C0
1D80
1984
1984
3186
21FE
C0FC
ENDCHAR
STARTCHAR 5152
ENCODING 20818
SWIDTH 960 0
DWIDTH 16 0
BBX 16 16 0 -2
BITMAP
0608
2EFC
3818
3018
3EF8
3018
3018
3FF8
2CD8
0CC0
0CC0
0CC4
18C4
18C6
30FE
C07C
ENDCHAR
STARTCHAR 5154
ENCODING 20820
SWIDTH 960 0
DWIDTH 16 0
BBX 16 16 0 -2
BITMAP
0600
0660
0FF0
0CC0
1880
3118
FFFC
3198
3198
3FF8
36C8
0EF0
0CD4
18C6
30FE
C07C
ENDCHAR
STARTCHAR 515A
ENCODING 20826
SWIDTH 960 0
DWIDTH 16 0
BBX 16 16 0 -2
BITMAP
1998
0DB8
4DA4
7FFE
C00C
DFF8
1830
1830
1830
1FF0
0CD0
0EC4
0CC4
18C6
30FE
C07C
ENDCHAR
STARTCHAR 515C
ENCODING 20828
SWIDTH 960 0
DWIDTH 16 0
BBX 16 16 0 -2
BITMAP
1980
5B04
77DE
66CC
67CC
66CC
66CC
77DC
600C
0EE0
0CC0
0CC4
0CC4
18C6
30FE
C07C
ENDCHAR
STARTCHAR 5162
ENCODING 20834
SWIDTH 960 0
DWIDTH 16 0
BBX 16 16 0 -2
BITMAP
1C38
1934
FFFE
1830
5AB4
7EFE
66CC
66CC
66CC
7EFC
2C58
6DDA
6EDA
5D9C
591E
820C
ENDCHAR
STARTCHAR 5165
ENCODING 20837
SWIDTH 960 0
DWIDTH 16 0
BBX 16 16 0 -2
BITMAP
0180
1FC0
0080
0080
0080
0180
0180
01C0
0340
0340
0220
0630
0C18
181E
300C
C004
ENDCHAR
STARTCHAR 5168
ENCODING 20840
SWIDTH 960 0
DWIDTH 16 0
BBX 16 16 0 -2
BITMAP
0180
0180
0340
0620
0C38
380E
DFFC
0184
0180
01B0
3FF8
0180
0180
018C
FFFE
0000
ENDCHAR
STARTCHAR 5169
ENCODING 20841
SWIDTH 960 0
DWIDTH 16 0
BBX 16 16 0 -2
BITMAP
000C
FFFE
0180
418C
7FFE
618C
618C
6DEC
65AC
65AC
6FDC
6BDC
738C
618C
618C
618C
ENDCHAR
STARTCHAR 516A
ENCODING 20842
SWIDTH 960 0
DWIDTH 16 0
BBX 16 16 0 -2
BITMAP
3F80
0340
0660
0C38
3FFE
E00C
3F6C
336C
3F48
37D8
3390
3FD8
3748
336C
376C
336C
ENDCHAR
STARTCHAR 516B
ENCODING 20843
SWIDTH 960 0
DWIDTH 16 0
BBX 16 16 0 -2
BITMAP
0040
04E0
0740
0640
0640
0640
0620
0420
0C20
0C30
0810
1818
1018
200E
400C
8004
ENDCHAR
STARTCHAR 516C
ENCODING 20844
SWIDTH 960 0
DWIDTH 16 0
BBX 16 16 0 -2
BITMAP
0840
0DC0
0C40
1820
1830
3310
231E
430C
8604
0620
0420
0C10
09F8
FF0C
780C
4000
ENDCHAR
STARTCHAR 516D
ENCODING 20845
SWIDTH 960 0
DWIDTH 16 0
BBX 16 16 0 -2
BITMAP
01C0
0180
0180
018C
FFFE
0000
0800
0C20
0C30
1818
1818
300C
200C
400C
8000
0000
ENDCHAR
STARTCHAR 516E
ENCODING 20846
SWIDTH 960 0
DWIDTH 16 0
BBX 16 16 0 -2
BITMAP
05C0
0640
0C60
0C30
1858
3FFE
460C
8600
0C30
0FF8
0C30
0030
0060
0060
01E0
00C0
ENDCHAR
STARTCHAR 5171
ENCODING 20849
SWIDTH 960 0
DWIDTH 16 0
BBX 16 16 0 -2
BITMAP
0E70
0C60
0C60
0C68
7FFC
0C60
0C60
0C60
0C6C
FFFE
0400
0E60
0C30
1818
300C
C00C
ENDCHAR
STARTCHAR 5175
ENCODING 20853
SWIDTH 960 0
DWIDTH 16 0
BBX 16 16 0 -2
BITMAP
0060
11F0
1F80
1800
1818
1FFC
1860
1860
1860
186C
FFFE
0840
1C30
1818
300C
C00C
ENDCHAR
STARTCHAR 5176
ENCODING 20854
SWIDTH 960 0
DWIDTH 16 0
BBX 16 16 0 -2
BITMAP
0E70
0C68
7FFC
0C60
0C60
0FE0
0C60
0C60
0FE0
0C60
0C6C
FFFE
0400
0E70
181C
E00C
ENDCHAR
STARTCHAR 5177
ENCODING 20855
SWIDTH 960 0
DWIDTH 16 0
BBX 16 16 0 -2
BITMAP
1030
1FF8
1830
1830
1FF0
1830
1830
1FF0
1830
1830
1FF0
000C
FFFE
0C30
1C1C
700C
ENDCHAR
STARTCHAR 5178
ENCODING 20856
SWIDTH 960 0
DWIDTH 16 0
BBX 16 16 0 -2
BITMAP
06E0
06C0
46CC
7FFE
66CC
66CC
66CC
7FFC
66CC
66CC
66CC
FFFE
0800
1C38
380C
C00C
ENDCHAR
STARTCHAR 517C
ENCODING 20860
SWIDTH 960 0
DWIDTH 16 0
BBX 16 16 0 -2
BITMAP
0830
0C64
FFFE
06C0
3FF8
06D8
FFFE
06D8
06D8
3FF8
0EE0
1EF0
16D0
36DE
66CC
86C4
ENDCHAR
STARTCHAR 5180
ENCODING 20864
SWIDTH 960 0
DWIDTH 16 0
BBX 16 16 0 -2
BITMAP
0EDC
FCF8
0CC4
FC7E
CC08
3FFC
3198
3FF8
3198
3FF8
0668
7FFC
0664
FFFE
0E3C
780C
ENDCHAR
STARTCHAR 5182
ENCODING 20866
SWIDTH 960 0
DWIDTH 16 0
BBX 16 16 0 -2
BITMAP
400C
7FFE
600C
600C
600C
600C
600C
600C
600C
600C
600C
600C
600C
600C
603C
6018
ENDCHAR
STARTCHAR 5185
ENCODING 20869
SWIDTH 960 0
DWIDTH 16 0
BBX 16 16 0 -2
BITMAP
01C0
0180
4186
7FFE
6186
6186
6346
6366
6636
6C36
7006
6006
6006
6006
601E
600C
ENDCHAR
STARTCHAR 5186
ENCODING 20870
SWIDTH 960 0
DWIDTH 16 0
BBX 16 16 0 -2
BITMAP
400C
7FFE
618C
618C
618C
618C
618C
7FFC
600C
600C
600C
600C
600C
600C
603C
6018
ENDCHAR
STARTCHAR 5189
ENCODING 20873
SWIDTH 960 0
DWIDTH 16 0
BBX 16 16 0 -2
BITMAP
01C0
2198
3FFC
3198
3198
3198
3FF8
3198
3198
319C
FFFE
3018
3018
3018
3078
3030
ENDCHAR
STARTCHAR 518A
ENCODING 20874
SWIDTH 960 0
DWIDTH 16 0
BBX 16 16 0 -2
BITMAP
2018
3FFC
36D8
36D8
36D8
36D8
36DC
FFFE
36D8
36D8
36D8
36D8
36D8
36D8
36F8
3030
ENDCHAR
STARTCHAR 518C
ENCODING 20876
SWIDTH 960 0
DWIDTH 16 0
BBX 16 16 0 -2
BITMAP
2288
3EFC
36D8
36D8
36D8
36D8
36DC
FFFE
36D8
36D8
36D8
36D8
26D8
6698
4EB8
8510
ENDCHAR
STARTCHAR 518D
ENCODING 20877
SWIDTH 960 0
DWIDTH 16 0
BBX 16 16 0 -2
BITMAP
000C
FFFE
0180
1198
1FFC
1998
1998
1FF8
1998
1998
FFFE
1818
1818
1818
18F8
1830
ENDCHAR
STARTCHAR 518F
ENCODING 20879
SWIDTH 960 0
DWIDTH 16 0
BBX 16 16 0 -2
BITMAP
400C
7FFE
66CC
66CC
6CCC
6CFC
707C
682C
6FFC
6C6C
6C6C
6C6C
6FEC
6C0C
603C
6018
ENDCHAR
STARTCHAR 5190
ENCODING 20880
SWIDTH 960 0
DWIDTH 16 0
BBX 16 16 0 -2
BITMAP
400C
7FFE
600C
6FEC
600C
6FEC
600C
1030
1FF8
1830
1FF0
1830
1FF0
1830
1870
1820
ENDCHAR
STARTCHAR 5191
ENCODING 20881
SWIDTH 960 0
DWIDTH 16 0
BBX 16 16 0 -2
BITMAP
4184
7FFE
618C
7FFC
618C
7FFC
600C
1FF8
1818
1BD8
1818
1BD8
1818
1818
1838
1810
ENDCHAR
STARTCHAR 5192
ENCODING 20882
SWIDTH 960 0
DWIDTH 16 0
BBX 16 16 0 -2
BITMAP
2004
3FFE
300C
3FFC
300C
3FFC
0810
0FF8
0C30
0FF0
0C30
0FF0
0C30
0C30
0FF0
0C30
ENDCHAR
STARTCHAR 5193
ENCODING 20883
SWIDTH 960 0
DWIDTH 16 0
BBX 16 16 0 -2
BITMAP
0668
7FFC
0660
3FF8
0664
FFFE
0180
1FF0
19B0
1FF0
19B4
FFFE
1830
1830
18F0
1860
ENDCHAR
STARTCHAR 5195
ENCODING 20885
SWIDTH 960 0
DWIDTH 16 0
BBX 16 16 0 -2
BITMAP
4004
7FFE
600C
6FEC
600C
6FEC
0C80
1FC0
3188
FFFC
3198
3FF8
2CD8
0EC4
18FE
E07C
ENDCHAR
STARTCHAR 5196
ENCODING 20886
SWIDTH 960 0
DWIDTH 16 0
BBX 16 16 0 -2
BITMAP
0000
0000
0000
0000
0000
4004
7FFE
C006
C008
0000
0000
0000
0000
0000
0000
0000
ENDCHAR
STARTCHAR 5197
ENCODING 20887
SWIDTH 960 0
DWIDTH 16 0
BBX 16 16 0 -2
BITMAP
4004
7FFE
400C
C008
C860
0FF0
0C60
0C60
0C60
0C60
0C60
0C64
1864
1866
307E
C03C
ENDCHAR
STARTCHAR 5199
ENCODING 20889
SWIDTH 960 0
DWIDTH 16 0
BBX 16 16 0 -2
BITMAP
4004
7FFE
400C
CE08
CC60
1FF0
1800
1830
3FF8
3030
0034
FFFE
0060
00C0
07C0
0180
ENDCHAR
STARTCHAR 51A0
ENCODING 20896
SWIDTH 960 0
DWIDTH 16 0
BBX 16 16 0 -2
BITMAP
4004
7FFE
C00C
C418
3E18
00FC
0718
FED8
36D8
3618
3618
3678
2634
6606
47FE
83FC
ENDCHAR
STARTCHAR 51A2
ENCODING 20898
SWIDTH 960 0
DWIDTH 16 0
BBX 16 16 0 -2
BITMAP
4004
7FFE
C006
C028
3FF0
0380
0F18
7B98
17B0
0CC0
1FE0
63D0
06DE
1CCC
7384
0180
ENDCHAR
STARTCHAR 51A4
ENCODING 20900
SWIDTH 960 0
DWIDTH 16 0
BBX 16 16 0 -2
BITMAP
400C
7FFE
C60C
CCD0
0FE0
1980
3118
FFFC
3198
3198
3FF8
08F0
0ED8
1CC4
30FE
C07E
ENDCHAR
STARTCHAR 51A5
ENCODING 20901
SWIDTH 960 0
DWIDTH 16 0
BBX 16 16 0 -2
BITMAP
4004
7FFE
C00C
D030
1FF8
1830
1FF0
1830
1FF0
19B0
018C
FFFE
0400
0E38
180C
600C
ENDCHAR
STARTCHAR 51A6
ENCODING 20902
SWIDTH 960 0
DWIDTH 16 0
BBX 16 16 0 -2
BITMAP
400C
7FFE
C00C
C468
7E60
007C
0260
FFFC
368C
3658
3630
3678
278C
6604
47FE
83FC
ENDCHAR
STARTCHAR 51A8
ENCODING 20904
SWIDTH 960 0
DWIDTH 16 0
BBX 16 16 0 -2
BITMAP
4004
7FFE
C00C
DFF8
0000
1FF0
1830
1FF0
2008
3FFC
3198
3FF8
3198
3198
3FF8
3018
ENDCHAR
STARTCHAR 51A9
ENCODING 20905
SWIDTH 960 0
DWIDTH 16 0
BBX 16 16 0 -2
BITMAP
4004
7FFE
C006
C608
3FF8
3018
3EF8
3018
3FF8
0C04
1FFE
304C
C96C
2DAC
64B8
4018
ENDCHAR
STARTCHAR 51AA
ENCODING 20906
SWIDTH 960 0
DWIDTH 16 0
BBX 16 16 0 -2
BITMAP
4004
7FFE
C6C6
FFF8
06C0
1FF0
1830
1FF0
1834
FFFE
0DB0
1FF8
39BE
D9B4
19F0
0180
ENDCHAR
STARTCHAR 51AB
ENCODING 20907
SWIDTH 960 0
DWIDTH 16 0
BBX 16 16 0 -2
BITMAP
0400
0300
0180
0190
0020
0020
0040
0040
0080
0180
0980
0700
0300
0200
0300
0300
ENDCHAR
STARTCHAR 51AC
ENCODING 20908
SWIDTH 960 0
DWIDTH 16 0
BBX 16 16 0 -2
BITMAP
0600
0630
0FF8
1830
3460
C4C0
0380
03E0
0E7E
3B1C
C1C4
00C0
0000
0F00
01C0
00E0
ENDCHAR
STARTCHAR 51B0
ENCODING 20912
SWIDTH 960 0
DWIDTH 16 0
BBX 16 16 0 -2
BITMAP
0070
4060
3064
3066
096C
0FE8
11F8
11F0
3370
2378
6278
C66C
446E
6864
71E4
60C0
ENDCHAR
STARTCHAR 51B1
ENCODING 20913
SWIDTH 960 0
DWIDTH 16 0
BBX 16 16 0 -2
BITMAP
0018
4FFC
3180
3180
0998
09FC
0B18
1318
1318
3330
27F0
E630
6630
403C
7FFE
6000
ENDCHAR
STARTCHAR 51B2
ENCODING 20914
SWIDTH 960 0
DWIDTH 16 0
BBX 16 16 0 -2
BITMAP
0070
8060
6060
6466
0FFE
0E66
1666
1666
1666
37FE
2666
6060
E060
4060
6060
6060
ENDCHAR
STARTCHAR 51B3
ENCODING 20915
SWIDTH 960 0
DWIDTH 16 0
BBX 16 16 0 -2
BITMAP
00E0
40C0
30C8
37FC
08D8
08D8
08D8
10DC
1FFE
30C0
21A0
E1B0
6318
461E
6C0C
7004
ENDCHAR
STARTCHAR 51B4
ENCODING 20916
SWIDTH 960 0
DWIDTH 16 0
BBX 16 16 0 -2
BITMAP
4004
23FE
3198
3198
0998
0998
17FE
1078
20D8
60D8
C198
4318
6618
6C18
30F8
0030
ENDCHAR
STARTCHAR 51B5
ENCODING 20917
SWIDTH 960 0
DWIDTH 16 0
BBX 16 16 0 -2
BITMAP
040C
47FE
360C
360C
0E0C
0E0C
160C
17FC
1534
21B0
21B0
E334
6334
4636
643E
781C
ENDCHAR
STARTCHAR 51B6
ENCODING 20918
SWIDTH 960 0
DWIDTH 16 0
BBX 16 16 0 -2
BITMAP
00C0
40C0
2090
3188
350C
09FE
0FC4
1600
1218
33FC
6318
E318
4318
6318
63F8
0318
ENDCHAR
STARTCHAR 51B7
ENCODING 20919
SWIDTH 960 0
DWIDTH 16 0
BBX 16 16 0 -2
BITMAP
40C0
20C0
31B0
3118
032E
0BFC
0C04
100C
17FE
30CC
60CC
E0CC
40DC
60D8
60C0
00C0
ENDCHAR
STARTCHAR 51BD
ENCODING 20925
SWIDTH 960 0
DWIDTH 16 0
BBX 16 16 0 -2
BITMAP
00C6
9FE6
6306
6336
17F6
17B6
15B6
25B6
2FB6
2B36
7336
6236
C636
4406
680E
7004
ENDCHAR
STARTCHAR 51C4
ENCODING 20932
SWIDTH 960 0
DWIDTH 16 0
BBX 16 16 0 -2
BITMAP
00E0
80C4
5FFE
60C0
67F8
00D8
1FFE
10D8
27F8
2184
7FFE
E330
4660
47F0
61BC
6E1C
ENDCHAR
STARTCHAR 51C5
ENCODING 20933
SWIDTH 960 0
DWIDTH 16 0
BBX 16 16 0 -2
BITMAP
0806
8FFE
6C06
6CC6
1CD6
1FFE
2CC6
2CD6
2DF6
6DB6
4DB6
CDF6
CDB6
6C06
6FFE
6C06
ENDCHAR
STARTCHAR 51C6
ENCODING 20934
SWIDTH 960 0
DWIDTH 16 0
BBX 16 16 0 -2
BITMAP
0190
8198
4334
63FE
6660
0E60
1668
1FFC
1660
3668
27FC
E660
6660
466C
67FE
6600
ENDCHAR
STARTCHAR 51C9
ENCODING 20937
SWIDTH 960 0
DWIDTH 16 0
BBX 16 16 0 -2
BITMAP
00E0
80C0
60CC
6FFE
1408
17FC
1618
3618
2618
27F8
64C0
C6D8
CECC
6CC6
73C6
6180
ENDCHAR
STARTCHAR 51CB
ENCODING 20939
SWIDTH 960 0
DWIDTH 16 0
BBX 16 16 0 -2
BITMAP
080C
8FFE
4C0C
6CCC
6FFC
0CCC
1CCC
2FFC
2CCC
6DEC
ED2C
6D2C
49EC
690C
707C
2018
ENDCHAR
STARTCHAR 51CC
ENCODING 20940
SWIDTH 960 0
DWIDTH 16 0
BBX 16 16 0 -2
BITMAP
00C8
47FC
20C0
30CC
3FFE
0330
133E
1EDE
20C8
21FC
6318
CD30
40E0
60FE
639C
1C04
ENDCHAR
STARTCHAR 51CD
ENCODING 20941
SWIDTH 960 0
DWIDTH 16 0
BBX 16 16 0 -2
BITMAP
00E0
40CC
2FFE
30C0
37FE
0ECC
16CC
17FC
36CC
26CC
E7FC
41E0
63D0
66DE
6CCC
30C4
ENDCHAR
STARTCHAR 51D6
ENCODING 20950
SWIDTH 960 0
DWIDTH 16 0
BBX 16 16 0 -2
BITMAP
4330
6A68
2FFC
1E60
17F8
2660
67F8
C660
67FC
6600
0180
018C
FFFE
0180
0180
0180
ENDCHAR
STARTCHAR 51DB
ENCODING 20955
SWIDTH 960 0
DWIDTH 16 0
BBX 16 16 0 -2
BITMAP
00C4
8FFE
6000
67FC
16AC
16EC
160C
37FC
2010
23F8
6004
CFFE
C4C0
6EDC
69C6
7086
ENDCHAR
STARTCHAR 51DC
ENCODING 20956
SWIDTH 960 0
DWIDTH 16 0
BBX 16 16 0 -2
BITMAP
00E0
80CC
4FFE
6000
67FC
060C
16EC
16AC
37FC
2030
61CC
EFFE
41E0
43DE
66CC
78C4
ENDCHAR
STARTCHAR 51DD
ENCODING 20957
SWIDTH 960 0
DWIDTH 16 0
BBX 16 16 0 -2
BITMAP
0D04
8F7E
4E0C
6CA8
6FD8
17FE
141C
2F98
2E58
765E
EFD8
4658
67D8
6DF8
685E
108C
ENDCHAR
STARTCHAR 51E0
ENCODING 20960
SWIDTH 960 0
DWIDTH 16 0
BBX 16 16 0 -2
BITMAP
0860
0FF0
0C60
0C60
0C60
0C60
0C60
0C60
0C60
0C60
0C60
1864
1864
3066
207E
C03C
ENDCHAR
STARTCHAR 51E1
ENCODING 20961
SWIDTH 960 0
DWIDTH 16 0
BBX 16 16 0 -2
BITMAP
1060
1FF0
1860
1860
1860
1860
1E60
1B60
1B60
1860
1860
1864
1064
3066
207E
C03C
ENDCHAR
STARTCHAR 51E6
ENCODING 20966
SWIDTH 960 0
DWIDTH 16 0
BBX 16 16 0 -2
BITMAP
2088
32FC
3FD8
36D8
36D8
36D8
66D8
6CD8
ACD8
1C9A
199A
191E
360C
2600
43FE
80FC
ENDCHAR
STARTCHAR 51E7
ENCODING 20967
SWIDTH 960 0
DWIDTH 16 0
BBX 16 16 0 -2
BITMAP
4018
7FFC
6018
6318
6B58
6FF8
6B58
6B58
6B58
6B58
6B5A
6BDA
4B4C
430C
830E
0306
ENDCHAR
STARTCHAR 51E9
ENCODING 20969
SWIDTH 960 0
DWIDTH 16 0
BBX 16 16 0 -2
BITMAP
2018
3FFC
3018
3398
3318
3358
3FF8
3318
3798
3798
37DA
2F5A
6B4C
730C
430E
8006
ENDCHAR
STARTCHAR 51EA
ENCODING 20970
SWIDTH 960 0
DWIDTH 16 0
BBX 16 16 0 -2
BITMAP
2018
3FFC
3018
31D8
3198
3598
3598
3598
35F8
3598
359A
259A
658C
65AC
5FFE
8006
ENDCHAR
STARTCHAR 51ED
ENCODING 20973
SWIDTH 960 0
DWIDTH 16 0
BBX 16 16 0 -2
BITMAP
1038
3BFC
3064
77FE
B060
3068
37FC
3000
0FF0
0C60
0C60
0C60
0C64
1866
307E
C03C
ENDCHAR
STARTCHAR 51F0
ENCODING 20976
SWIDTH 960 0
DWIDTH 16 0
BBX 16 16 0 -2
BITMAP
2018
3FFC
3318
37D8
36D8
37D8
36D8
37D8
3058
3FF8
331A
37DA
230C
634C
5FEE
8006
ENDCHAR
STARTCHAR 51F1
ENCODING 20977
SWIDTH 960 0
DWIDTH 16 0
BBX 16 16 0 -2
BITMAP
1898
5AFC
5AD8
7ED8
00D8
FFD8
00D8
7ED8
66D8
7ED8
26D8
36DA
35DA
1E9A
F99E
620E
ENDCHAR
STARTCHAR 51F5
ENCODING 20981
SWIDTH 960 0
DWIDTH 16 0
BBX 16 16 0 -2
BITMAP
700E
600C
600C
600C
600C
600C
600C
600C
600C
600C
600C
600C
600C
600C
7FFC
600C
ENDCHAR
STARTCHAR 51F6
ENCODING 20982
SWIDTH 960 0
DWIDTH 16 0
BBX 16 16 0 -2
BITMAP
0020
7036
6036
6C66
6266
6366
61C6
6186
61C6
6366
6666
6C36
7036
6006
7FFE
6006
ENDCHAR
STARTCHAR 51F8
ENCODING 20984
SWIDTH 960 0
DWIDTH 16 0
BBX 16 16 0 -2
BITMAP
0860
0FF0
0C60
0C60
0C60
4C6C
7C7E
6C6C
600C
600C
600C
600C
600C
7FFC
600C
0000
ENDCHAR
STARTCHAR 51F9
ENCODING 20985
SWIDTH 960 0
DWIDTH 16 0
BBX 16 16 0 -2
BITMAP
0000
4646
7F7E
6666
6666
6666
6666
6666
67E6
6666
6006
6006
6006
7FFE
6006
6006
ENDCHAR
STARTCHAR 51FA
ENCODING 20986
SWIDTH 960 0
DWIDTH 16 0
BBX 16 16 0 -2
BITMAP
01C0
398E
318C
318C
318C
318C
3FFC
318C
0180
7186
6186
6186
6186
6186
7FFE
6006
ENDCHAR
STARTCHAR 51FD
ENCODING 20989
SWIDTH 960 0
DWIDTH 16 0
BBX 16 16 0 -2
BITMAP
000C
FFFE
0600
0680
6FCE
61AC
6DBC
67EC
658C
63CC
6DEC
7DBC
6BAC
610C
7FFC
600C
ENDCHAR
STARTCHAR 51FE
ENCODING 20990
SWIDTH 960 0
DWIDTH 16 0
BBX 16 16 0 -2
BITMAP
0020
1FF0
0060
0140
618E
7DFC
75BC
75BC
75EC
75AC
7FFC
73DC
610C
600C
7FFC
600C
ENDCHAR
STARTCHAR 5200
ENCODING 20992
SWIDTH 960 0
DWIDTH 16 0
BBX 16 16 0 -2
BITMAP
0000
000C
7FFE
060C
060C
060C
060C
060C
060C
060C
0C0C
0C0C
0818
1818
30F8
C030
ENDCHAR
STARTCHAR 5203
ENCODING 20995
SWIDTH 960 0
DWIDTH 16 0
BBX 16 16 0 -2
BITMAP
000C
FFFE
030C
030C
030C
330C
0F0C
030C
038C
03CC
06CC
060C
0C18
1818
30F8
C030
ENDCHAR
STARTCHAR 5204
ENCODING 20996
SWIDTH 960 0
DWIDTH 16 0
BBX 16 16 0 -2
BITMAP
0018
7FFC
0318
1318
1318
0B18
0F18
0618
0618
0730
0DB0
0CF0
187E
106C
21E0
C0C0
ENDCHAR
STARTCHAR 5206
ENCODING 20998
SWIDTH 960 0
DWIDTH 16 0
BBX 16 16 0 -2
BITMAP
0440
06E0
0C40
0C20
1830
101E
3FFC
C634
0630
0630
0630
0C30
0C30
1860
11E0
60C0
ENDCHAR
STARTCHAR 5207
ENCODING 20999
SWIDTH 960 0
DWIDTH 16 0
BBX 16 16 0 -2
BITMAP
3800
3006
33FE
3066
3466
3E66
3866
F066
3466
34C6
36C6
3EC6
1D8C
030C
027C
0C18
ENDCHAR
STARTCHAR 5208
ENCODING 21000
SWIDTH 960 0
DWIDTH 16 0
BBX 16 16 0 -2
BITMAP
0706
0606
0676
0666
C666
3666
1E66
0C66
0E66
0B66
1B66
1186
3186
2006
401E
800C
ENDCHAR
STARTCHAR 520A
ENCODING 21002
SWIDTH 960 0
DWIDTH 16 0
BBX 16 16 0 -2
BITMAP
0206
FF76
1866
1866
1866
1866
1B66
FFE6
1866
1866
1866
1866
1806
1806
181E
180C
ENDCHAR
STARTCHAR 520B
ENCODING 21003
SWIDTH 960 0
DWIDTH 16 0
BBX 16 16 0 -2
BITMAP
060E
1F0C
78EC
18CC
18CC
1ACC
FFCC
18CC
18CC
18CC
18CC
30CC
300C
200C
403C
8018
ENDCHAR
STARTCHAR 520E
ENCODING 21006
SWIDTH 960 0
DWIDTH 16 0
BBX 16 16 0 -2
BITMAP
1806
1806
31B6
3FF6
6BB6
5BB6
97B6
35B6
25B6
6DB6
4B36
9B36
3306
2606
4E1E
840C
ENDCHAR
STARTCHAR 5211
ENCODING 21009
SWIDTH 960 0
DWIDTH 16 0
BBX 16 16 0 -2
BITMAP
0106
7F86
3676
3666
3666
3666
FFE6
3666
3666
3666
3666
3666
2666
6606
461E
860C
ENDCHAR
STARTCHAR 5214
ENCODING 21012
SWIDTH 960 0
DWIDTH 16 0
BBX 16 16 0 -2
BITMAP
0E06
0C06
0D36
7FB6
0DB6
0DB6
0DB6
FFF6
0C36
0E36
0D36
19B6
1986
3006
601E
800C
ENDCHAR
STARTCHAR 5217
ENCODING 21015
SWIDTH 960 0
DWIDTH 16 0
BBX 16 16 0 -2
BITMAP
0306
FF86
1876
1966
1FE6
3366
3366
2366
7B66
8E66
0666
0C66
0C06
1806
101E
600C
ENDCHAR
STARTCHAR 521D
ENCODING 21021
SWIDTH 960 0
DWIDTH 16 0
BBX 16 16 0 -2
BITMAP
3800
3006
35FE
FE66
0C66
0C66
1A66
1E66
3C66
7666
B4C6
30C6
30CC
318C
313C
3618
ENDCHAR
STARTCHAR 5224
ENCODING 21028
SWIDTH 960 0
DWIDTH 16 0
BBX 16 16 0 -2
BITMAP
1C0E
9B0C
5BEC
7ECC
58CC
1ACC
FFCC
18CC
18CC
1ACC
FFCC
18CC
180C
180C
187C
1818
ENDCHAR
STARTCHAR 5225
ENCODING 21029
SWIDTH 960 0
DWIDTH 16 0
BBX 16 16 0 -2
BITMAP
4106
7F76
6366
6366
6366
7F66
5866
1A66
1F66
1B66
3366
3366
3306
6606
4E3E
840C
ENDCHAR
STARTCHAR 5227
ENCODING 21031
SWIDTH 960 0
DWIDTH 16 0
BBX 16 16 0 -2
BITMAP
1C00
1806
19FE
7E66
1866
1866
1B66
FFE6
1866
30C6
34CC
26CC
FE8C
E38C
0138
0218
ENDCHAR
STARTCHAR 5229
ENCODING 21033
SWIDTH 960 0
DWIDTH 16 0
BBX 16 16 0 -2
BITMAP
060E
1F0C
F8EC
18CC
1ACC
FFCC
18CC
3CCC
3ECC
7ACC
58CC
98CC
180C
180C
187C
1818
ENDCHAR
STARTCHAR 522A
ENCODING 21034
SWIDTH 960 0
DWIDTH 16 0
BBX 16 16 0 -2
BITMAP
40C6
7FE6
6ADE
6AD6
6AD6
6AD6
6AD6
FFF6
6AD6
6AD6
6AD6
6AD6
6AC6
6AC6
6BDE
608C
ENDCHAR
STARTCHAR 522E
ENCODING 21038
SWIDTH 960 0
DWIDTH 16 0
BBX 16 16 0 -2
BITMAP
0306
1F86
FC76
0C66
0D66
FFE6
0C66
0C66
4D66
7FE6
6366
6366
6306
6306
7F1E
630C
ENDCHAR
STARTCHAR 5230
ENCODING 21040
SWIDTH 960 0
DWIDTH 16 0
BBX 16 16 0 -2
BITMAP
0606
FF06
3076
3466
2666
FF66
E366
1A66
1866
1A66
FF66
1866
1806
1F06
F83E
E00C
ENDCHAR
STARTCHAR 5233
ENCODING 21043
SWIDTH 960 0
DWIDTH 16 0
BBX 16 16 0 -2
BITMAP
0C06
0D06
FFF6
1C36
3B36
61F6
BEB6
0036
7FB6
1836
1FB6
3336
0306
0306
0E1E
040C
ENDCHAR
STARTCHAR 5236
ENCODING 21046
SWIDTH 960 0
DWIDTH 16 0
BBX 16 16 0 -2
BITMAP
4E06
6C06
6D36
7FB6
CC36
8DB6
FFF6
0C36
7FB6
6DB6
6DB6
6DB6
6D86
6F86
6D1E
0C0C
ENDCHAR
STARTCHAR 5237
ENCODING 21047
SWIDTH 960 0
DWIDTH 16 0
BBX 16 16 0 -2
BITMAP
4186
7FB6
61B6
61B6
7FB6
6636
66B6
7FB6
76B6
76B6
76B6
76B6
5786
5686
861E
060C
ENDCHAR
STARTCHAR 5238
ENCODING 21048
SWIDTH 960 0
DWIDTH 16 0
BBX 16 16 0 -2
BITMAP
1998
0DB8
0DA0
7FFC
0380
034C
FFFE
0660
0C30
3FFE
E33C
0634
0630
0C30
19E0
60C0
ENDCHAR
STARTCHAR 5239
ENCODING 21049
SWIDTH 960 0
DWIDTH 16 0
BBX 16 16 0 -2
BITMAP
0206
6706
1E76
1C66
3766
C366
0C66
0D66
FFE6
1C66
3E66
2F66
4D06
8C06
0C1E
0C0C
ENDCHAR
STARTCHAR 523A
ENCODING 21050
SWIDTH 960 0
DWIDTH 16 0
BBX 16 16 0 -2
BITMAP
0E06
0C86
FFB6
0C36
4DB6
7FB6
6DB6
6DB6
6FB6
6D36
1C36
1E36
3F06
2D06
4C1E
8C0C
ENDCHAR
STARTCHAR 523B
ENCODING 21051
SWIDTH 960 0
DWIDTH 16 0
BBX 16 16 0 -2
BITMAP
1C06
1876
1B66
FFE6
1866
1366
7766
3666
1C66
1B66
3366
C666
0C06
1B06
319E
C18C
ENDCHAR
STARTCHAR 5243
ENCODING 21059
SWIDTH 960 0
DWIDTH 16 0
BBX 16 16 0 -2
BITMAP
6306
3706
3436
FFB6
1B36
5B36
7F36
D836
D9B6
FFB6
39B6
79B6
5B06
9F06
1A3E
180C
ENDCHAR
STARTCHAR 5244
ENCODING 21060
SWIDTH 960 0
DWIDTH 16 0
BBX 16 16 0 -2
BITMAP
0086
7FC6
24B6
36F6
6DB6
4936
6DB6
36F6
0136
7FB6
0C36
0C36
0FC6
7E06
701E
000C
ENDCHAR
STARTCHAR 5247
ENCODING 21063
SWIDTH 960 0
DWIDTH 16 0
BBX 16 16 0 -2
BITMAP
4206
7F06
6676
6666
7E66
6666
6666
6666
7E66
6666
6666
6666
7E06
6606
631E
830C
ENDCHAR
STARTCHAR 524A
ENCODING 21066
SWIDTH 960 0
DWIDTH 16 0
BBX 16 16 0 -2
BITMAP
8C86
6DC6
7FB6
2C36
7FB6
61B6
61B6
7FB6
61B6
61B6
7FB6
6186
6186
6186
679E
630C
ENDCHAR
STARTCHAR 524B
ENCODING 21067
SWIDTH 960 0
DWIDTH 16 0
BBX 16 16 0 -2
BITMAP
1C1C
1A18
FFD8
18D8
18D8
7ED8
66D8
66D8
66D8
7ED8
2C18
6C38
6C14
4C06
4FFE
87FC
ENDCHAR
STARTCHAR 524C
ENCODING 21068
SWIDTH 960 0
DWIDTH 16 0
BBX 16 16 0 -2
BITMAP
0E0E
0D0C
FF8C
0C6C
0C6C
7F6C
6D6C
6D6C
7F6C
1C6C
1E6C
3F6C
2D0C
4C0C
8C3C
0C18
ENDCHAR
STARTCHAR 524D
ENCODING 21069
SWIDTH 960 0
DWIDTH 16 0
BBX 16 16 0 -2
BITMAP
0C70
0664
FFFE
0000
460E
7F6C
666C
666C
7E6C
666C
666C
7E6C
666C
660C
6E3C
6C18
ENDCHAR
STARTCHAR 524F
ENCODING 21071
SWIDTH 960 0
DWIDTH 16 0
BBX 16 16 0 -2
BITMAP
4C0C
6DFE
296C
FF6C
6D6C
6D6C
6CEC
FFEC
6CEC
6C6C
6CFC
6CF8
6C9E
4D9C
4D74
8230
ENDCHAR
STARTCHAR 5254
ENCODING 21076
SWIDTH 960 0
DWIDTH 16 0
BBX 16 16 0 -2
BITMAP
410E
7F8C
636C
7F6C
636C
7F6C
186C
396C
3FEC
7F6C
B76C
2D6C
DB0C
360C
CE3C
0C18
ENDCHAR
STARTCHAR 5256
ENCODING 21078
SWIDTH 960 0
DWIDTH 16 0
BBX 16 16 0 -2
BITMAP
0C06
0D76
7F66
2666
3666
3566
FFE6
0066
4166
7FE6
6366
6366
6366
6306
7F1E
630C
ENDCHAR
STARTCHAR 525B
ENCODING 21083
SWIDTH 960 0
DWIDTH 16 0
BBX 16 16 0 -2
BITMAP
8186
FFC6
C1B6
E3B6
F7B6
D5B6
FFB6
C9B6
C9B6
EBB6
EBB6
EBB6
FF86
E186
C79E
C30C
ENDCHAR
STARTCHAR 525E
ENCODING 21086
SWIDTH 960 0
DWIDTH 16 0
BBX 16 16 0 -2
BITMAP
0E06
0C86
FFF6
0E36
1BB6
31B6
4036
FFF6
01B6
7DB6
6DB6
6DB6
7D86
6186
079E
030C
ENDCHAR
STARTCHAR 5263
ENCODING 21091
SWIDTH 960 0
DWIDTH 16 0
BBX 16 16 0 -2
BITMAP
0C06
0E76
1B66
31E6
7F66
8C66
7F66
6D66
6D66
7F66
4C66
1E66
1B06
3186
219E
C00C
ENDCHAR
STARTCHAR 5264
ENCODING 21092
SWIDTH 960 0
DWIDTH 16 0
BBX 16 16 0 -2
BITMAP
1C06
19B6
FFF6
1336
1636
0C36
3FF6
F3B6
3336
3F36
3336
3336
3F06
2306
633E
830C
ENDCHAR
STARTCHAR 5265
ENCODING 21093
SWIDTH 960 0
DWIDTH 16 0
BBX 16 16 0 -2
BITMAP
060E
7F6C
066C
7E6C
066C
066C
FFEC
8D6C
6DEC
6F6C
1C6C
2F6C
ED8C
CD8C
1C3C
0818
ENDCHAR
STARTCHAR 5269
ENCODING 21097
SWIDTH 960 0
DWIDTH 16 0
BBX 16 16 0 -2
BITMAP
070C
7F8C
0C6C
FFEC
0C6C
2D6C
EDEC
2D6C
EDEC
BDEC
1E6C
3F6C
6D0C
8C0C
0C3C
0C18
ENDCHAR
STARTCHAR 526A
ENCODING 21098
SWIDTH 960 0
DWIDTH 16 0
BBX 16 16 0 -2
BITMAP
1870
0C6C
FFFE
0000
7EDC
76D8
6ED8
76D8
6E18
6638
0014
FFFE
030C
060C
1C78
E030
ENDCHAR
STARTCHAR 526F
ENCODING 21103
SWIDTH 960 0
DWIDTH 16 0
BBX 16 16 0 -2
BITMAP
030E
FFEC
426C
7F6C
666C
666C
7E6C
816C
FFEC
DB6C
DB6C
FF6C
DB0C
DB0C
FF7C
C318
ENDCHAR
STARTCHAR 5270
ENCODING 21104
SWIDTH 960 0
DWIDTH 16 0
BBX 16 16 0 -2
BITMAP
0306
0F86
7C36
0C36
FFF6
6DB6
FFF6
6DB6
6DB6
FFF6
1C36
1F36
3D86
2D86
6C1E
8C0C
ENDCHAR
STARTCHAR 5271
ENCODING 21105
SWIDTH 960 0
DWIDTH 16 0
BBX 16 16 0 -2
BITMAP
1804
1EFE
3336
31B6
7FB6
8C36
7F76
6D76
6D26
7F76
0C7C
1FCE
1BCE
318C
213C
C218
ENDCHAR
STARTCHAR 5272
ENCODING 21106
SWIDTH 960 0
DWIDTH 16 0
BBX 16 16 0 -2
BITMAP
0E06
4CB6
FFF6
CDB6
0C36
7F36
0C36
7F36
0C36
FFB6
0136
7FB6
6306
6306
7F1E
630C
ENDCHAR
STARTCHAR 5273
ENCODING 21107
SWIDTH 960 0
DWIDTH 16 0
BBX 16 16 0 -2
BITMAP
3306
3346
FFF6
3336
0C36
0C36
1A36
1B36
3FB6
61F6
A1B6
3FB6
3306
3306
3F1E
330C
ENDCHAR
STARTCHAR 5274
ENCODING 21108
SWIDTH 960 0
DWIDTH 16 0
BBX 16 16 0 -2
BITMAP
0C0E
6D0C
6D6C
7F6C
616C
036C
FFEC
006C
7F6C
636C
636C
7F6C
260C
340C
FFBC
7818
ENDCHAR
STARTCHAR 5275
ENCODING 21109
SWIDTH 960 0
DWIDTH 16 0
BBX 16 16 0 -2
BITMAP
180E
1E6C
336C
3F6C
626C
BF6C
336C
3F6C
336C
3F6C
306C
7F6C
730C
B30C
3F7C
3318
ENDCHAR
STARTCHAR 527D
ENCODING 21117
SWIDTH 960 0
DWIDTH 16 0
BBX 16 16 0 -2
BITMAP
0086
FFC6
0A36
7FB6
6AB6
6AB6
7FB6
0136
7FB6
00B6
FFF6
4E36
6D86
4D86
9C9E
080C
ENDCHAR
STARTCHAR 527F
ENCODING 21119
SWIDTH 960 0
DWIDTH 16 0
BBX 16 16 0 -2
BITMAP
6D8C
DB0C
926C
DB6C
496C
7F6C
6D6C
7F6C
6D6C
7F6C
0C6C
FFEC
3E0C
3F0C
6D3C
8C18
ENDCHAR
STARTCHAR 5283
ENCODING 21123
SWIDTH 960 0
DWIDTH 16 0
BBX 16 16 0 -2
BITMAP
1906
7F86
1B36
FFF6
1B36
7F36
1836
FFF6
7F36
6B36
7F36
6B36
7F06
01C6
FE1E
700C
ENDCHAR
STARTCHAR 5287
ENCODING 21127
SWIDTH 960 0
DWIDTH 16 0
BBX 16 16 0 -2
BITMAP
0D06
0F86
4C36
7FF6
6DB6
7F36
6CB6
67B6
7FF6
6636
6F76
7BB6
6F86
47C6
5B5E
820C
ENDCHAR
STARTCHAR 5288
ENCODING 21128
SWIDTH 960 0
DWIDTH 16 0
BBX 16 16 0 -2
BITMAP
4268
7FFC
6698
7ED4
63FE
6060
7E68
B7FC
BE60
006C
7FFE
030C
060C
0E0C
1878
E010
ENDCHAR
STARTCHAR 5289
ENCODING 21129
SWIDTH 960 0
DWIDTH 16 0
BBX 16 16 0 -2
BITMAP
510E
7F8C
456C
556C
F76C
D96C
1C6C
366C
73EC
5F6C
8C6C
7F6C
6D0C
2E0C
FFBC
F018
ENDCHAR
STARTCHAR 528D
ENCODING 21133
SWIDTH 960 0
DWIDTH 16 0
BBX 16 16 0 -2
BITMAP
0C06
0E06
1936
31B6
61F6
BEB6
0036
7BF6
6B76
6B76
7BF6
31B6
3D86
6FC6
42DE
840C
ENDCHAR
STARTCHAR 5291
ENCODING 21137
SWIDTH 960 0
DWIDTH 16 0
BBX 16 16 0 -2
BITMAP
0646
FFE6
1116
0A56
F5D6
5556
5576
B5B6
0016
31D6
3F96
3196
3F96
3186
618E
C184
ENDCHAR
STARTCHAR 5292
ENCODING 21138
SWIDTH 960 0
DWIDTH 16 0
BBX 16 16 0 -2
BITMAP
1804
1EFE
3336
31B6
5FB6
8076
7776
55F6
55A6
7766
2266
77CC
55CC
448C
893C
0218
ENDCHAR
STARTCHAR 5294
ENCODING 21140
SWIDTH 960 0
DWIDTH 16 0
BBX 16 16 0 -2
BITMAP
1804
1EFE
3336
31B6
5FB6
8036
7776
5576
5526
7776
227C
77CE
55CE
448C
893C
0218
ENDCHAR
STARTCHAR 529B
ENCODING 21147
SWIDTH 960 0
DWIDTH 16 0
BBX 16 16 0 -2
BITMAP
0380
0300
0300
030C
FFFE
030C
030C
030C
030C
060C
060C
060C
0C18
1818
30F8
C030
ENDCHAR
STARTCHAR 529F
ENCODING 21151
SWIDTH 960 0
DWIDTH 16 0
BBX 16 16 0 -2
BITMAP
00E0
00C0
08C0
FCC6
33FE
30C6
30C6
30C6
30C6
30C6
3D86
F186
C106
030C
063C
1818
ENDCHAR
STARTCHAR 52A0
ENCODING 21152
SWIDTH 960 0
DWIDTH 16 0
BBX 16 16 0 -2
BITMAP
1C00
1800
1B46
FF7E
1B66
1B66
1B66
1B66
1B66
1B66
3366
3366
337E
6E66
4660
8400
ENDCHAR
STARTCHAR 52A3
ENCODING 21155
SWIDTH 960 0
DWIDTH 16 0
BBX 16 16 0 -2
BITMAP
01C0
1998
1D8C
31B6
C3F6
01C0
0F00
7180
018C
7FFE
030C
030C
060C
0C18
1878
6030
ENDCHAR
STARTCHAR 52A9
ENCODING 21161
SWIDTH 960 0
DWIDTH 16 0
BBX 16 16 0 -2
BITMAP
0070
4660
7F60
6666
67FE
7E66
6666
6666
7E66
6666
6646
66C6
6FCC
F88C
C13C
0618
ENDCHAR
STARTCHAR 52AA
ENCODING 21162
SWIDTH 960 0
DWIDTH 16 0
BBX 16 16 0 -2
BITMAP
1C04
19FE
FF4C
364C
6638
7C30
1E7E
378C
C308
7FFC
0318
0618
0618
0C30
19F0
6060
ENDCHAR
STARTCHAR 52AB
ENCODING 21163
SWIDTH 960 0
DWIDTH 16 0
BBX 16 16 0 -2
BITMAP
1C38
1830
1A30
7E30
1836
19FE
1A36
FF36
1836
3436
3266
2366
3F6C
F2CC
C1BC
0618
ENDCHAR
STARTCHAR 52AC
ENCODING 21164
SWIDTH 960 0
DWIDTH 16 0
BBX 16 16 0 -2
BITMAP
1838
1830
3130
3FB6
637E
8336
7B36
6B36
6B36
6B36
7B66
6666
0666
1ECC
0CBC
0108
ENDCHAR
STARTCHAR 52AD
ENCODING 21165
SWIDTH 960 0
DWIDTH 16 0
BBX 16 16 0 -2
BITMAP
0070
0260
FF60
3366
33FE
6366
4E66
8666
8266
FF66
C646
C6C6
C6CC
FF8C
C13C
0618
ENDCHAR
STARTCHAR 52B1
ENCODING 21169
SWIDTH 960 0
DWIDTH 16 0
BBX 16 16 0 -2
BITMAP
4138
7FB0
6030
6130
7FB6
6C7E
6CB6
6FB6
6DB6
6DB6
6DB6
6DA6
49A6
5B6C
975C
6698
ENDCHAR
STARTCHAR 52B4
ENCODING 21172
SWIDTH 960 0
DWIDTH 16 0
BBX 16 16 0 -2
BITMAP
2218
1B18
19B0
4DA4
7FFE
C20C
C318
3FF8
0318
0318
0618
0618
0C18
1830
30F0
C060
ENDCHAR
STARTCHAR 52B5
ENCODING 21173
SWIDTH 960 0
DWIDTH 16 0
BBX 16 16 0 -2
BITMAP
11B0
1998
318C
3FFC
4340
074C
FFFE
0E60
1B38
333E
DFF4
0330
0630
0C30
18E0
6060
ENDCHAR
STARTCHAR 52B9
ENCODING 21177
SWIDTH 960 0
DWIDTH 16 0
BBX 16 16 0 -2
BITMAP
1C70
1860
FF60
2066
36FE
3366
6366
6466
9E66
0C66
1C66
1EC6
36C6
258C
413C
8618
ENDCHAR
STARTCHAR 52BC
ENCODING 21180
SWIDTH 960 0
DWIDTH 16 0
BBX 16 16 0 -2
BITMAP
1C38
1830
1A30
FF30
1836
1AFE
7F36
0036
4236
7F66
6666
6666
66CC
7E8C
613C
0618
ENDCHAR
STARTCHAR 52BE
ENCODING 21182
SWIDTH 960 0
DWIDTH 16 0
BBX 16 16 0 -2
BITMAP
1C38
1830
1A30
FF36
30FE
3436
CE36
6C36
3A36
3336
2766
C666
0C66
1ECC
36BC
C118
ENDCHAR
STARTCHAR 52C1
ENCODING 21185
SWIDTH 960 0
DWIDTH 16 0
BBX 16 16 0 -2
BITMAP
0138
FFB0
4930
6DB6
DB7E
9236
DB36
6DB6
24B6
FF36
1866
1866
1F46
F8C6
C09C
010C
ENDCHAR
STARTCHAR 52C3
ENCODING 21187
SWIDTH 960 0
DWIDTH 16 0
BBX 16 16 0 -2
BITMAP
1C70
1A60
FF60
186C
59FE
7F6C
C26C
C46C
7E6C
0C6C
186C
FF4C
D8CC
1898
7978
1210
ENDCHAR
STARTCHAR 52C5
ENCODING 21189
SWIDTH 960 0
DWIDTH 16 0
BBX 16 16 0 -2
BITMAP
0C38
0D30
FFB0
0C36
4CFE
7FB6
6DB6
6DB6
7FB6
1C66
3E66
2F66
6CCC
4C8C
8D3C
0E18
ENDCHAR
STARTCHAR 52C7
ENCODING 21191
SWIDTH 960 0
DWIDTH 16 0
BBX 16 16 0 -2
BITMAP
0010
3FF8
0030
0360
2188
3FFC
3198
3FF8
3198
3FF8
030C
FFFE
030C
060C
0C38
7018
ENDCHAR
STARTCHAR 52C9
ENCODING 21193
SWIDTH 960 0
DWIDTH 16 0
BBX 16 16 0 -2
BITMAP
3470
3E60
6C60
8864
11FE
FE6C
D66C
D66C
D66C
FECC
4CCC
6CB8
6D18
6C04
4FFE
87FC
ENDCHAR
STARTCHAR 52CD
ENCODING 21197
SWIDTH 960 0
DWIDTH 16 0
BBX 16 16 0 -2
BITMAP
0C38
0D30
FFB0
0030
4136
7FFE
6336
6336
7F36
0C66
6E66
6F66
4D4C
8CCC
3CBC
0918
ENDCHAR
STARTCHAR 52D2
ENCODING 21202
SWIDTH 960 0
DWIDTH 16 0
BBX 16 16 0 -2
BITMAP
3338
3230
FFB0
3236
3FFE
0C36
7F36
6D36
6D36
7F66
0C66
0D66
FFCC
0CCC
0CBC
0D18
ENDCHAR
STARTCHAR 52D5
ENCODING 21205
SWIDTH 960 0
DWIDTH 16 0
BBX 16 16 0 -2
BITMAP
0C70
FE60
1860
FE66
19FE
FE66
DA66
FE66
DA66
DA66
FEC6
18C6
FECC
198C
FD7C
E218
ENDCHAR
STARTCHAR 52D7
ENCODING 21207
SWIDTH 960 0
DWIDTH 16 0
BBX 16 16 0 -2
BITMAP
1008
1FFC
1818
1FF8
1818
1FF8
4230
7F36
66FE
7E36
6636
7E66
6666
FF46
F086
011C
ENDCHAR
STARTCHAR 52D8
ENCODING 21208
SWIDTH 960 0
DWIDTH 16 0
BBX 16 16 0 -2
BITMAP
3638
3630
FFB0
3636
3EFE
3636
3E36
36B6
FFB6
6C36
6DB6
77B6
6366
606C
7F5C
608C
ENDCHAR
STARTCHAR 52D9
ENCODING 21209
SWIDTH 960 0
DWIDTH 16 0
BBX 16 16 0 -2
BITMAP
0260
7F64
06FE
4498
3D58
1870
0B3E
FFCC
1B64
3C64
39FE
786C
58CC
98CC
79B8
3618
ENDCHAR
STARTCHAR 52DD
ENCODING 21213
SWIDTH 960 0
DWIDTH 16 0
BBX 16 16 0 -2
BITMAP
4534
7DB6
6DF6
6CB8
6DFE
7C30
6FFE
6C68
6CCE
7D6E
6FFC
6C6C
6CCC
4CCC
5DB8
9A18
ENDCHAR
STARTCHAR 52DE
ENCODING 21214
SWIDTH 960 0
DWIDTH 16 0
BBX 16 16 0 -2
BITMAP
0810
2A54
6EDC
58B0
162C
2244
7FFE
C306
C328
3FF0
0630
0630
0C30
0C60
19E0
60C0
ENDCHAR
STARTCHAR 52DF
ENCODING 21215
SWIDTH 960 0
DWIDTH 16 0
BBX 16 16 0 -2
BITMAP
0C64
FFFE
0C60
1FF0
1830
1FF0
1830
1FF0
060C
FFFE
0DB0
1FFE
333C
C634
0CE0
3060
ENDCHAR
STARTCHAR 52E0
ENCODING 21216
SWIDTH 960 0
DWIDTH 16 0
BBX 16 16 0 -2
BITMAP
0038
F7B0
73B0
B5B6
73FE
F7B6
0DB6
1C36
37B6
D936
3666
6C66
1B4C
66CC
0C9C
F108
ENDCHAR
STARTCHAR 52E2
ENCODING 21218
SWIDTH 960 0
DWIDTH 16 0
BBX 16 16 0 -2
BITMAP
1870
7E64
19FE
FE6C
6DEC
D64C
7EEC
19B6
FF06
E30C
3FFE
060C
060C
0C0C
1878
E030
ENDCHAR
STARTCHAR 52E3
ENCODING 21219
SWIDTH 960 0
DWIDTH 16 0
BBX 16 16 0 -2
BITMAP
1A38
FF30
1830
7E30
1936
FFFE
4236
7F36
6636
7E66
6666
7E66
664C
7ECC
77BC
C318
ENDCHAR
STARTCHAR 52E4
ENCODING 21220
SWIDTH 960 0
DWIDTH 16 0
BBX 16 16 0 -2
BITMAP
6C70
FF60
6C60
0060
FE66
B7FE
B666
FE66
3066
FE66
3066
FEC6
30CC
3F8C
F13C
C618
ENDCHAR
STARTCHAR 52E6
ENCODING 21222
SWIDTH 960 0
DWIDTH 16 0
BBX 16 16 0 -2
BITMAP
6DB8
4930
6DB0
0136
7FFE
6D36
7F36
6D36
7F36
0C66
FFE6
1C66
3F4C
2EDC
4C8C
8D08
ENDCHAR
STARTCHAR 52E7
ENCODING 21223
SWIDTH 960 0
DWIDTH 16 0
BBX 16 16 0 -2
BITMAP
3038
3230
7FB0
D836
18FE
FF36
3636
6C36
FF36
6C36
7F36
6C36
7F26
6C6C
7F5C
608C
ENDCHAR
STARTCHAR 52F2
ENCODING 21234
SWIDTH 960 0
DWIDTH 16 0
BBX 16 16 0 -2
BITMAP
0638
7F30
0C30
FFB6
0CFE
7F36
6D36
7F36
6D36
7F66
0C66
7F5C
0C8C
FF98
CCCC
CCCC
ENDCHAR
STARTCHAR 52F3
ENCODING 21235
SWIDTH 960 0
DWIDTH 16 0
BBX 16 16 0 -2
BITMAP
0738
7FB0
0C30
FFB6
0C7E
7F36
6F36
5D36
7F36
0C26
7F66
0D66
FFEC
554C
FF7C
D598
ENDCHAR
STARTCHAR 52F5
ENCODING 21237
SWIDTH 960 0
DWIDTH 16 0
BBX 16 16 0 -2
BITMAP
0038
7FF0
4030
4B30
7FB6
4B7E
5FB6
56B6
5FB6
56B6
5FB6
4626
BFA6
B5EC
BFDC
B188
ENDCHAR
STARTCHAR 52F8
ENCODING 21240
SWIDTH 960 0
DWIDTH 16 0
BBX 16 16 0 -2
BITMAP
3338
FFB0
3330
7730
5536
77FE
3636
6C36
7FB6
B636
3F26
3626
3F6C
364C
3FFC
3098
ENDCHAR
STARTCHAR 52F9
ENCODING 21241
SWIDTH 960 0
DWIDTH 16 0
BBX 16 16 0 -2
BITMAP
0800
0C00
0C0C
1FFE
180C
300C
200C
400C
800C
000C
0018
0018
0018
0030
00F0
0060
ENDCHAR
STARTCHAR 52FA
ENCODING 21242
SWIDTH 960 0
DWIDTH 16 0
BBX 16 16 0 -2
BITMAP
0C00
0C00
180C
1FFE
300C
280C
460C
830C
038C
010C
000C
000C
0018
0018
01F0
0060
ENDCHAR
STARTCHAR 52FE
ENCODING 21246
SWIDTH 960 0
DWIDTH 16 0
BBX 16 16 0 -2
BITMAP
0800
0C00
180C
1FFE
300C
260C
460C
8C0C
0D0C
088C
138C
7ECC
70CC
0018
00F8
0030
ENDCHAR
STARTCHAR 52FF
ENCODING 21247
SWIDTH 960 0
DWIDTH 16 0
BBX 16 16 0 -2
BITMAP
0C00
0C00
180C
1FFE
36CC
66CC
8CCC
0CCC
18CC
118C
618C
0318
0618
0C18
70F0
0060
ENDCHAR
STARTCHAR 5301
ENCODING 21249
SWIDTH 960 0
DWIDTH 16 0
BBX 16 16 0 -2
BITMAP
0C00
0C04
0FFE
198C
198C
358C
258C
430C
830C
0798
06D8
0C7E
183C
3064
C1E0
00C0
ENDCHAR
STARTCHAR 5302
ENCODING 21250
SWIDTH 960 0
DWIDTH 16 0
BBX 16 16 0 -2
BITMAP
0C00
0C0C
1FFE
180C
300C
78CC
99CC
1F0C
184C
184C
186C
1FEC
0FD8
0018
00F8
0030
ENDCHAR
STARTCHAR 5305
ENCODING 21253
SWIDTH 960 0
DWIDTH 16 0
BBX 16 16 0 -2
BITMAP
0C00
0C18
1FFC
1818
3198
7FD8
8198
0198
1198
1F98
19B0
1874
1824
1806
1FFE
0FFC
ENDCHAR
STARTCHAR 5306
ENCODING 21254
SWIDTH 960 0
DWIDTH 16 0
BBX 16 16 0 -2
BITMAP
0C00
0C06
1FFE
19A6
31B6
6336
9B66
0766
07E6
0CC6
19EC
616C
030C
0618
1878
6030
ENDCHAR
STARTCHAR 5308
ENCODING 21256
SWIDTH 960 0
DWIDTH 16 0
BBX 16 16 0 -2
BITMAP
1800
1806
1FFE
3006
2006
7166
B9E6
3766
3266
3766
39E6
306C
3FEC
302C
0078
0030
ENDCHAR
STARTCHAR 530D
ENCODING 21261
SWIDTH 960 0
DWIDTH 16 0
BBX 16 16 0 -2
BITMAP
1800
1806
3FFE
30C6
6366
BFF6
0306
3FF6
3366
3FE6
3366
3FE6
3366
336C
33FC
3358
ENDCHAR
STARTCHAR 530F
ENCODING 21263
SWIDTH 960 0
DWIDTH 16 0
BBX 16 16 0 -2
BITMAP
1860
1A64
FF7E
3CC6
6786
4A96
BCFE
02D6
FFD6
30DE
7EFC
66D4
06C0
0CC4
3CFE
187C
ENDCHAR
STARTCHAR 5310
ENCODING 21264
SWIDTH 960 0
DWIDTH 16 0
BBX 16 16 0 -2
BITMAP
1800
1806
3FFE
3046
6FE6
8006
1FC6
18C6
1FC6
0006
3FE6
336C
3FEC
336C
3FF8
0018
ENDCHAR
STARTCHAR 5315
ENCODING 21269
SWIDTH 960 0
DWIDTH 16 0
BBX 16 16 0 -2
BITMAP
1C00
1800
1800
1810
1838
1870
18C0
1B80
1E00
7800
1800
1808
1808
180C
1FFC
0FF8
ENDCHAR
STARTCHAR 5316
ENCODING 21270
SWIDTH 960 0
DWIDTH 16 0
BBX 16 16 0 -2
BITMAP
11C0
1D80
1980
3988
319C
7198
71B0
B1E0
3180
3180
3180
3184
3184
3186
31FE
30FC
ENDCHAR
STARTCHAR 5317
ENCODING 21271
SWIDTH 960 0
DWIDTH 16 0
BBX 16 16 0 -2
BITMAP
0EE0
0CC0
0CC0
0CCC
0CCC
FCD8
0CF0
0CC0
0CC0
0CC0
3CC4
ECC4
4CC6
0CFE
0C7C
0C00
ENDCHAR
STARTCHAR 5319
ENCODING 21273
SWIDTH 960 0
DWIDTH 16 0
BBX 16 16 0 -2
BITMAP
42E0
7EC0
66C0
7ECC
66CC
7ED8
00F0
FFC0
18C4
5AC4
5EC6
58FE
587C
7800
9FFE
87FC
ENDCHAR
STARTCHAR 531A
ENCODING 21274
SWIDTH 960 0
DWIDTH 16 0
BBX 16 16 0 -2
BITMAP
4018
7FFC
6000
6000
6000
6000
6000
6000
6000
6000
6000
6000
6000
600C
7FFE
6000
ENDCHAR
STARTCHAR 531D
ENCODING 21277
SWIDTH 960 0
DWIDTH 16 0
BBX 16 16 0 -2
BITMAP
4018
7FFC
6000
61C0
6998
6FFC
6D98
6D98
6D98
6D98
6DF8
6DB0
6180
618C
7FFE
6000
ENDCHAR
STARTCHAR 5320
ENCODING 21280
SWIDTH 960 0
DWIDTH 16 0
BBX 16 16 0 -2
BITMAP
400C
7FFE
6000
6030
64F8
6780
6608
67FC
6660
6460
6C60
6860
7060
600C
7FFE
6000
ENDCHAR
STARTCHAR 5321
ENCODING 21281
SWIDTH 960 0
DWIDTH 16 0
BBX 16 16 0 -2
BITMAP
400C
7FFE
6000
6018
6FFC
60C0
60D0
67F8
60C0
60C0
60D8
6FFC
6000
600C
7FFE
6000
ENDCHAR
STARTCHAR 5323
ENCODING 21283
SWIDTH 960 0
DWIDTH 16 0
BBX 16 16 0 -2
BITMAP
4018
7FFC
6000
6FF8
6CD8
6CD8
6FF8
6CD8
6CD8
6FF8
6CD8
60C0
60C0
60CC
7FFE
6000
ENDCHAR
STARTCHAR 532A
ENCODING 21290
SWIDTH 960 0
DWIDTH 16 0
BBX 16 16 0 -2
BITMAP
400C
7FFE
6000
6368
7F7C
6360
6360
6F78
6360
6F64
7B7E
6260
6660
680C
7FFE
6000
ENDCHAR
STARTCHAR 532F
ENCODING 21295
SWIDTH 960 0
DWIDTH 16 0
BBX 16 16 0 -2
BITMAP
4018
7FFC
68D8
6DB0
67FC
75B0
79B0
6BF8
65B0
65F8
6DB0
79B0
6DFC
6984
7FFE
6000
ENDCHAR
STARTCHAR 5331
ENCODING 21297
SWIDTH 960 0
DWIDTH 16 0
BBX 16 16 0 -2
BITMAP
4018
7FFC
6180
6FF8
6D98
6FF8
6188
7FFC
6C18
6FF8
6C18
6FF8
6618
6C0C
7FFE
6000
ENDCHAR
STARTCHAR 5333
ENCODING 21299
SWIDTH 960 0
DWIDTH 16 0
BBX 16 16 0 -2
BITMAP
4018
7FFC
60C0
61A0
6330
661E
7BEC
6000
6F78
6D68
6F78
6630
6F38
7148
7FFE
6000
ENDCHAR
STARTCHAR 5338
ENCODING 21304
SWIDTH 960 0
DWIDTH 16 0
BBX 16 16 0 -2
BITMAP
000C
FFFE
3000
3000
3000
3000
3000
3000
3000
3000
3000
3000
3000
3FFC
1FFC
0000
ENDCHAR
STARTCHAR 5339
ENCODING 21305
SWIDTH 960 0
DWIDTH 16 0
BBX 16 16 0 -2
BITMAP
0000
400C
7FFE
6660
6660
6660
6660
6668
6468
6C7C
6838
7000
6000
600C
7FFE
6000
ENDCHAR
STARTCHAR 533A
ENCODING 21306
SWIDTH 960 0
DWIDTH 16 0
BBX 16 16 0 -2
BITMAP
400C
7FFE
6000
6018
6C18
6330
61B0
60E0
60E0
61B0
6338
6618
7810
600C
7FFE
6000
ENDCHAR
STARTCHAR 533B
ENCODING 21307
SWIDTH 960 0
DWIDTH 16 0
BBX 16 16 0 -2
BITMAP
400C
7FFE
6000
6330
63F8
66C0
64C0
60D8
6FFC
61B0
6198
630C
6C0C
6000
7FFE
6000
ENDCHAR
STARTCHAR 533F
ENCODING 21311
SWIDTH 960 0
DWIDTH 16 0
BBX 16 16 0 -2
BITMAP
400C
7FFE
6330
6FFC
6330
60C4
7FFE
6180
63F8
6E18
7E18
67F8
6618
600C
7FFE
6000
ENDCHAR
STARTCHAR 5340
ENCODING 21312
SWIDTH 960 0
DWIDTH 16 0
BBX 16 16 0 -2
BITMAP
4018
7FFC
6000
67F0
6630
6630
67F0
6000
6F7C
6D6C
6D6C
6F7C
6D6C
600C
7FFE
6000
ENDCHAR
STARTCHAR 5341
ENCODING 21313
SWIDTH 960 0
DWIDTH 16 0
BBX 16 16 0 -2
BITMAP
01C0
0180
0180
0180
0180
018C
FFFE
0180
0180
0180
0180
0180
0180
0180
0180
0180
ENDCHAR
STARTCHAR 5343
ENCODING 21315
SWIDTH 960 0
DWIDTH 16 0
BBX 16 16 0 -2
BITMAP
0070
03F8
3F80
0180
0180
0180
018C
FFFE
0180
0180
0180
0180
0180
0180
0180
0180
ENDCHAR
STARTCHAR 5345
ENCODING 21317
SWIDTH 960 0
DWIDTH 16 0
BBX 16 16 0 -2
BITMAP
1DDC
1998
1998
1998
1998
199C
FFFE
1998
1998
1998
1998
1998
1198
3198
2198
C198
ENDCHAR
STARTCHAR 5346
ENCODING 21318
SWIDTH 960 0
DWIDTH 16 0
BBX 16 16 0 -2
BITMAP
0600
0630
7FF8
0630
0630
0C34
0C34
183E
31DC
C180
018C
FFFE
0180
0180
0180
0180
ENDCHAR
STARTCHAR 5347
ENCODING 21319
SWIDTH 960 0
DWIDTH 16 0
BBX 16 16 0 -2
BITMAP
0338
0FB0
7C30
0C30
0C30
0C30
0C34
FFFE
0C30
0C30
0C30
1830
1830
3030
2030
C030
ENDCHAR
STARTCHAR 5348
ENCODING 21320
SWIDTH 960 0
DWIDTH 16 0
BBX 16 16 0 -2
BITMAP
0C00
0C00
1818
1FFC
3180
2180
4180
018C
FFFE
0180
0180
0180
0180
0180
0180
0180
ENDCHAR
STARTCHAR 5349
ENCODING 21321
SWIDTH 960 0
DWIDTH 16 0
BBX 16 16 0 -2
BITMAP
01C0
0198
7FFC
0180
1DB8
19B0
19B0
1834
FFFE
1830
1830
1830
3030
3030
2030
C030
ENDCHAR
STARTCHAR 534A
ENCODING 21322
SWIDTH 960 0
DWIDTH 16 0
BBX 16 16 0 -2
BITMAP
01C0
1188
099C
0D98
0DA0
01A8
7FFC
0180
0180
018C
FFFE
0180
0180
0180
0180
0180
ENDCHAR
STARTCHAR 534D
ENCODING 21325
SWIDTH 960 0
DWIDTH 16 0
BBX 16 16 0 -2
BITMAP
0180
FFCE
018C
018C
018C
018C
418C
7FFC
618C
6180
6180
6180
6180
618C
61FE
6180
ENDCHAR
STARTCHAR 5351
ENCODING 21329
SWIDTH 960 0
DWIDTH 16 0
BBX 16 16 0 -2
BITMAP
0600
2C18
3FFC
3198
3198
3FF8
3198
3198
3FF8
0CC0
18CC
FFFE
00C0
00C0
00C0
00C0
ENDCHAR
STARTCHAR 5352
ENCODING 21330
SWIDTH 960 0
DWIDTH 16 0
BBX 16 16 0 -2
BITMAP
01C0
0180
018C
FFFE
1830
1830
3C78
264C
C688
018C
FFFE
0180
0180
0180
0180
0180
ENDCHAR
STARTCHAR 5353
ENCODING 21331
SWIDTH 960 0
DWIDTH 16 0
BBX 16 16 0 -2
BITMAP
0188
01FC
0180
2198
3FFC
3018
3018
3FF8
3018
3018
3FF8
3198
018C
FFFE
0180
0180
ENDCHAR
STARTCHAR 5354
ENCODING 21332
SWIDTH 960 0
DWIDTH 16 0
BBX 16 16 0 -2
BITMAP
3860
3064
37FE
30CC
FCCC
318C
3738
3310
335A
3FFE
32D6
32D6
32D6
36F6
37BC
3948
ENDCHAR
STARTCHAR 5357
ENCODING 21335
SWIDTH 960 0
DWIDTH 16 0
BBX 16 16 0 -2
BITMAP
01C0
018C
FFFE
0180
418C
7FFE
644C
66EC
628C
6FEC
618C
618C
7FFC
618C
61BC
6198
ENDCHAR
STARTCHAR 5358
ENCODING 21336
SWIDTH 960 0
DWIDTH 16 0
BBX 16 16 0 -2
BITMAP
1B30
0DB0
2DA8
3FFC
3198
3198
3FF8
3198
3198
3FF8
3198
018C
FFFE
0180
0180
0180
ENDCHAR
STARTCHAR 535A
ENCODING 21338
SWIDTH 960 0
DWIDTH 16 0
BBX 16 16 0 -2
BITMAP
3868
306C
33FE
3060
FFFC
336C
33FC
336C
33FC
3018
37FE
3218
3198
3198
3078
3030
ENDCHAR
STARTCHAR 535C
ENCODING 21340
SWIDTH 960 0
DWIDTH 16 0
BBX 16 16 0 -2
BITMAP
0380
0300
0300
0300
0300
03C0
0370
0338
031C
030C
0300
0300
0300
0300
0300
0300
ENDCHAR
STARTCHAR 535E
ENCODING 21342
SWIDTH 960 0
DWIDTH 16 0
BBX 16 16 0 -2
BITMAP
01C0
0180
018C
FFFE
0180
0180
0180
01E0
01B8
019C
018C
0180
0180
0180
0180
0180
ENDCHAR
STARTCHAR 5360
ENCODING 21344
SWIDTH 960 0
DWIDTH 16 0
BBX 16 16 0 -2
BITMAP
0380
0300
0318
03FC
0300
0300
0300
2318
3FFC
3018
3018
3018
3018
3018
3FF8
3018
ENDCHAR
STARTCHAR 5366
ENCODING 21350
SWIDTH 960 0
DWIDTH 16 0
BBX 16 16 0 -2
BITMAP
1C70
1860
7F60
1860
1860
1B70
FFEC
0066
1C66
1860
7F60
1860
1860
1FE0
F860
C060
ENDCHAR
STARTCHAR 5369
ENCODING 21353
SWIDTH 960 0
DWIDTH 16 0
BBX 16 16 0 -2
BITMAP
0830
0FF8
0C30
0C30
0C30
0C30
0C30
0C30
0C30
0C30
0C30
0DF0
0C60
0C00
0C00
0C00
ENDCHAR
STARTCHAR 536E
ENCODING 21358
SWIDTH 960 0
DWIDTH 16 0
BBX 16 16 0 -2
BITMAP
0038
21FC
3F00
300C
3FFE
3000
3430
37F8
3630
3630
3630
2674
6624
4606
87FE
03FC
ENDCHAR
STARTCHAR 536F
ENCODING 21359
SWIDTH 960 0
DWIDTH 16 0
BBX 16 16 0 -2
BITMAP
0646
4F7E
7866
6766
6666
6666
6666
6666
6666
6666
7E66
F666
C67E
0C64
1860
6060
ENDCHAR
STARTCHAR 5370
ENCODING 21360
SWIDTH 960 0
DWIDTH 16 0
BBX 16 16 0 -2
BITMAP
0600
4F86
78FE
60C6
60C6
64C6
7EC6
60C6
60C6
60C6
60C6
66E6
7FDE
61CC
60C0
00C0
ENDCHAR
STARTCHAR 5371
ENCODING 21361
SWIDTH 960 0
DWIDTH 16 0
BBX 16 16 0 -2
BITMAP
0620
07F0
0C60
18C0
310C
FFFE
3000
3430
37F8
3630
3630
3674
2634
6606
47FE
83FC
ENDCHAR
STARTCHAR 5373
ENCODING 21363
SWIDTH 960 0
DWIDTH 16 0
BBX 16 16 0 -2
BITMAP
4246
7F7E
6666
6666
7E66
6666
6666
6666
7E66
6466
6466
6266
6E7E
F364
C360
0060
ENDCHAR
STARTCHAR 5374
ENCODING 21364
SWIDTH 960 0
DWIDTH 16 0
BBX 16 16 0 -2
BITMAP
1C46
187E
1A66
7F66
1866
1866
1B66
FFE6
1866
3466
3666
227E
3F6C
F360
C060
0060
ENDCHAR
STARTCHAR 5375
ENCODING 21365
SWIDTH 960 0
DWIDTH 16 0
BBX 16 16 0 -2
BITMAP
0646
4F7E
7C66
6366
7376
7B7E
6F6E
6B6E
6366
6366
7F66
F366
C67E
066C
0C60
3060
ENDCHAR
STARTCHAR 5377
ENCODING 21367
SWIDTH 960 0
DWIDTH 16 0
BBX 16 16 0 -2
BITMAP
1180
19B0
319C
7FEC
8380
034C
FFFE
0620
0C38
1FFE
3C6C
CC64
0CE8
0C0C
0FFC
07F8
ENDCHAR
STARTCHAR 5378
ENCODING 21368
SWIDTH 960 0
DWIDTH 16 0
BBX 16 16 0 -2
BITMAP
608C
66FE
7FCC
D8CC
98CC
1ACC
FFCC
18CC
1ACC
DFCC
D8CC
D8FC
DFD8
FCC0
E0C0
00C0
ENDCHAR
STARTCHAR 537B
ENCODING 21371
SWIDTH 960 0
DWIDTH 16 0
BBX 16 16 0 -2
BITMAP
2644
337E
6366
4C66
9C66
1A66
33E6
6366
FF66
6666
6666
667E
6664
7E60
6660
0060
ENDCHAR
STARTCHAR 537F
ENCODING 21375
SWIDTH 960 0
DWIDTH 16 0
BBX 16 16 0 -2
BITMAP
1800
5C52
77FE
46DA
57DA
56DA
56DA
57DA
56DA
F71A
D69A
36DE
2FDA
6658
4418
8018
ENDCHAR
STARTCHAR 5382
ENCODING 21378
SWIDTH 960 0
DWIDTH 16 0
BBX 16 16 0 -2
BITMAP
200C
3FFE
3000
3000
3000
3000
3000
3000
3000
3000
3000
2000
6000
6000
4000
8000
ENDCHAR
STARTCHAR 5384
ENCODING 21380
SWIDTH 960 0
DWIDTH 16 0
BBX 16 16 0 -2
BITMAP
200C
3FFE
3000
3218
33FC
3318
3318
3318
3318
3378
3314
2304
6306
43FE
81FC
0000
ENDCHAR
STARTCHAR 5396
ENCODING 21398
SWIDTH 960 0
DWIDTH 16 0
BBX 16 16 0 -2
BITMAP
400C
7FFE
63C0
6360
6300
7FE8
631C
67B8
678C
679C
65B6
6D8C
6DB8
4984
51FE
80FC
ENDCHAR
STARTCHAR 5398
ENCODING 21400
SWIDTH 960 0
DWIDTH 16 0
BBX 16 16 0 -2
BITMAP
2004
3FFE
3000
37F8
36D8
37F8
36D8
36D8
37F8
30C0
30D0
27F8
60C0
40CC
9FFE
0000
ENDCHAR
STARTCHAR 539A
ENCODING 21402
SWIDTH 960 0
DWIDTH 16 0
BBX 16 16 0 -2
BITMAP
200C
3FFE
3000
37F8
3618
37F8
3618
37F8
3010
37F8
3034
2FFE
60C0
40C0
87C0
0180
ENDCHAR
STARTCHAR 539F
ENCODING 21407
SWIDTH 960 0
DWIDTH 16 0
BBX 16 16 0 -2
BITMAP
200C
3FFE
30C0
3598
37FC
3618
3618
37F8
3618
3618
37F8
32C0
26D8
66CC
4DCC
9180
ENDCHAR
STARTCHAR 53A0
ENCODING 21408
SWIDTH 960 0
DWIDTH 16 0
BBX 16 16 0 -2
BITMAP
400C
7FFE
6000
6F8E
6DAC
6DAC
6FAC
6DAC
6DAC
6FAC
6DAC
6DAC
6FAC
4D8C
58DC
A0C8
ENDCHAR
STARTCHAR 53A5
ENCODING 21413
SWIDTH 960 0
DWIDTH 16 0
BBX 16 16 0 -2
BITMAP
400C
7FFE
68B0
6DB0
6534
6FFE
6254
6AB8
6AB0
6AB8
6FB8
6AA8
466C
444E
8884
1304
ENDCHAR
STARTCHAR 53A6
ENCODING 21414
SWIDTH 960 0
DWIDTH 16 0
BBX 16 16 0 -2
BITMAP
400C
7FFE
6008
7FFC
6300
6FF0
6C30
6FF0
6C30
6FF0
6320
67F0
5E60
41E0
47BE
BC0C
ENDCHAR
STARTCHAR 53A8
ENCODING 21416
SWIDTH 960 0
DWIDTH 16 0
BBX 16 16 0 -2
BITMAP
4004
7FFE
6000
6118
7F98
6018
6F18
6DFE
6D58
6D78
6F18
6318
4A18
4F98
9E78
1830
ENDCHAR
STARTCHAR 53A9
ENCODING 21417
SWIDTH 960 0
DWIDTH 16 0
BBX 16 16 0 -2
BITMAP
400C
7FFE
6000
6FFC
6D58
6F58
6D58
6D58
6FFE
6E38
6D38
6DBA
4FFA
5E5C
8CDE
010C
ENDCHAR
STARTCHAR 53AD
ENCODING 21421
SWIDTH 960 0
DWIDTH 16 0
BBX 16 16 0 -2
BITMAP
400C
7FFE
6000
6F38
6D3C
6F34
6D34
6FFE
6030
6F30
6D38
6F28
4D6C
4F6E
8D44
0D84
ENDCHAR
STARTCHAR 53AE
ENCODING 21422
SWIDTH 960 0
DWIDTH 16 0
BBX 16 16 0 -2
BITMAP
400C
7FFE
6000
6D04
6D5E
7FF8
6D60
6F64
6D7E
6F6C
6D6C
5FEC
4B4C
59CC
908C
210C
ENDCHAR
STARTCHAR 53B0
ENCODING 21424
SWIDTH 960 0
DWIDTH 16 0
BBX 16 16 0 -2
BITMAP
400C
7FFE
6600
6FB0
7EF0
7634
6FBE
69EC
69AC
6FAC
6BB8
6B98
6F98
49BE
4BAC
89C4
ENDCHAR
STARTCHAR 53B3
ENCODING 21427
SWIDTH 960 0
DWIDTH 16 0
BBX 16 16 0 -2
BITMAP
0918
4DB4
7FFE
6020
6130
7FE4
667E
7FD8
6BD8
6F58
6B38
6F30
6B38
5F6E
5B4C
8384
ENDCHAR
STARTCHAR 53B6
ENCODING 21430
SWIDTH 960 0
DWIDTH 16 0
BBX 16 16 0 -2
BITMAP
0100
0180
0180
0300
0300
0300
0200
0620
0410
0410
0C08
080C
11FC
FF86
F006
0000
ENDCHAR
STARTCHAR 53BB
ENCODING 21435
SWIDTH 960 0
DWIDTH 16 0
BBX 16 16 0 -2
BITMAP
01C0
0180
0198
7FFC
0180
0180
0180
018C
FFFE
0300
0310
0610
0408
0DFC
7F0C
780C
ENDCHAR
STARTCHAR 53C2
ENCODING 21442
SWIDTH 960 0
DWIDTH 16 0
BBX 16 16 0 -2
BITMAP
0320
0610
7FF8
7998
0184
FFFE
0620
0CB0
19DE
330C
CCE4
01C0
0F10
0078
01E0
1F00
ENDCHAR
STARTCHAR 53C3
ENCODING 21443
SWIDTH 960 0
DWIDTH 16 0
BBX 16 16 0 -2
BITMAP
0620
0C18
7FFC
7E34
1424
FEFE
E376
07C0
0D70
3BBE
C74C
3CE0
0390
3E38
01E0
7F00
ENDCHAR
STARTCHAR 53C8
ENCODING 21448
SWIDTH 960 0
DWIDTH 16 0
BBX 16 16 0 -2
BITMAP
0000
0018
7FFC
0818
0830
0430
0460
0260
02C0
0180
0180
03C0
0670
0C3E
300C
C004
ENDCHAR
STARTCHAR 53C9
ENCODING 21449
SWIDTH 960 0
DWIDTH 16 0
BBX 16 16 0 -2
BITMAP
0000
0018
7FFC
0A18
0998
09B0
0430
0660
0260
03C0
0180
03C0
0670
0C3E
300C
C004
ENDCHAR
STARTCHAR 53CA
ENCODING 21450
SWIDTH 960 0
DWIDTH 16 0
BBX 16 16 0 -2
BITMAP
0060
7FF0
0C60
0C60
0C60
0CD8
0EFC
0ED8
0B18
1918
19B0
10E0
3070
20FE
439C
8C04
ENDCHAR
STARTCHAR 53CB
ENCODING 21451
SWIDTH 960 0
DWIDTH 16 0
BBX 16 16 0 -2
BITMAP
0380
0300
030C
FFFE
0300
0300
0330
07F8
0730
0D60
0D60
18C0
31E0
C33E
061C
3804
ENDCHAR
STARTCHAR 53CC
ENCODING 21452
SWIDTH 960 0
DWIDTH 16 0
BBX 16 16 0 -2
BITMAP
0C18
FFFC
0D18
0D18
8D18
6C98
3898
18B0
1C70
1E60
3670
30F0
20D8
619E
430C
8C04
ENDCHAR
STARTCHAR 53CD
ENCODING 21453
SWIDTH 960 0
DWIDTH 16 0
BBX 16 16 0 -2
BITMAP
200C
3FFE
3000
3000
3030
3FF8
3430
3430
3260
3260
31C0
60C0
61E0
433E
8C1C
3004
ENDCHAR
STARTCHAR 53CE
ENCODING 21454
SWIDTH 960 0
DWIDTH 16 0
BBX 16 16 0 -2
BITMAP
0E00
0C18
6FFC
6D18
6D18
6D18
6C98
6CB0
6CB0
6C70
FC60
CC70
0CD8
0C9E
0D0C
0E04
ENDCHAR
STARTCHAR 53D4
ENCODING 21460
SWIDTH 960 0
DWIDTH 16 0
BBX 16 16 0 -2
BITMAP
1C00
1818
19FC
1E98
1898
1A98
FF58
1850
5C70
7A30
7B60
5B70
58D8
989E
390C
3604
ENDCHAR
STARTCHAR 53D6
ENCODING 21462
SWIDTH 960 0
DWIDTH 16 0
BBX 16 16 0 -2
BITMAP
0100
FF80
3618
37FC
3E98
3698
3658
3E58
3670
3630
3630
3E70
F658
C6CE
068C
0704
ENDCHAR
STARTCHAR 53D7
ENCODING 21463
SWIDTH 960 0
DWIDTH 16 0
BBX 16 16 0 -2
BITMAP
0078
7FFC
1218
1B30
4DA4
7FFE
C00C
C068
3FF0
0460
02C0
0380
03E0
0E7E
381C
C004
ENDCHAR
STARTCHAR 53D9
ENCODING 21465
SWIDTH 960 0
DWIDTH 16 0
BBX 16 16 0 -2
BITMAP
1800
1C18
37FC
3698
6098
7E98
9858
1A58
FF50
1870
5E30
7B30
7B78
585E
988C
1B04
ENDCHAR
STARTCHAR 53DB
ENCODING 21467
SWIDTH 960 0
DWIDTH 16 0
BBX 16 16 0 -2
BITMAP
1D0C
99FE
5B80
7F80
5998
19FC
FF98
1998
1BD8
FD58
DB30
1230
3678
64CE
498C
8604
ENDCHAR
STARTCHAR 53DF
ENCODING 21471
SWIDTH 960 0
DWIDTH 16 0
BBX 16 16 0 -2
BITMAP
2DC4
3DBE
318C
318C
3DBC
318C
318C
3FFC
0190
7FF8
0830
0460
06C0
03C0
0EFE
F03C
ENDCHAR
STARTCHAR 53E1
ENCODING 21473
SWIDTH 960 0
DWIDTH 16 0
BBX 16 16 0 -2
BITMAP
1F0C
597E
7FCC
C34C
BE4C
592C
5DAC
B6A8
3FB8
7338
BF10
3238
3E38
326E
3E4C
3384
ENDCHAR
STARTCHAR 53E2
ENCODING 21474
SWIDTH 960 0
DWIDTH 16 0
BBX 16 16 0 -2
BITMAP
26D8
36D4
FFFE
0660
3FF8
0180
1FF0
018C
FFFE
6608
7FFC
6698
7E70
667E
FECC
C704
ENDCHAR
STARTCHAR 53E3
ENCODING 21475
SWIDTH 960 0
DWIDTH 16 0
BBX 16 16 0 -2
BITMAP
0000
2018
3FFC
3018
3018
3018
3018
3018
3018
3018
3018
3018
3018
3FF8
3018
0000
ENDCHAR
STARTCHAR 53E4
ENCODING 21476
SWIDTH 960 0
DWIDTH 16 0
BBX 16 16 0 -2
BITMAP
01C0
0180
018C
FFFE
0180
0180
0180
2198
3FFC
3018
3018
3018
3018
3018
3FF8
3018
ENDCHAR
STARTCHAR 53E5
ENCODING 21477
SWIDTH 960 0
DWIDTH 16 0
BBX 16 16 0 -2
BITMAP
0C00
0C00
1806
1FFE
3006
70C6
9FE6
18C6
18C6
18C6
18C6
1FC6
18C6
180C
003C
0018
ENDCHAR
STARTCHAR 53E8
ENCODING 21480
SWIDTH 960 0
DWIDTH 16 0
BBX 16 16 0 -2
BITMAP
000C
8BFE
FECC
CCCC
CCCC
CCCC
CCCC
CCCC
CD8C
FD8C
CD8C
C118
0318
0218
0470
1830
ENDCHAR
STARTCHAR 53E9
ENCODING 21481
SWIDTH 960 0
DWIDTH 16 0
BBX 16 16 0 -2
BITMAP
8C86
FEFE
CCC6
CCC6
CCC6
CCC6
CCC6
CCC6
CCC6
CCC6
FCC6
CCDE
C0CC
00C0
00C0
00C0
ENDCHAR
STARTCHAR 53EA
ENCODING 21482
SWIDTH 960 0
DWIDTH 16 0
BBX 16 16 0 -2
BITMAP
1018
1FFC
1818
1818
1818
1818
1818
1818
1FF8
1818
0420
0E10
0C18
180C
3006
C006
ENDCHAR
STARTCHAR 53EB
ENCODING 21483
SWIDTH 960 0
DWIDTH 16 0
BBX 16 16 0 -2
BITMAP
001C
0018
99D8
FD98
D998
D998
D998
D998
D998
D99E
F9BC
D9F8
C718
0018
0018
0018
ENDCHAR
STARTCHAR 53EC
ENCODING 21484
SWIDTH 960 0
DWIDTH 16 0
BBX 16 16 0 -2
BITMAP
000C
FFFE
060C
0C0C
0C0C
1818
30F8
C030
2018
3FFC
3018
3018
3018
3018
3FF8
3018
ENDCHAR
STARTCHAR 53ED
ENCODING 21485
SWIDTH 960 0
DWIDTH 16 0
BBX 16 16 0 -2
BITMAP
0010
8878
FD10
C990
C990
C990
C990
C990
CB18
FB18
CB18
C208
060C
040E
080C
3004
ENDCHAR
STARTCHAR 53EE
ENCODING 21486
SWIDTH 960 0
DWIDTH 16 0
BBX 16 16 0 -2
BITMAP
000C
8BFE
FE30
CC30
CC30
CC30
CC30
CC30
CC30
CC30
FC30
CC30
C030
0030
00F0
0060
ENDCHAR
STARTCHAR 53EF
ENCODING 21487
SWIDTH 960 0
DWIDTH 16 0
BBX 16 16 0 -2
BITMAP
0000
000C
FFFE
0018
1198
1FD8
1998
1998
1998
1998
1F98
1998
1818
0018
00F8
0030
ENDCHAR
STARTCHAR 53F0
ENCODING 21488
SWIDTH 960 0
DWIDTH 16 0
BBX 16 16 0 -2
BITMAP
0300
0300
0610
0408
080C
FFFC
7F0E
0004
2018
3FFC
3018
3018
3018
3018
3FF8
3018
ENDCHAR
STARTCHAR 53F1
ENCODING 21489
SWIDTH 960 0
DWIDTH 16 0
BBX 16 16 0 -2
BITMAP
01C0
0180
9980
FD84
D98E
D9B8
D9C0
DB80
DD80
F980
D980
C184
0184
0186
01FE
00FC
ENDCHAR
STARTCHAR 53F2
ENCODING 21490
SWIDTH 960 0
DWIDTH 16 0
BBX 16 16 0 -2
BITMAP
01C0
0180
418C
7FFE
618C
618C
618C
7FFC
518C
0980
0700
0300
07C0
0CFE
383C
C004
ENDCHAR
STARTCHAR 53F3
ENCODING 21491
SWIDTH 960 0
DWIDTH 16 0
BBX 16 16 0 -2
BITMAP
0380
0300
030C
FFFE
0600
0600
0C00
0C18
1FFC
3C18
CC18
0C18
0C18
0C18
0FF8
0C18
ENDCHAR
STARTCHAR 53F6
ENCODING 21494
SWIDTH 960 0
DWIDTH 16 0
BBX 16 16 0 -2
BITMAP
0038
0030
4630
7F30
6630
6634
67FE
6630
6630
6630
7E30
6630
6030
0030
0030
0030
ENDCHAR
STARTCHAR 53F7
ENCODING 21495
SWIDTH 960 0
DWIDTH 16 0
BBX 16 16 0 -2
BITMAP
1030
1FF8
1830
1830
1830
1FF0
000C
FFFE
0600
0C30
0FF8
1830
0030
0060
03E0
00C0
ENDCHAR
STARTCHAR 53F8
ENCODING 21496
SWIDTH 960 0
DWIDTH 16 0
BBX 16 16 0 -2
BITMAP
000C
FFFE
000C
00CC
3FEC
000C
108C
1FCC
198C
198C
198C
1F8C
198C
000C
007C
0018
ENDCHAR
STARTCHAR 53FA
ENCODING 21498
SWIDTH 960 0
DWIDTH 16 0
BBX 16 16 0 -2
BITMAP
0040
8DE0
FE40
CC40
CC40
CC40
CC40
CC60
CCE0
FCE0
CDB0
C1B0
0318
061E
0C0C
3004
ENDCHAR
STARTCHAR 5401
ENCODING 21505
SWIDTH 960 0
DWIDTH 16 0
BBX 16 16 0 -2
BITMAP
0008
8BFC
FC30
CC30
CC30
CC30
CC34
CFFE
CC30
CC30
FC30
CC30
C030
0030
00F0
0060
ENDCHAR
STARTCHAR 5403
ENCODING 21507
SWIDTH 960 0
DWIDTH 16 0
BBX 16 16 0 -2
BITMAP
0180
0180
8B0C
FBFE
DA00
DC18
DBFC
D818
D830
D860
F8C0
D984
C304
0306
03FE
01FC
ENDCHAR
STARTCHAR 5404
ENCODING 21508
SWIDTH 960 0
DWIDTH 16 0
BBX 16 16 0 -2
BITMAP
0200
0330
07F8
0C30
1C60
72C0
0380
03E0
0E7E
383C
DFF4
1830
1830
1830
1FF0
1830
ENDCHAR
STARTCHAR 5408
ENCODING 21512
SWIDTH 960 0
DWIDTH 16 0
BBX 16 16 0 -2
BITMAP
0180
0380
0340
0660
0C30
181E
306C
CFF4
0000
1030
1FF8
1830
1830
1830
1FF0
1830
ENDCHAR
STARTCHAR 5409
ENCODING 21513
SWIDTH 960 0
DWIDTH 16 0
BBX 16 16 0 -2
BITMAP
01C0
0180
018C
FFFE
0180
0180
0198
7FFC
0000
2018
3FFC
3018
3018
3018
3FF8
3018
ENDCHAR
STARTCHAR 540A
ENCODING 21514
SWIDTH 960 0
DWIDTH 16 0
BBX 16 16 0 -2
BITMAP
2018
3FFC
3018
3018
3018
3FF8
0180
418C
7FFE
618C
618C
618C
618C
61BC
6198
0180
ENDCHAR
STARTCHAR 540B
ENCODING 21515
SWIDTH 960 0
DWIDTH 16 0
BBX 16 16 0 -2
BITMAP
001C
0018
8C18
FE18
CC1C
CFFE
CC18
CF18
CD98
CD98
FC18
CC18
C018
0018
0078
0030
ENDCHAR
STARTCHAR 540C
ENCODING 21516
SWIDTH 960 0
DWIDTH 16 0
BBX 16 16 0 -2
BITMAP
400C
7FFE
600C
604C
6FEC
600C
686C
6FEC
6C6C
6C6C
6C6C
6FEC
6C6C
600C
603C
6018
ENDCHAR
STARTCHAR 540D
ENCODING 21517
SWIDTH 960 0
DWIDTH 16 0
BBX 16 16 0 -2
BITMAP
0300
0310
07F8
0E30
1830
6E60
03C0
0380
030C
07FE
1E0C
360C
C60C
060C
07FC
060C
ENDCHAR
STARTCHAR 540E
ENCODING 21518
SWIDTH 960 0
DWIDTH 16 0
BBX 16 16 0 -2
BITMAP
0030
21F8
3F00
3000
300C
3FFE
3000
3418
37FC
3618
3618
2618
6618
4618
87F8
0618
ENDCHAR
STARTCHAR 540F
ENCODING 21519
SWIDTH 960 0
DWIDTH 16 0
BBX 16 16 0 -2
BITMAP
01C0
018C
FFFE
0180
3FF8
3198
3198
3FF8
1198
0980
0B00
0700
07C0
0CFE
183C
E004
ENDCHAR
STARTCHAR 5410
ENCODING 21520
SWIDTH 960 0
DWIDTH 16 0
BBX 16 16 0 -2
BITMAP
0070
8C60
FE60
CC60
CC68
CFFC
CC60
CC60
CC60
CC60
FC60
CC60
C060
006C
0FFE
0000
ENDCHAR
STARTCHAR 5411
ENCODING 21521
SWIDTH 960 0
DWIDTH 16 0
BBX 16 16 0 -2
BITMAP
0180
0180
4306
7FFE
6006
6426
67F6
6666
6666
6666
6666
67E6
6666
6006
601E
600C
ENDCHAR
STARTCHAR 541B
ENCODING 21531
SWIDTH 960 0
DWIDTH 16 0
BBX 16 16 0 -2
BITMAP
0030
3FF8
0630
0634
FFFE
0630
0630
3FF0
0C30
0C18
1FFC
3C18
CC18
0C18
0FF8
0C18
ENDCHAR
STARTCHAR 541D
ENCODING 21533
SWIDTH 960 0
DWIDTH 16 0
BBX 16 16 0 -2
BITMAP
01C0
018C
FFFE
0860
04C0
06C0
0380
06E0
1C7E
E01C
1FF0
1830
1830
1830
1FF0
1830
ENDCHAR
STARTCHAR 541F
ENCODING 21535
SWIDTH 960 0
DWIDTH 16 0
BBX 16 16 0 -2
BITMAP
0060
8860
FCD0
D8D8
D99E
DB0C
DDF4
D800
D818
DBFC
F818
D830
C030
0060
0060
00C0
ENDCHAR
STARTCHAR 5420
ENCODING 21536
SWIDTH 960 0
DWIDTH 16 0
BBX 16 16 0 -2
BITMAP
0060
9878
FC6C
D86C
D864
DFFE
D860
D860
D860
D8D0
F8D0
D898
C198
010E
020C
0C04
ENDCHAR
STARTCHAR 5426
ENCODING 21542
SWIDTH 960 0
DWIDTH 16 0
BBX 16 16 0 -2
BITMAP
000C
FFFE
0180
03B0
079C
0D86
3186
C180
1198
1FFC
1818
1818
1818
1818
1FF8
1818
ENDCHAR
STARTCHAR 5429
ENCODING 21545
SWIDTH 960 0
DWIDTH 16 0
BBX 16 16 0 -2
BITMAP
0020
8970
FDA0
D9B0
D990
DB18
DA0E
DC0C
DBFC
F998
D998
C198
0318
0330
06F0
1860
ENDCHAR
STARTCHAR 542B
ENCODING 21547
SWIDTH 960 0
DWIDTH 16 0
BBX 16 16 0 -2
BITMAP
0300
0380
0640
0C60
1BB0
305E
CFEC
0064
00C0
2198
3FFC
3018
3018
3018
3FF8
3018
ENDCHAR
STARTCHAR 542C
ENCODING 21548
SWIDTH 960 0
DWIDTH 16 0
BBX 16 16 0 -2
BITMAP
0008
853C
FFF0
CD80
CD80
CD8C
CDFE
CD98
CD98
FD98
CD98
C118
0318
0218
0418
0818
ENDCHAR
STARTCHAR 542D
ENCODING 21549
SWIDTH 960 0
DWIDTH 16 0
BBX 16 16 0 -2
BITMAP
0070
9860
FC6C
DFFE
D800
DA30
DBF8
DB30
DB30
FB30
DB30
C334
0634
0636
0C3E
301C
ENDCHAR
STARTCHAR 542E
ENCODING 21550
SWIDTH 960 0
DWIDTH 16 0
BBX 16 16 0 -2
BITMAP
00C0
88C0
FCC0
D998
D90C
D97E
DFF6
DFB0
D9B0
F9B0
D9B0
C334
0334
0636
0C3E
301C
ENDCHAR
STARTCHAR 5436
ENCODING 21558
SWIDTH 960 0
DWIDTH 16 0
BBX 16 16 0 -2
BITMAP
03E0
8860
FE64
DBFE
DB6C
DB6C
DB6C
DB7C
DBBC
DB8C
FB0C
DB0C
C30C
030C
033C
0318
ENDCHAR
ENDFONT
